<mxfile host="Electron" agent="Mozilla/5.0 (Windows NT 10.0; Win64; x64) AppleWebKit/537.36 (KHTML, like Gecko) draw.io/26.2.2 Chrome/134.0.6998.178 Electron/35.1.2 Safari/537.36" version="26.2.2">
  <diagram name="Page-1" id="VjAa9bXf5Vk5wAvXDbPC">
    <mxGraphModel dx="1030" dy="614" grid="1" gridSize="10" guides="1" tooltips="1" connect="1" arrows="1" fold="1" page="1" pageScale="1" pageWidth="850" pageHeight="1100" math="0" shadow="0">
      <root>
        <mxCell id="0" />
        <mxCell id="1" parent="0" />
        <mxCell id="yBYCKp3V-Md0Z7jDwAjW-6" value="AWS Cloud" style="points=[[0,0],[0.25,0],[0.5,0],[0.75,0],[1,0],[1,0.25],[1,0.5],[1,0.75],[1,1],[0.75,1],[0.5,1],[0.25,1],[0,1],[0,0.75],[0,0.5],[0,0.25]];outlineConnect=0;gradientColor=none;html=1;whiteSpace=wrap;fontSize=12;fontStyle=0;container=0;pointerEvents=0;collapsible=0;recursiveResize=0;shape=mxgraph.aws4.group;grIcon=mxgraph.aws4.group_aws_cloud_alt;strokeColor=#232F3E;fillColor=none;verticalAlign=top;align=left;spacingLeft=30;fontColor=#232F3E;dashed=0;" vertex="1" parent="1">
          <mxGeometry x="216" y="170" width="590" height="390" as="geometry" />
        </mxCell>
        <mxCell id="yBYCKp3V-Md0Z7jDwAjW-15" value="&lt;b&gt;&lt;font style=&quot;font-size: 14px;&quot;&gt;ML / AI&lt;/font&gt;&lt;/b&gt;" style="image;sketch=0;aspect=fixed;html=1;points=[];align=center;fontSize=12;image=img/lib/mscae/Machine_Learning_Service_Workspaces.svg;" vertex="1" parent="1">
          <mxGeometry x="111" y="480" width="46" height="50" as="geometry" />
        </mxCell>
        <mxCell id="yBYCKp3V-Md0Z7jDwAjW-16" value="&lt;b&gt;&lt;font style=&quot;font-size: 14px;&quot;&gt;Dashboard&lt;/font&gt;&lt;/b&gt;" style="image;aspect=fixed;html=1;points=[];align=center;fontSize=12;image=img/lib/azure2/general/Dashboard2.svg;labelPosition=center;verticalLabelPosition=top;verticalAlign=bottom;" vertex="1" parent="1">
          <mxGeometry x="100" y="380" width="68" height="48" as="geometry" />
        </mxCell>
        <mxCell id="yBYCKp3V-Md0Z7jDwAjW-17" value="" style="shape=flexArrow;endArrow=classic;startArrow=classic;html=1;rounded=0;exitX=0;exitY=0.25;exitDx=0;exitDy=0;exitPerimeter=0;fillColor=default;width=9;endSize=4.34;" edge="1" parent="1" source="yBYCKp3V-Md0Z7jDwAjW-7">
          <mxGeometry width="100" height="100" relative="1" as="geometry">
            <mxPoint x="550" y="380" as="sourcePoint" />
            <mxPoint x="180" y="400" as="targetPoint" />
          </mxGeometry>
        </mxCell>
        <mxCell id="yBYCKp3V-Md0Z7jDwAjW-18" value="" style="shape=flexArrow;endArrow=classic;startArrow=classic;html=1;rounded=0;fillColor=default;" edge="1" parent="1" target="yBYCKp3V-Md0Z7jDwAjW-7">
          <mxGeometry width="100" height="100" relative="1" as="geometry">
            <mxPoint x="170" y="500" as="sourcePoint" />
            <mxPoint x="650" y="280" as="targetPoint" />
          </mxGeometry>
        </mxCell>
        <mxCell id="yBYCKp3V-Md0Z7jDwAjW-10" value="" style="rounded=1;whiteSpace=wrap;html=1;" vertex="1" parent="1">
          <mxGeometry x="272" y="200" width="470" height="140" as="geometry" />
        </mxCell>
        <mxCell id="yBYCKp3V-Md0Z7jDwAjW-3" value="" style="shape=image;verticalLabelPosition=bottom;labelBackgroundColor=default;verticalAlign=top;aspect=fixed;imageAspect=0;image=data:image/webp,UklGRtIQAABXRUJQVlA4WAoAAAAYAAAAvwAAvwAAQUxQSPwLAAANsEbbtqo50T7nvqoiikQa1wjuEnfH3d3d3eWXu9Pu7oJXQkdwiOAQHAonnnzvnj3G9+77vi9Vt257j4iAKNlW0Ib3nrk8wJukLdyCX4B/O5mUC9ONJMhQkgyEguJKqXoBEhwCCRxMMxCBysDl7wmrYQFganMqrv93Hrl5ma8GyeLCpPYWcbK8+ZjD7/2D96TRAsSEFhXJugB9zhl482zzxqobkskhhIiqLgOALS/86vY2CzoklEOKvFMXvokJZzz84+XeaEnlEIGqIbSW46Y88JjRjJbQOVwUkqFsa5275m2vMrgNGIA0rvuGWrbDBW/e95WZGVPJIRBonTeyz7G//0XF6JlMDlGPOtb9xJF3TzdjqYOASK5tcEHLre95DzOQKRwkaMCGnvfiA4vychIpTmYHHP6z3/mA00AkGax22vZ3PGc+0GKWaI4BF1Ru/djXljLptVHnPPHjpVaAZHM0H7PHdx8KeqWbo885G98+u+BMOMeWF356T1swgSSbQ6Yc/0RV0Sd9Fep+ZKHoPUKQ1BmwjqJ/3ZuZwRKdxA7nzr/vS1qQZJqT2Z5H/uXnFTOzZDtWO3bYfdN90h0bn+tuez8PyeJfRSXSDzbqvFkPfM3A415FJWyTGBPZ4T0f8GYo8zJSRCldovz7aFErizATAowSBRF6hJ+rOaslgw0RdpAChTUDScTnTZkB623z5wJFqCalqImIKLD6rt+ngRE2tgDS96rVr3u1IDNENYtLaTNbBeoOP+bpX3tahNVM6SgYeunsO7+iMSY1KaBAg1C3y0XAgi7ejIjuRVVRNOpBR//s1xVGtLcgFBGBijhd7/zwL4TeaNFVVFRcaW9h59ueqbO30PEkUBXnuh81GIF1zY0W4UAHRejY+JLKXe95z9ApjIBEne56eHmGchZUEKFnrCEEznzqO8u8r8XRsSSi6rY9veYSEecrnKlYTSGw/89/l9NoZY4OW2kCkr5n9ECN0gR6YYQFUm+zvM+JW94xx5uxgzgEKCF1LYePrfcT8mqQ6KBQIFJ3b+GLO+uc2nUMiejkoxuYosJ6jLDWp2n41K6dSaCq2v+8hj9enF7rshKndu1IIgXqe3y/Br/XoilyW4lTO7YXiYgTbTpo10Z/uzqDNXRq1z6DBCz1ENWRx3bmLbZGTu0KL4OVFykK5/qdjE5tDZ3ascYmoYArN0pVsu4nbJbcUzsJ8hrMF017H4jObu1yate4One67TmpPLVrUKS4tU/umdxTOwHKSLscOwRxGCXWU7tFd3xaW8rUFSlu0hFJQwAw8cxHf1T71A411bnucHIsCCSzqE/t/lqEFQDlubpQ52d2jyYAatyndv2uf9XMSkqm6OGkpM5jcQOX9JCYwZaXf3Dbl0bzBEr6dsRp8WQCtzm/P279uE/tTv3DL5YZzASiTvufiXhCQNLMz/91v916Ri5l7n0yLyriVjtlIGIyEhbYCzOGDmqOW8p0vfFtUrOD90VkRoP5vOqV6e+P2yJuKbPz/SZY64DYEABPbxWStnBqvutaUYNupDjEZmHazHuD6fvTNhrTLd7SogAsvpDCvYXbXmqzXxi6Uxatd41zB4OABSBY2wQrprdN6hdpaRJSJU5nCOiRQ+SLJ7pO6RVl0XBElM4yMJgBMv/JTce0ROkC+DhdyGBQ2MvEbM7s0dtqdEXUAI0UBt0LZ7j7q37pjK93jVDKCIKO0SYDCQDv4eGp/rPW3pN7Ip1GSDnp6YlcwDdmbDcsNg4pXWIeVF5GYUKzZ98au0VUKMx0AhDe3hPk4qkrdl8rTo+aIwSeRsD0w8fXG59mDnizHDSHeU/vPCRLKkCtCcSMBtjM+VMGIqVAGAJ6K2iEsuCxbNc+dXZ6EjjISkqgojkoMn9a/zHd0joIrHpx9cxhUJs9e9Auml4OI73BB4p+6ayPp/QrFa+STA4jAyljVij6bpMDRW9CQQHSyFGeQAyQN/6+RaHozRRKSSNHHUUPzZ9+ccxgzakQ7VS/gtEo+oJj0cPvHzjQqxO6zvKjk7gUvQnx/g93GeYErvP8+Us0UobecniF6pffUhXJOkkxESEkgjk8TBgNVKfiXGdp8A6ExCRlSIhAVfhNt04hBN5dS1Ukijm8xEFasOQo0HbTXsOjb2z7afMQqCIaAENRZzUMxKK/frpnv6jL0tZnJ2ylTqTqsUyhIIO/QiFoOfjJIz0n94qX7fnWAUMzzbSoMqp1NPgMwd+gh73x962HtcRZ3nuo64jugkydExGJS8sEwAy5eTF7+vVh22p85etHPh26HkVVXaZhJSoQ/BqxR2WRVeC5ePrCCetHVvLpzwwaKIC4agXqIIxPBQlk43vu/HXhhk+m9Yprb2HeQ5sMgQrVqToJR8ZmAqjkq522yU0vee/N7PWZO8RzavfRn5pH9TCBOEWmGgTjKyKiCgw4ve3ettx7+nzW25Gc2i146KPR6xgdRJ1kUBWJMlAqwKjDH/7tkioQLmhdtutaEZA8v9Nm8CrFeCkIoYgvhIColI5Bmg8e8uPW3Co0+fCJ9cd062CSJ9bbqUlYjBVXLTVY43MRZrq8/GTFMWvc94bPLYfNfW5QR57atf2+eUgvimVQVSdFQIRxOqjQrNaTFSe8+cPPfMGxfNYH4wd2mEh5bcw6pCCzpmCp1xqj4gRC9bWfWd7/4V8t996L/7rVTerTMSJly+3VoGiCE5Vaa2XEjqzOofJBQ74z0/sKvb49bcCIdud460+9R3RBQeLoXEASfbCBX6m1js/ufd/nrADPzxm+rbavSPliTC9SFQ7OBfcJSDqf7XDs3O8t8N5yrmj9cny/xhRDgyTzBm1GQMPpQmuQRF/UUN+yifv+8m8rcvOGL1q7je/VQDRIsvW2EKWKFiY1SDqDN/aA0VEDv/Oc97mZvDZzy2Et7aHOe4zIoAJVyURLJJ3bNjh+yXc/yKsADSl6Quqq8+FrwglF1TmoIlQpnd2GHvb0j5cUHLpgJRV9Pv25nQfSmcI51XKWSXhmea8pv/xLnjOvp+gpxbW2Oh+kKnRQVXESjErHM8uHbfLA3LxC+tqK3ivFXF11rqEFSIh0WP/jP3vw83qK3oKmpgbUuVNFaa5OisnIwx/63WIfKPpH80DRV0SYBSRP7bK5elVmxX2gwVydFqur6PXth9bbs1ul6GQteOH3mw1vgalI0UNERdITdRR9xXLh038ZM84JTD/8frd9ewrF1VXnqbItT3j1ewsDIbDsV8t3UZOPrh27GSlKxKXO435med+//Xp5hTTxTVCfC80EGvxbF5Ikz7rvO+R7M30OFi00M4qIaNpIGlD0qzz4tidIg9GgrEbHknRKRf/Kd5f4ohcJUqW9SdIgZQ7+yR+8GWmEILxPYm210+wGeiuCggQHgF4L6Q1kEGm2LrmHEYAwzaUlGFmURAfQTDMK0x1NRSuJhJsIKUkvziPtAREY/p+kmf4zH5TktxKS+CDMmtPdI8xrykcQ8Pbq347tlfA66fniH4aPaUl1tRrIrTL11QnbaqIvRp8bbdHUhbuun+AugXvm5sFPWtcc3zPFwMy8eTOCrzy986Dm5A4mWXVPb0Kzme+O2yK9KaOZ5TBPMV0wNd91rQTfxIw5vZkY9P3WTcZ0S+4QFDxkcCauePGFoTtlyR1Aq4YhJ02wYnrbpH6pdZQAPXKIfPFE1ym9ktpLCIOxGmYwA2T+k5smVcowyBtphdFM6OfMHr2tJpYTLE2BBXB+6Yyvd10/vZxFznt4eKr/rLX35J5p5SgnPT2RK/nGjO2GN6d3UJnDK82efbMqZRLMEZJ5gqGUSS4HSouQEV4KKTMytRxEcEOahVLmhTmDdsoSPChImRmFlelt4wfW3GxLqpQxMlfKF9OyXfuUC6HJlDI087kWHWT+tM1GdEvoTi2DvLG4evMwqD03d+guClRUBJCUcngv3mjCZdM+2rtf1eFEUqnoS7cJpIwBaPvdKgevgQwikNQq+kDTUznnZ+O2dqoiyVX0nkaDQfJ3B6gLXhIsZYwUQSZOXTWYXEVPmnmBSlBXpFfRFxxFVUU1qCdXDxcQBCXAwgRvcQI0QACp0Z7aQQwJUDvSywEkO4AgE1MbAFZQOCDuAwAA0BkAnQEqwADAAD51OJdIJKOiISa02giQDolN26vXRkEQfd8xb0RJWgQc0eeH0e+It/dP5n2B/MB/F/8Z6tHne+oB/vupx3j79yPQ7sJWMAKlWTlDcYdKQcAUlnJol6nbPTg80zLTjQ+DEAfTLowpTdqFOIwWyg1IP9gtG5j9BZw1w9eOr0/1IaI+XHcdy+LBEkprekcrC7xR105dNtHCGmlX4xVNCTtnorLkBUZ0ST9QvtiXTB7wt/ae/jpSDyDQTukiXrxpWWIPDDDpDJlvhG/R4qVk1YAA/uv54P620WHf4k12g+bdmPElEkFtmCnhHAf3/762A0LBYZ8QV7KiM5aXnNtSqUfQO+L8oemABq14Ms+aGJcULE25CEmmxPsCsVGx9QexyrMdmYbtDfNpTjvAqeIXZUth5LJWyNIjSgwOBN4t+5PljlQAPrSAAcY9H/7wjF9wT+jvfd6pr2m/H4/ON6VYjq4iMMAs8KJwRuUzrrjjmh1s+5PL2lrTBDQyrmI4gwYqmnBBFYL9bKhF/kmWipF9S4e+IgadoyrrcXX8RNulthuZrbT4831C7PULWkzU3XhzatOj85Mw9mL4VzYmv/q46GiXUGc24SkfgNxWa6e/hehR6mH8JtqTV2elv2dmma2pYOL4xIuwzkr4MRp1Pq+hdwOgSzNkvRrHPxqxRLWUs7XjobrasekWmrAd1y4FRDu5x071sIr12+MiznZ++leMD7N2ASYd9tq6Rpz9nnQ7hYo0zmexsu6lSnFR24QGXhZlLUrtasCBPhKnESV8nQtpra0XU3Q+6SbzvlPZed4hogJpgEl5n7ohFmpiDSjqMxItMAMhszQLvbFdxBFe2jEl+YftVzCf2bm3VlZz68eFspt9l03JE19kkhQIShktlZzHyAgGX/p9TP62dXja+Wd5A+sV8TpP1MxmMWjKNDAzf2AxPn10vf4S5LjLl/rdPDT+mm5beOuxXb6q7ePrUPhhSx1HWUuJKEzOeoskJz5dr2e0z2mZawPtgAdiqJtkqvCXiHlEAhg+RuzYWxBsm/bBG5rtvQPVLl8VqzijQqBZq77pjZos15apvbbD4DlvSvTFwzydfBWcpVCET/k9StCrGk1mH62bMo+1if/VpuXJwR16haU8+dv+PuJ0KF4HVAl3mK9FMqUKDZwAkCl6YjYjJM9fKaUX1BFA0hfXxpGmQeLGEGkqUqIagI6LLIWgj0eAbnLW49BIiuwNCj2AA5Qb2zvRFRAm+eUWjmPe/6L1llVo9e2OTvDNsN/bQeJwxZk35aivYAtJsAAKnbd8J6bgHeiSWDoWAmTFbiqp49v9K4OYC5USW2wAAEVYSUa6AAAARXhpZgAASUkqAAgAAAAGABIBAwABAAAAAQAAABoBBQABAAAAVgAAABsBBQABAAAAXgAAACgBAwABAAAAAgAAABMCAwABAAAAAQAAAGmHBAABAAAAZgAAAAAAAABIAAAAAQAAAEgAAAABAAAABgAAkAcABAAAADAyMTABkQcABAAAAAECAwAAoAcABAAAADAxMDABoAMAAQAAAP//AAACoAQAAQAAAMAAAAADoAQAAQAAAMAAAAAAAAAA;" vertex="1" parent="1">
          <mxGeometry x="462" y="225" width="90" height="90" as="geometry" />
        </mxCell>
        <mxCell id="yBYCKp3V-Md0Z7jDwAjW-1" value="" style="shape=image;verticalLabelPosition=bottom;labelBackgroundColor=default;verticalAlign=top;aspect=fixed;imageAspect=0;image=data:image/png,iVBORw0KGgoAAAANSUhEUgAAAgAAAAIACAYAAAD0eNT6AAEAAElEQVR4nOydd4BlRZX/P6fq3hc6d09mZsgqWTGjojCAooISBRUREbOu2VV/uuuuu0bAsIJiBMEMSM6IBMlJCRIGmJxDx+l+791b5/dH1X3dKAZwZrpnuj6G6enpUPeFe06d+p7vEVUlEolEIpHI5MKM9wIikUgkEolsfmICEIlEIpHIJCQmAJFIJBKJTEJiAhCJRCKRyCQkJgCRSCQSiUxCYgIQiUQikcgkJCYAkUgkEolMQmICEIlEIpHIJCQmAJFIJBKJTEJiAhCJRCKRyCQkJgCRSCQSiUxCYgIQiUQikcgkJCYAkUgkEolMQmICEIlEIpHIJCQmAJFIJBKJTEJiAhCJRCKRyCQkJgCRSCQSiUxCYgIQiUQikcgkJCYAkUgkEolMQmICEIlEIpHIJCQmAJFIJBKJTEJiAhCJRCKRyCQkJgCRSCQSiUxCYgIQiUQikcgkJCYAkUgkEolMQmICEIlEIpHIJCQmAJFIJBKJTEJiAhCJRCKRyCQkJgCRSCQSiUxCYgIQiUQikcgkJCYAkUgkEolMQmICEIlEIpHIJCQmAJFIJBKJTEJiAhCJRCKRyCQkJgCRSCQSiUxCYgIQiUQikcgkJCYAkUgkEolMQmICEIlEIpHIJCQmAJFIJBKJTEJiAhCJRCKRyCQkJgCRSCQSiUxCYgIQiUQikcgkJCYAkUgkEolMQmICEIlEIpHIJCQmAJFIJBKJTEJiAhCJRCKRyCQkJgCRSCQSiUxCYgIQiUQikcgkJCYAkUgkEolMQmICEIlEIpHIJCQmAJFIJBKJTEJiAhCJRCKRyCQkJgCRSCQSiUxCYgIQiUQikcgkJCYAkUgkEolMQmICEIlEIpHIJCQmAJFIJBKJTEJiAhCJRCKRyCQkJgCRSCQSiUxCYgIQiUQikcgkJCYAkUgkEolMQmICEIlEIpHIJCQmAJFIJBKJTEJiAhCJRCKRyCQkJgCRSCQSiUxCYgIQiUQikcgkJCYAkUgkEolMQmICEIlEIpHIJCQmAJFIJBKJTEJiAhCJRCKRyCQkJgCRSCQSiUxCYgIQiUQikcgkJCYAkUgkEolMQmICEIlEIpHIJCQmAJFIJBKJTEJiAhCJRCKRyCQkJgCRSCQSiUxCYgIQiUQikcgkJBnvBUQikWdOX+96BcWpICIYlI6ubhnvdUUikYlPTAAikS2E++7/k/7857/k97//PX/+8wOIGhBQQJ3DGIMRA0a0rbWFmTNnMn3mTKbPmM42M2aQJCmt1Raetcsu7LbLc5g+fSadXZ0xWYhEJimiquO9hkgk8g846aR36Vk/PZOskQFCpaWFxBhEBNShCk7AigCCAvX6CI1Gjrr8ST9LjKVcqVBKU7q7uthtl13Z87m7U622st122/Pyl72UGTNn0dkZk4NIZGsmJgCRyATn9a99nV52xeW0VFrp6GynkecIgBU08x/7d7FBFJw6xICIwRjxn0sc4ixKzshIhuY5qtDIatRr9Sf9vtZKFVtK2WGHnXjFvvsybVoPe+y2B/u96pVMmTYtJgWRyFZCTAAikQnMd797ur7//R+gs7sHEUdqyuSugTGAWFQVEQOqCGCNwSnkziFGMRhyzdEcEMVaUAy5g7JYMucQUWzZ4lTQWoORep3c5dQadfJG1lxLe2cns6bP4KBXH8R2223P6157MLvvsUdMCCKRLZSYAEQiE5jdd99V589/go7WNpwRXJ4jAsYaBMH/16CAFRBrAVCn/iBAwCEYQFUxYnCqqDpQh1iLImie4e8F/mcCGPU/z4hQz3JqtRr1Ro36SA2AlmoL3T09HHro69hrjz15w2FvZPbsuTEhiES2EGICEIlMUP70xz/p3nvvTbWlSrlS9bt8Y7A2dO8q/nOiKOITAuPjrzoQo6AKOhrUpfh/AVWHAqKACKqKA0QV0fCzRMGFX4ViUGya4nLHhqFhGnmNkWGfELS1d7L7brvw2oMP5uDXHMxL9nlpTAYikQlMTAAikQnKqaeeoh//+CeYOm06eZ6RWIsawYiX/osI6nLfDWD8Lt+BD9rhba2oD/CIzwPC9+I/BfivFcRXAjSD0F3g0FA5ABFQUcSJzymC8BDjSNMSjTyjMdxgw/AwWVannJbYfqcdOPyNh/O6172WfV/5ypgMRCITjGgEFIlMUNatXQdAYi3GWEAwTv3uPuz+UR/YFcWNRv2iHuBjvBSJQJEY+MqAqPNfJ4KKgjgQA8ZXFWz4NyM+dhsFMeKFhRbSxGClhGtkiFPSapXunnZmTJ9BW7WdBU88wVe++hXmzTuQXZ6zi372M5/Ru+++K+44IpEJQkwAIpEJyoahQQAU53fuoog1+HDuz/eNNYj4HboRkObu34WyfUgDZDT2C6ESgAERRLRZDACaqYMYf3pQZBEaEgERsOJ1B4gDY7DGYnGIGlSVtJLQ1dXFNrO2obO7k0WLl/Dlr3yFl77s5cybt7+e8b3v6bq162IyEImMIzEBiEQmKI1GA/DBWkQBE8rxPuIXu3soqv5F4PaB3RPO+RGKmK/hG9SXEXDBN0DMmJ+p2vw+xX+thJ/pIBwOMNqCKOLlB+J/joovUNQbNYw1dHS0MWvmNrS1VLjuut/z3ve9j113fRYf+OAH9PbbbomJQCQyDsQEIBKZoGjYko8G8KaEz79x1av9kSLyjgZ9/4WCYIu0wP/HEASA2vxZIez7lsLwOf8LpPlzQELLYbEyF6oHXnvgE4FijS78LPVHF2GdWd6gXEqZOWMG02bOYGioxumnnc6rXrU/8/afpz/58Y9jIhCJbEZiAhCJTFhCwFdv5mNUQ5lfGN2fe98/FfWCQGNIkhI2STAJGCs+CBt8Cd+BUZ8MGK/084Fawt8RVAVxobnQeRGhKVQFzq/HhDMFRcAUrYXaPHbwOYOE6sXo/9Qk5JojmdLR0c42M2fT0drOH268nhPf+U6e/exn6cknf13XrFoVk4FIZBMTE4BIZIJS7PiNsTjx5/7O+T9l9NAfVDBiMGLJM8fAwAADgxuojdRw9YzcZRiFxBoqpQrlSkqpWiFJy4gFwYEa8izzyn9xwUFQmr/Cn/UTjg1GdQVAaEXEB/ymaMDXBYqUwOcJ4VyA0GWgSi45klqmTvfzCpYsWc4nP/kpdt9zdz75yU/oY/MfiYlAJLKJiAlAJDJB0VDJV2/j53fwoV9fdfTwX0woxVshyxrsttvu7LDttrS3t1PPMlym1Bp1Bvv7WbpsMQsWLmbRgoX0rl9LI1MyJ4g4qi1VKtUqpbSCsRas4sJxgWqoDCBBP+CPAAiJCX6F3oL4L65DKBIHQEOSUPzcXIMlsdJQ6OruYNasmdRqdU4++RT2ft7efPjDH9LHH3ssJgKRyEYm+gBEIhOUD33g/fqd07/LzFmzyLIMK4KIGa0ABBcfMYIRi3MZwyMNFjz+OJ1dnTIw1Kd5w6G5smr9apYsWsgjD89nxYqV1GvD3H/f/fzpgQcZGOgHUfr7+skzR0d7B60tbWAN5ZJBsOQuI8ty1IXzf7wfAITdv4IT9Z6DhXFAsCfymoAxyYPqqJjRhfTBFzIwweRIcyVNEgY2bKB//XraWto48aQT+OQnPsWcudFtMBLZGMQEIBKZoHzg/e/V0797hk8AGg3vABjO8cWMxkBbHBVYy4aREeY/+ghdXd3/dJDs7V2rj8x/jFtvvZV1q9byyCMPccNNN7FhaISBoX7yRk5XVzelSkI5LWFtQqNRJ88dLrQcmmA05BzN1kID4d9HuxA0iAkV50cX402FXCFADNbEuAyD4BAShJFag3W9a+np6eGDH/ggH/noR+ju/uevMRKJ/DUxAYhEJigf/MD79bTTv8usbYoKgPVNfWEAkBFBjXpBnjHgHCMjdR6e/whTu3v+5eD4+GPz9aprrmXx4oXcdOPN3P/An6gNDjNUG6Gzo4O2SgtpNSXPIcv8gKJG7tsQBYeokEuO0VAiEO9Z4JyGJMZXAkIpwTsVmuLow9cO1HlTIhGLTQwjwyOsXbeO7bbbjs9+9jO8+93viUlAJPIMScZ7AZFI5KkpUnN1Ydcso8p/COfq6tX9Rot2QW/SszHYcaed5b077dz8+9r16/SmG27gzjvv5NprruGRhx5lxZrViIXOnm5aTRmbGPJGRi4WF5IAANUwsTB4DRQdCV7DGBIEdajzI41FhDwMLyqcDLMsJ03LzJk9m77eft7znvfykzN/ol/+3y+z3/77x0QgEnmaxApAJDJB+eAHPqCnnX46M2fNxGU52KS5s27O9xEQMf48Pc8Zrtd5/PH5dHVu+vL4okWL9MKLLuKP99zDpZdexrq+deT1jKnTplAutyDGUB8Z8SbF6i2FMF474IWAfp5ASAmCwVBobsD4zzj1bYahHdHnA0H0mFhWr1hFpjnHHfdWvvKlLzFrm9kxEYhE/kliF0AkMkEpfH2KICn4gOm0UN6PMfDR0GpXTPLbDGy77bbyoQ9+UH74ox/Jnx/6Mz875xe8733vJUlSVi5fyooVy1CUUrlKklpEFKfhCCMICcMVNq83mBCOSQcEl7twTOAwifHtiC73ycaUHqb0TOWnZ/2UF73kRZz907PijiYS+SeJCUAkMlHRwnvfi+F8tS7spFVxmodgquE/gqoh30wJwFi6urrkqCOPkP/7zmny5wcf5Myzz+aYY44ly+osWrKI/v5+HII1YKzzXoVu1Ep4NJ0J7YEufCYYHxnx2gKXOZzz9sUOJVdFxLHNjJkM9A1y/NtP4PWHHqoPPxL9AyKRf0RMACKRCYo0/5Tmn8KTdQA0jXh9n74TEHGbe6lPor2jU4495lg568wz5U9/vIdvnHIqez9vLwb6B1m+ai0uUyqVKthiQFER/s2Y6YNh6iHF/AFpCgYlGAv5KYbeKKmhjnJLC9NnzOKKyy9nn5fuw1lnnx2TgEjk7xATgEhkgqJm1PsflKZcR/wY4NGEwJ+b22AOaBjfBGAss7bZVj7y4Q/L9dffJNdecw0nvv3t1Op1Fi9cQL3eICmXSZIUM8ZPwDcLjk499EcD/ppUpFktGD0yUKwJQkjXYJsZszBYTjj+eA477A26bNmSmAhEIk9BTAAikQmKdwD0av8iEPr/s+F0QEajIKPJgm6kLoCNzUv3ean86Ic/lLvuvJvPfOYztLW2sXTRIoaHR0jKZW8VHCYRKUHLUCQ6hSUxY+sfISkonAqDz8BIbYS0Ypk5cyYXXngJL3vZK7j8sstjEhCJ/AUT804RiURQ59+eTgs/fcEag9hipw/qwpm4U/JwJs4ED3U77rST/M+XviT33fdHTv761+jp7mbxokX0DQ1RSSsk4sceUypsjsEYE1oIi4mDErQDvjVA1fkWSGOw1qBZjnPKnDmz6Vvfy+te/zo+/JGPTPBHJhLZvMQEIBKZoBgTnPLcaBeAy7U57dcFW10pPAJCEJzwGUCgo6NTPv6JT8qjjz0qp333dObMnMnCxQsYatSoVEsYFZzmvh8g5ECKjo4lVhMqBDSTAsG3CmIMFqjV61TaqsyYMZ1vf+tb7D/vlbpwwRNbxgMUiWxiYgIQiUxQTBDzmeJd6gSnDlXfQieMqYsXO38zOkVwS+L9732f/PnPD8mpp36D1kqFxYuXYBAqpZJPhMLUQ9XRqYiFsVAz4RHvM+BLA4IaEGvInX9Mtt1uLjfccDOveNnLufbqq2MSEJn0xAQgEpmg5GNClBCOAoqxu2O+rnDaxfpqgW7Bb+uPfvQj8sc//ZFPfOyTDG4YZMXy5RjwjoDqnqQJGB1MLN4HAZ8HOZFmXmSARAw4oT5SZ/asWQwND/Oa176W7/zfN2MSEJnUbLl3ikhkK6e5kQ/WuGJNCHhNiwCfCCjef19DB4BOnC6AZ8KUniny9ZO/Jjf/4VYOO/IoVq5cSf/6PkrVEkky2g6ZhDZCbxnkMwLvFxR8EVRwufdL8DbKSq1ep7W1jenTp/Ohf/sobzvuLTEJiExaYgIQiUxQinZ+EfFT9YqzbwAXeuMBgx8M5ER86+CWdwLwlOy22+7yq1/+Ui677FJ23XMXFi1cjOZCuZr6x8MZnLqggRjjKSDFfKEnx/Ywb5B6o4HLHXPnzOWcn/2CA+fN0/Vr18VEIDLpiAlAJDJB0ea7syj9W4rWPw3H/34H7C2CE2sRMaMzeLcSDnr1a+T22+6QU0/+OsPDQyxatIw0sWAVgxmdhVAwdlBCcEgsMoQiMRCBeq3OtrO35bobb2K//ffjoQcf2LoeuEjkHxATgEhkglKc9BfBHnXB7rfo+Q97Wg3JQO5wYVTw1shHP/4JueW223jdwQezbPlKsiyjlFpUcy+MVG12BJhgJQS+VVJD06AxoaVQDFhlQz7MrFmzePjR+ey3335cc801MQmITBq2zjtFJLIVUBgBiRoI5/uiGv4Edb70LdYb56hTxLnQB7d1suuuu8oll14i5/z0LFBYvGQpahN/zamGqklxJOD/YwDE/5tSdBLkGAQrlqxeY+qULjKX8/rXv46LLvxtTAIik4Kt904RiWzhiNjwkYaKdjC/KWbm+n/yn9dgkWsMTCAr4E3FW447Tm65+RZe//pDWLV8GUYFqwma+3KIOofD+bkC4ThAMKjL/TRFNbgx3QONzFGtttDZ3c1hhx/JT378o5gERLZ6YgIQiUxQtNna5v904tVtivOfE+OPCdQhUgQ+s6U3AfzT7LjzznLJJRfL6aedxvredfSu76darQCCEYOI9f0CTn0XRTFdEJqyiuKxFaDRyCjZhOkzpnHiO0/iK1/+ckwCIls1MQGIRCYo0lSxiw/2rrAB8INyRH0DXLMqgCIJwRxn8vC+979frrvud+y04w4sXrKYUlr2gj/nH5uidUIKK2URnzCF7oHRAUSCyxxpkjBr1iw+89nP8m8f/reYBES2WmICEIlMVKw/AhAjwQ9YURFvCBSUgTbsbMUYxNoxgrfJxT77vEz+cPNNHHXEESxevABshi2FHb81oSJQPDIavANAVFDjJy3m6shFaWT+z1nbzOL/vv1/vO344yffAxqZFMQEIBKZoIgLtXz1gcupjAZ3VZwqTkzoevMVAc0JlYHJR0dHp/z6N+fKl7/yVVatWkd9uEZiEm8gqA7nnJ8wKGMHKQsmtA2a8D8UTO4ThO22m8s5Z5/Nm958bEwCIlsdMQGIRCYoTSNA9TtUPwFQMUZDCdu7/knocRcNk/K24i6Af4ZP//un5IILLiTPHOt611MulyB4AWhTUKljPJSL+Qkm+AiFyoEqw/U6c+bM5dxf/oqjjj4qJgGRrYrJfaeIRCYwuRv1t5cgAHQIznlHOyOF0Y2OzgkIpkCTnUMPOURuuP56nrXzzixbupQ0sTiXoyh55qsBSD5mtoIJ1RUXJiv6qYPGGbJajR22247zzj2PN8dKQGQrIiYAkcgEpbWjHQBrBdUcVxgCQtACFKNwfEzKnQstgTFGAez53OfKddddx/77zWPxkiXYcoIxNrRKmuZQBV9h8RMWffXET1zU0HGBgZFanblz5/LLX/6Kt8QkILKVkIz3AiKRyU5vf6/WhzewYOFCFi1YxMJFSxkaHuQPN/6BcrlMvZFhMGEAkB9yI6o+fRff0+7b3U0QvE9ODcBT0dPTI1dfcxVvfsub9Ze/+CWzZs9BFFyeY5zxRwHQLPlD0Q9QWCz4aQsOyBsNtt1+e37xy18xc/Y2eurJp06udovIVkdMACKRzcDgQJ/WR+rcfOst3PvHPzIwNMwD9/+Je+6+m4HBQdQptZE6jbzB2Bp+V2eXD1Y2aYYlKUKU73Gj8Lop/AGMiW/rv+QXP/+FzJo5S7/xjW8wffoMErEgzrdQGsGo7wwwhcYyDFoYfSa8lXC9NsI2s+fwjVO+wQ7b76Af+uCHYhIQ2WKRWC6MRDY+K1cs00svuYwFixbzwAP3cdNNf2BkZIT+/v6/+EohSQwJBpNUSEoJSWowFshykBQM4bx/9HuahjZiMAIWQ45jpFbn8ccepaurOwamp+CMM87Q977vvcyYOhNjLZlrQJgdEGQWQQsgCA5CdUUlzFww4FyDxJZZvmolv/7FLznyqKPiYx3ZIokJQCSyEXj0kUf04osv4oknFnDZlVeycuUKhgYGm/9eKpWwNqFUKWGNxajXoxfiPVFwqhjrTX5w/mNjEwzS9LUvVADNJrYgYjPBNniktoFHH51PT3dPDEp/g1/84uf61rcex/TpM0AElztsAuIELbwC1D/GWmQFBNdAI+AcRgyIsG7NWi646EJe+9rXxsc7ssURE4BI5BmwevVaveaqK7jjzru44IILWLFiBcMjwwDYJCGxlnK1Sjkt4dT5mC5gQrHeQDO4+L2mC73oxivQHaPJADBmy+//I/5rxPqDAWMsTpVGvcGjjz5CV1dXDEh/h3N//Rs99i1vprOzi1I5JW/kkCjiAGP8kyW+8qKqOOc1F9ZYRJU8d6TllKyWMbhhiBtvuo69n/fC+JhHtihiAhCJ/JMsX7FEz/3N+fz+99dzzdXX0D/gy/nGQjmtklbKWJtgBZy6EKp9uBdRjPFNN+pc05teJSQArtjNe5GfMX6nr/iJgEaNP4UObQDNbgBjME6Lb6ZWr/PY/Ifp6ooVgH/Eb8//rR79pqPonjqVVCy5yxAszUEBo1JAwJsJiZHwfHmhZWu5hXWDa5g2dRa33XwrPVPj4x7ZcogJQCTyd1izepWed955XHLZ5Vx/3XUMDPqyfmqrVKsppUqJXJ13k3O+RCzW4I1nlKAla4r2pPgn53v7VR0aZtcXX+uH/XlTnzx3QeQXkgk/2xbUJxTFDIBEvFK9Vq8zf/6jsQLwT/Kbc8/VY489lmlTppMkSi3LEbyuIleHiMGKP4RxLkeM9eLAULnBCEnZsGrZGvZ95cu55ppr4+Me2WKICUAk8hRc8Nvz9dzfXsBFF1zAwMAAANVKlZbWVsRAnjkUR5ra4MQXzulDO56q3+Uba3GaIwpG7KiVbzDxKZTmYVxNU4jm3ei8ta8a7wDo+/4L1zoNm34TjgS8kKBWqzP/0VgBeDr85Cc/0RNPPJEZM6YBhhwwYbfvnD+WMUbCnAXhL6cxqyrVapWFCxZw3Fvfwtnn/Cw+9pEtgtgvFIkE5j8+X392zs845+xzmD9/PgClUkp3VzfGJqNCPPXjZo0IgiW4yEKxyw/OcsWYPgkFey0q9c2SsgaHP8IPCGY/IqiIH1QjhUGNhJkA0hxnW3yg0vywUBNEngbveMc7ZPny5fr//t//Y/Y2sxHNcJkZHcdcTFxsfoc25wn4MxnHyMgI22+3Lef87Oc893nP00984pMxCYhMeGIFIDLp+cMfbtIf/egn/PpXv2RowwYA2ttbSdMKptkaFkR5CsYKwR/G2/GjWJEQeEcV+jBmAp3z5/Wjg3o0zKNvDvbzAR8w4i1/mwlEoQdw4GcCP7kTgHBcYEVo1Orc98gjTOuObYBPl/e/97363TPOYM6cudTrNXxyZbxw0whGoZi16IcvgYhFJcc5IUksZDmr1q7hwgvO53WvPzQ+B5EJTUwAIpOWiy6+SL//vR9wxZWXkeeOcjmlpdIG1pAYX3K3xZmv8TtznxBos0zvN/Bjg75Hw7m9CbvFIonw7nLQHEtTfJs6BIMLuoBm37+qLz9DOC5oOtVgwnhgfB0CsYYNwyM8+uhDdHdPicHnGXDooYfopZdextxt59IYrpOFwcHG+DZL5xzGmKKGE4ScoGGwUJqUqA0Pkec5t919NzvvsEN8HiITlpgARCYd5513vn7n29/k9zfcCEBrWwvVcoVMHUYN1tpgFT+2bB+CthFwEj7nywASkgJRBTs6XkOaxwF+bC/F7l+C85xK8/eIc2ShqmDUkFpD5jKcMYgYEqXZo+7P+wshoCUJOoDh+ggjtWHWrlm3RQed/v5eRQUx0N7eudmv5WX77KN33XMP06dNpZ5l3h1QHWq8grNI3tRpU3uB+CQsd0q1WmH1ilXs/aIXcOMNN2zRz0Vk6yYmAJFJw0UXXaRf//rXuemmmwBobeugUimhLg+lfeP78PFn8MVuXzD+iD4o9puVAPxRgMM1jWPCP4TS/ZgqQbNaH4x8jeAUUizYor0sQQWyekae11DNUZOQj0AjG8HlDpfnNDQjz3M/qMYBWIyBPM/42Mc/ziknn7zFBJ3evvV6xeVXct/9D3D33fdw/31/YnCgH6dQqpTYbvYcXvCCF7L99ttx+BGHscuuu2/ya1uyZKm+5EUvoa+/j67uDuqNHCsGFdfUWjQNgpreDB4JyVi5VOKJhU/w75/6d77y1a9sMc9HZHIRE4DIVs+N19+gX/7KV7j8issB6OhqxyYWXDjfFQkB2FPssIPJXrPAX9z0TejfNwhONIjvxPf+S/Dmd6PKPJ9YeLe+JEnJNSfLMur1BqAM9A2wIZgIJWmJlmoFm1jEQEu5hfaOTqZP6aFn+jRaqlXKpRKtba0kSRkAmxjKaYm5227He97z7i0i2Pzpj/fp6d87jfPPPY/Va9Y0P5+YhKSU4hCsKo1Gncx5L4TWlhZe9IIXcNK7381bjztuk17nTTfeoPPmHURXdydpKSXPMxQ/HliMjDnWCZUf8XUBgyDWHxcYI6xYtoKLL7mYgw8+eIt4XiKTi5gARLZaHn/8cf3CF77A2WefDUC12kJLpeyDuzWIgvptOrYw5tHc7/6LU/1i9y5+UIyYQvmtiBicgA1qPle09ClYa0mTFESp5xmNeoPBwQE2DG2gWi7T1tFOo5EzZ+Ysnv+iF7DtDttjgOkzprPnHrux04470dbeRWfn5i+Bb0p6e9frZz/9aX7wo5+QZQ1KaYlSqUJLa4oLBkkAojZoLbzewlhLVh+hd3AAdcrL99mHr3z1q7xi33032eNz0UUX6RFHHMH06TNwmnsLYGt9sHdN8Ub4MyR+4is7Rg02tfQP9tPR3sGihQu3qucxsnUQE4DIVsnXT/66fumL/0tvfx/Vliqt1ZbRme/hLNfCqGmP6Gh5tyjpGl+uxzkkOPaJhLG8RQufWMgzrDWk1TJ5nlHbUGO4ltHXuxZrDe0d7bS2tLHffq9ip52exY7bb8vLXvEKpk+fRmfn5FHr33bbrfr2E97Bww89RKWlhdZKJRytGKwRb5VcZF1oCKaKc65ppmQSizGG9evX47KM0077Du9+93s22WN46qmn6sc//nFmz9mGWj3z1sDFTr+wCQ7WzoLgQgJj1DsHllrbWLZkIW8+5q2cffZZk+a5jmwZxAQgslVx5ZVX6uc//znuuONOKpUy1dZWCE57xpjR3nn1n23uOCWc74eefT8BLhjsONd0fjOJae7+0iTBJiUajRr1PGNgfS+1Wp2uzk6233Fb9j/wIJ6z404cdNCBbL/jzpP65n/FlVfokYcdzoaREbp7pgA5VhLE+K4HwYTOCUXCYCPE+eqLBg8E8RUYdUqpXMI1GqxYuYpPfvKTfO1rX9tkj+87T3i7/visn7LNjJlkwR2wEIa6PPdS0KIzYEyFSNWBJFSrKYsWLubX5/6KIw+PkwMjE4eYAES2CpYvX6b//u+f5eyzzwKgu7sHg0Gtn6yX2AQRA5qP2riFMr/PCcLnzOgfihf75fghMUYMxhqSJMHljuGRYVavWUO1tczUnqm84dBD2XXX3TnssDcye86ceKMP3HLzzbr//gfQyOt0dXagYhAMiYTzk/DYGwN5cQxQGCKF/kkJRktjRiOhgDWG5cuX8x+f/0/+67+/sMke83nz5umNN93EzGnTaeR508RpVODpgli0aO10vjVQoJKU2FAfoZyW+NN9f6Q7TmqMTBBiAhDZ4jnvN7/Sj3z0YyxZuoz2lhZspYI6JRWLimLtqF1uc6Sujsb84uxWdYzNLt6Pv7DtSROfQGwY2sC63rW0tLQye5vZHH7EEew/bz8OOvCgeFN/Cvr7+nXvF+zN4489TntnO1YMxlg/5ljBJHZ0d6+gOEZvSWFYknpBnQ+6oUsDB6pYEpyFFcuW8ZvzzuWoI47cJM/D8mXLde+992Kk0aCl2ooLwkRtHlnkvkIkFhf8nY2AwyCqtLaWWbBwCe84/nh+8OMfxddKZEIQE4DIFsv6dev1fe97L7/69a8xNqG9tQ3E7/YBTCJh10/Te9+X9BUxhsJYt3kMUFi+Or+zNIkhsSVq9Qbr1qzAOWX23G058vA38sbDDt+kArSthePf/nY9+6c/paerCydKkiQkkvidvSgarJT9pl/DTAUXOi8keCcEMwYXjgAKk6VwnCNiybKMRiPjrrvvYoftt98kz8sVV16phx5yCNOmTSUTQeu5b/UMHSPe1qFoDyyshINHgBWsSVi+bDmXXnE5rz7wwPjaiYw7MQGIbJH87nfX6Pvf9yEefuQhWlqrlNKKD+ZB05fYBEcxVc+Ekn7hoqdBzBekZeHuXXj626SEqDAw1EfvmnV0dXXx2te+nsMPP5Sjjj4m3rj/SW74/fW6/7z9aalWsWmJUikJ5XwzGujD86PqjwBUtdl9IaELALzdgSk0GiYo7kNekKtSKZdZtmwpb3nLcZx55pmb7Dn6r//8T/3Cf/83s2fPoT5SAxu0JTparWj6PEpIYMI0wVIpZaBvkJmzZ/HgAw/G11Fk3IkJQGSL4wv/9Xn9ry/8DwBd3V1kzlEulbFFKVnw1q3FlBwpRFnhBm0sIoUzD4gaX04uWRJj6OsboHd9L9vtsC1HHXUUJ73jJJ69y3PiDftpctBBB+k111xDz5SeYLRkMQT7Yg2dFiEJ83G92DX75MDgA7/3WNAgz4SmAkAEYzR0bliMEXp713PnHbex6257brLn66ADDtQbb76JKVOm+NZPlze1JFJ0kYRhES6MhDbGkOc51UqZhQsX8R+f/wL/9d//GV9TkXElJgCRLYYnFjymJ73rPfzummupVquUSiVskvoWLAFjAfXWuYpiLbjcm/UIfliOC4f6xhbKciVNSyCG/r5eNgwOsudez+U973k373rXlmGqMxF56M8P6l57PRebJFTKLVgrJEnSLN/7+45riv1oCuqKh9wb7GhTVIcvrRswRWClWW1HVWmpVFm0eCn/9uEPcuqp39hkz90Tjz+hez1vT6rlKuVKhUbWaJpBqRQG0TTtmjVUmYwpxI2OtesHuPO229h9j03vbBiJ/C3MP/6SSGT8ufqqK/XlL3sFv7vmWjq6OihXKqQ2wRjCeb4A1p/5B1Mf53SMgY/feXrHP4UckiShlFYY7B9g+fKl7Lnn7vzkrLO48847JQb/f43fnv9bsjynrb3dJ2bWK+Sb7nmMEV8GDYY2KzbhXL0YiTz2B6t4kR3FkY6iuf9h9UaDqT1TOO/c8zfpte2w4w7yg+//kDVr1jQFf94GevRIqTmiGUAdzjnInRc02hJkDf7905/apOuMRP4RMQGITHhOPeXr+pqDD2bFylV0dXdhTUJiDJKIn5ongrXhlF+K//mAomg4czYUk31MYkmrJWojwyxbtpRnP/s5/Pzsc7jh+pvkLW9+Swz8G4H7HniweZ5vRPxu3gVBXziqUT8rkSdVIRUkWCoWpjpjz9QFUFeEfh9lVQCnZHmOKRnW96/njrtu36SlzWOPPVbe9KZjWLl8OWmpRO4U3xjgwvCg0RZTDevOVXGqZI2MGTNnccXll3PRRRfGEmxk3IgJQGRCc8Lxb9ePf+JTJOUW2ju6fC++GMRajEl8u15Q8hsTDFoczUEt1ljEmGAwA5VKBVVl0cIFTJ8xgx//+CfccustctTRb4qBfyNy/R9u8FMVnQNjMBhErNdmjNnhF1P0fKk8JAiMCjZF/Ehl8d/UrBKYYNfc3GcH8X1SqrBhYIjrrv3dJr/G0797OjNnzWFgcABrLU+aGVEkOgSZQ7iWXP3wKEdOZ2c3n/7Upzf5OiORv0VMACITkvVr1+trDjpIzzr7p7R3dNJatSRGEJtijfU7xCworEM7mAahH6JB+e/Pil3mSGyCtSWWLFpIvVbnK1/6Kn+673457ri3xsC/kenr79OB3j6qlbIP+OFsvBBigq8IiLqmH4MYad6M1IwK6lwxiEH984soxs9QHu0EAMAP6UnwZkKDG4Y2+XX29PTIKad8jb71vb7aUQyIct58qrlmQsIi/jxKVMgaOe3tbfz54Yf42qknxypAZFyICUBkwvHIw4/o/gfM46prrqG9o4tSmlCyZRJrsAYw6svKJvTtFSVkN0YHgG8rSxAq1TKDI8OsWr2KN7/1zdxxx6186tOfioF/E9EYaYRdbyGAKx5qB+T+OABFi9ZLwCcJhcZfCLOUEVxIHsQfDYTiP2FIkEpw3wsVnlxzJLVk2eaJqce86Rg58sgjWblqNaVSOpqAGimUgIgBhy//W+cFkLlz1Bt1pk6bxje/djKr16yMSUBksxMTgMiE4rZbb9X95+3HH/94L52dXaQl69vDoLnTL8rBhB0hQQXuzwMK1z+DTVIkhaVLFvGs7Xfgwgsv5Kwzfyrb77BTDP6bkJH6EDkOLKC5380XyRoSJjCOKuZRHyCbpnpeGBAMG71xk6J47z3TbCPUMc+iCcJPEYMxUAvjlTcHp5xyMp2tLYwMDobZBb4aUBxSFPlpkRxAIVJ1tLV2sHLVKr78xS9ttvVGIgUxAYhMGK699jqdN28eK5atoKtnCklig8hPEWNB/DkrFApygNFJcSIWa7ziv6VSpn9ggNUre/noJz7KbXfcIa95dbTr3RyUyy1YLKI2KOTxUTBEQimsclVGbQCCR4NP7sI3uWKgjjarCIW7XqEUEKNB3xEOAowhryuVSnWzXe92220vX/ryV1izvpdSmvhrZ9TE0OepxfRA/GTJkBANjwwwdfp0vv/jHzH/sfmxChDZrMQEIDIhuOLyK/R1r3steZ7T3dNJIorBBoe+YjRPsdNjjCrcevMVEYwoqbUkSZmFCxewx267cs3vruarXz45Bv7NSMmmKBpaNIOlb6DwAPCbeBfcGMO/hADZ9AIQ/GTAopsDRgNrSCLQotvDJwdiwxeYzRtL3//BD8jeez+ftWvXYqzBZeGYA0a1KepCVQM/AdGAyYVyqcTwcI3//eL/btY1RyIxAYiMO1dcfpke+oZDQZSW1tYg7LOIxbf7hdJxczspghEDYbBMklgsUKqUGR6ps2zpEj76yY9w401/kJe/7GUx+G9mOnu6ZJtttqFWqzdbAAVp7tuR0CIXOjr8pyRs/BURbbYQavGcj0kKaPbYC3k4BvLtnoKqoZSW2H7bOZv7svnaV7/CyMgImWuAFVzxsm2ucdS7QIpjjsRSr9eZOWM6v/71L3jowQdiFSCy2YgJQGRcuejCi/WQQw5FMbS0tAGCMdY7wBFaqqSoo0qwkA23fw2nyiJUW1pYvnw57S1VLrn4Yr72lVNi4B9H9nvVPGojdWxig5I/BGgIu/aiI8CM7vyBpiowOAaOnQdA85kvLJ81nLITXh4GzTLaqlX22+/Vm/NyATjwoIPkiCOOYM3qdaQ2QRo5Xpzok9WmHqC4VgU/+AjKaQmH8L9f+cpmX3dk8hITgMi4celll+rhRx4ONqGlpRWc+nN/E3q/xXuqF6V/VefP/scKxlJBEsuCRQs58IADueHGG3nNwQfH4D/OvODFe6MIeeaPArQ4/y7q9pgQ9Itpf2GTL6O9882tcNHyJzRFdoROu9HMwVeLBoeGmLPttjxr5/ERen7xf7+ISYR6o4aI9aZFwX5axzoX6GhRQxGGRkaYNmUq5537Wx788/2xChDZLMQEIDIuXHPNFXrkGw8jtQltbe0k1pKmxW5Qg7GPv1022/qkqP/6G6m1hkZthKVLl/Cfn/88F198sWwze3YM/hOANx15JNOmTmW4Ntw8vVfnms+tCIiV0aDebO0rQqTf/buxg4P8V3ljJyleD4XfHiTWsm7NGo489qjNf8GBXXfZTU44/gRWr16LTUdbVDVXikEUDoMaf+ShTjFisMZ3RjSyEU7++tfGbf2RyUUcBhTZ7Nx2+226//7708gy2lrasaG/X4wJu8TQ4y9jir5aVId9JaDaUmH9+rVYUs786VkccsghMfBPMD7+sU/oqd84hdmz59Bo1Jpjf8Wa0efT+Xl/PhBKs6VztBsw7PAlqAiEUFIvlPU+AUiMJUcZ2bCBO++6kx122HHcXg9LFi/RPfbcncQkJKUSBA+A5nFFGGikoTOieDwQPx55YHCYe+68g52f9az4mo5sUmIFILJZeezx+Xr44YczMlKnra0dEefV4rbo9ffGKaO4ZulYRMFCS1sbK5avZOaMWVx3/fUx+E9QPvaxf2PKlCkMDQ2SJBZVX/DHOSSo4v3MhiCSM2Mb/DzeQ8B/RsM5wZh2ehTvFtjSUmHlyhUc97bjxjX4A8yZO0c+8J73s3b9OmxqyNX5pMUEsyP1DpWK4oTgHOhQB+WkhZGRYU75xinjeQmRSUKsAEQ2Ky98wd5619330tnVicGQlBJsuDkWuyQxIQNwwUbV+lnqRoS2jlYef2IR+7z0Rfzm1+cxY8aMGPwnMD/84Q/1Xe96F3NmzqHhGmEHD4TeDhXIc+fN/LB/cfgPxeAgL/IT3zaowQ7YendAm5YYqddoLZe455576O6ZMu6viVWrV+kee+xB1miQpunoa7o5v5ji5AJFsRKymTAyuF6v8cc/3svs2XPH/VoiWy+xAhDZbBz82tfoXXffS1dnF1bFm6aEsrC6UCItDoWLbZ6Ib582lpaWFuY/8hgHHbA/N1x/k8TgP/E56aST5LDD38iSFUsol0vNAUBSnI1rKP0D4JCmYkAARzHa2QTdQNNMKIEEsNabRa1bs5bTv3/GhAj+ANOnTZd3n3QS69f3kibeIlgK5WphaawaWiR1jLjRkVQqrFu/njN//OPxvYjIVk+sAEQ2Cx/6wPv1O6d/l66uHsSANQZj/M3d7woFIxYMuDwPyQBhtyS0tlV57LHHOPR1h3LhxRdOiJt85J/nVa/aT2+44Xq23XZbGrkjzzISKZrgQqunC56OEto/1dFs+i+0Id5AD4NgjcVYwxMLFvK1r3+NT37ikxPqdbFixVLdfY/dcQ6q5TJiBOeCH5BoU8zqCEdfTlFxYFPqtRrdnZ3Mnz9/Ql1TZOsiVgAim5wf/uAM/c7p36W1rRWxQmJMsxeqGABjfEG42PT5813nd4htLRWeeOxxjj3m2Bj8t1Cuv/73cuBBB7Fo0SKMVRIr5M2dfdjVW/E6gKZPgI/8weUfxKvoVQWTlMhxPLFgIV/4wn9MuOAPMHPmbHnLW46nr7cPmyaoc6N2FvhkIFwRxewDsJDndHV0suDxJzjrp2fGHVpkkxErAJFNyu+uu1Zfc9BrSNIyLaUyJk1RcaQmiP5MURLG3xybZjG+DbBUKrNgweO89S1v4eyf/WzC3eQjT493vfs9+sMffJ/uzi66urqoNxrkmgUVvGlOEXSq2KAVcIWZsBjKaYLBsrZ3PbXaCKd/9zuc+I6TJuzr4tH5j+vee+9FuVqmZNMnnf3nqsEJsbg+aR6DlVJLb+8ge+21B9ffcMOEvb7Ilk2sAEQ2GatWLNM3H/NmVIW2ahlKvsRZ3NgR4/d3YyTfRc+/ilJpqbJgwQLefNybY/DfSvjB98+Qc887n7nbbsvChQsZHBwADJVKmTTxJX1E/BGRWKxNqFYqVCstpNbS1z/AslXLedELX8BNN/xhQgd/gGftvKMc/aajWb+2l9Qk5MH9EJUg/FPfzhgGIzn13QAjtYye7k5uu+027rj19rhLi2wSYgUgssk48MAD9Nprf0d3Vw82sU21s1iLOHDibVJNaP4SI1hradQdbZ3tLHjsEd74xjdw3nkXTOibfOSZ8b3vfVd/+KOfMP+Rh+nr76dcrtLW0YIRiwki0FqjwUD/BvI8p6uznRe+6MW8850ncuyxx24xr4l7771bX/zil9DR0Y21vrKlhSAwHIVJ8DrwjQBeFFiuVli2fDknvO14vv/9H2wx1xvZcogJQGST8ImPf0xPOfUbdHV1Ihiv1rZFi18x0W+MsEu8DsCJo5KWWbp8OQcceACXXXJpvPFt5dx99x168cWX8sRjT3DX3XeybNlynCrlUpntt5vLXs/bm223357DDn8je+y6+xb5enjdoa/Xa668imnTp+Eyf6ihzXeA9wWWMDyoeYFGaOSQaMZ9993P1GnTt8hrj0xcYgIQ2ehcetkl+oZD3khLS5WkXCLBYIzx5/tB+U8QeBv8zt+FpKBcTlm9egV7P/+l3HjD7+MNbxLS39+nqtDZ2bnVPP8XXHyxHv6GN7LNNjPI8jFBXsKkxDAAwQCqpjkAq1ptZdGiJ/i/b/8f73v/B7aaxyMyMYgJQGSjsnrVKt11t91Zv34tU7q6yMUHfzu6zfetfW50RKyxxtv7lsqs6xtg+rSp/OGm65k2fWa84UW2GvbcY09dsGghHW3t5M4FQyQtrA0QMaN2x6ETopJWWDfQy/OeuxfXXx/FgJGNSxQBRjYqJ5x4ImvXrqGru5sMgzGMGr2ICQ1dGnRQvghqgda0Qr3WwGU1zj331zH4R7Y6jnnLmxgcGPBmf2FEoFPvBOhQ1OX+746mTfBIntHV3sk9d9/Lnx98MO7WIhuVmABENhpnnXmmXnbppbS3d/jALgYjydgp7qCKc67p5S5icAYamrNm3Rp+85vfsNdez43BP7LVcdxb30JrWysbajWMgNM8jLcWxHlDLHV5+OowBVMdaQqDQ4Oce95547r+yNZHTAAiG4Wli5fqhz/8ESrlCuW0hDXWu/uF3b6E0a1a9Dzje56tFcqlMouXLOa0077Daw5+bQz+ka2S7bfbSV73ukPo7+8jKaWgJvgA+FMxEdN8n/jOAD8jodZw9HT0cNkVl47r+iNbHzEBiGwU/u3DH6Svv4+2tjbU1zgxRvxwk9zHdEuwPB0z3b1cKrHg8Sd45wkn8M6T3hWDf2Sr5sgj3kjeyMgz9Z4A6rUxqoX1tTTfI0b8ZISskVNtK/PAfQ/y6COPxmOAyEYjJgCRf5nzf3uenv/bC2jt6PL3MzTMbPcT/goLV1/yT3w3gIU0KbNy5Spe+vJ9+MGPfxKDf2Sr55hj3iyzt51D/1AfqQGH8wG/EP4hOEINQI3XBqDYNGVoaIhLLrlovC8hshURE4DIv8zHP/4JbJJQSVMv9DeCsSaMeBWaQ/5QRPwZZyKGLG8gVvjxj+LUs8jk4fDDDmeof4gkLQMuTEbUMAVZm/Uxh4OmJgDKlSr3/fFPm329ka2XmABE/iU+//nP6YInFtDe3k6ueQj8ftyrn2/i57v725oFNYgYKmmJZcuWcfpp32GX5+wSd/+RScMb3vgGrLHUa8OojhkIFGYjEloAw5kAxkDeaNDV2cEV11wzfguPbHVEH4DIM+aJx+frHnvshVOh2lohxYI1QdmMPwJw/qZmxAQPAKiUWlm+YjmHHPJafvObc2Pwj0w6ttt+R123Zg2tba3NscfeHkObGhkJbySvB/B7tcGhIe655y522GHH+L6J/MvECkDkGfO5z/8HG4aHaa1WsVhIjLczxYuX/NmmQYwtFIAkUmJgqI8pU3s443vfG+criETGh8MOewODQwMkaYKKD/lSVMyaVTMAr6PJXU65WqZeq3HzH24d17VHth5iAhB5Rtxx1236q1/9ho62Dgrn0qJ86UWAfrKZBEtTQTCATS3rVq/h29/+Nj1TpsZdTGRSMm/e/iRpwsjIMKiiYnDqm2O1EM2gaOEYqH5WxvDIMPPnPzrey49sJcQEIPKM+PznPkeeZ6SlxAd+U5xbFq1+haoZrLV+ulmlwsqVKznmzcdyxOGHx+AfmbS86lWvpLW1jTzLAdd0BgQf+6V48wi+pRbC10K9NjIeS45shcQEIPK0uebaq/XKK66hpb2dXB3WWK/+Fz/YB/ACQGMwCM7lmMQyUqvT3t7GN75x6jhfQSQyvogKJowEVpVmD4AYwRgLGs79vXlmaAd0lNKU9b3rxnXtka2HZLwXENny+NznPo+xCdVqFc1zxPibFOoFSw7n55oDxlhyhHJqWfD4Qr73ve8yY8asuPuPTGpCbMflGZokfl5GKPW7UElTVe+ZUXTRiIBJGBoYHNe1R7YeYgUg8rS47LLL9bZbb6OttQp57o3+8kK5LMHqV7wLIIARSqWU9WvX8YIXPZ/3vOe9MfhHJj3r160ny3MwJlT6vYjGOcVokABAmAyoiCjqFJvnVFpax3Xtka2HmABEnhZf/fpXEJNQSUqI845/xvgpfypFElCUOAWXO4w2GBoa5uSvfn28lx+JTAhuuf12hoYGSRMb3jEmdM1oc0qmF9UKGo7SjBXqeU73tCnju/jIVkM8Aoj809xw/e/1xt/fRGt7B3UcpSRtljIVSKyEPuaAQKVUZsXK5Rz+xjew3/7z4u4/Mqnp7V2nIgkXX+gtfa2xOJ8xoyphGFBAwg4tWGpba8k1p2TT8Vh6ZCskJgCRf5pvfvNbKI5qJSFzfqeCGMRpMP0hmJeZYASkZOFrPv8f/zG+i49ENhH9/X1arzdYt3YtK1YsY+mSJSxfsYr+wQFwjg0bhlmybBnz5z/CsqXL6e8fYGhoiI62dpw6jElxKEbdGE8ABSOI8UVaFWhkOdVKmT12e874XnBkqyEmAJF/igfuu08vufRSWlpbcM6RYH1nf6H+C+I/USCIAMvlCsuXL+XYY9/Mnns9N+7+IwDccP11euVV19LSWiXL6uCgXG2lvb2dlmqV9o5W2lrb6OzopLWtjXI1wYqfM5EkKYmBLHMUSlPFoZn3zne5753PneLIUKc451+jeZaT5TmZOjTLqddq1IZrDI+M0D84yODAEEMbBqjVajgF18jJtEGW5WwY3kB/bz9r1q+ld+1a1q5eQ1/fICP1EZzLQZV6lpM1Mn9NT4G1vmJmraGtrR1rFNSg6po7fUGCl4ag6q+FkBQ0Gg3SUpmXv3LfzfVURbZyYgIQ+ac4/Xtn0Gg06Ozs9C1LQbGsQrNsabxiCSMONZY8z0mSMp/5zGfGd/GRCUV/Xz9f/cqXyZ17yn83eJW8TcrYJEFwTZ2JD4bqPSdUyJ1DjIx66IP3zkcxTsg1b9pQqeaATwhUvVxVc0fusqe1frGGNEkwYhBJgAyMYMWQtlUoJR04gdRaisQDLOoyVBVr/aQ/dRr6/2WMVZZPn42ITw7E9wGW0hID/f3stufuzN5m25hMRzYKMQGI/EPWrF2tv/rVL0mMweUOm1jGHFD6sqUqYfuPOqFcLrF8xQre+pY385w47CcyhkPe8EZZtXKlfub//T/OPvsc0lJKZ1sX9XqN3GXkWsflghHBOaWRZxgESUCc4tRiJEcNJJL6qZMmx+V+DoUKJLn6wVTYQkqPkGCNJdMMRbBm1HHPiiBiEfF9+Lk2MDbFOFBx5A7UaXOqpRZB2jnQEk7Fn+eLw1iDNhx5I0Otglis8a18qoKqQXAkaUKOd/8zwQfAv6387r8w1FIVkiSlr6+fow4/avyeuMhWRxwGFPmHnP6d0/QDH/ogXZ09JGkY9iMWE3qUm67lAmL94YBYYe3atdx5xx3suutuMQGIPCVXXXW1fv7zn+P222+nu6uHtrYqeZ6TuRycD35iAeeDuA/CPjC6YoBuCMwOCQ56oSIQXPRU/VeH6E3uclS9aDUMrxiDhpMF392Sa7DidYIGe0tRGf02AZwG/ctoO6zg1+mDvvNrEp84uFDiFwWxXvjnh/0U3+NLGcYYjCqZghXLhvowf7z7HuZuOze+nyIbhdgGGPmH/OjHP8RaS1pJmyI/71Pub7xjm5YNUEosq1at5rA3vCEG/8jf5dWvPkhuu+02+e53v8eUKd0sXrKUWr1BuVShUq5gjC+NG+uDpLHWv/7C5l2MxVg/YtoaS2pTrLWYJPEVAGOxicXaxP8sI6RJSqmUYmzig6wYjDVYa7A2wdoECa/xxFiMGGxiSMRgRbC2OHIQ3+4qFht+V3EWoSYkDGEQNlJ8TsK0TF8xG/X/cSHw+yRCgj+AE6G1vcrqNSs56uijY/CPbFRiBSDyd7n5tlt035e/gra2FsqVMuTFzdc0y5Uu3OQEoWwtmhiWL1vBDTfewEtf+tJ4w4r803zrW9/QM773fR569FHaWyu0tLRTLpVw6shyF3xx1Vf1jd/RP8mJMtjm+v+60FoXNuqE8brO+QmVOG9ZrYoTL8bzo6vHWPM2u/QB48dbj+7zw+kCjPlqgr7Ao82FjYr7CrGCyJjfJRJO0Hy/v4ivrnnzv5S+gV7uvvMudtphp/h+imw0YgUg8nf5zS9+hcsdSVpGcovYYPwTHMqcqj+flSDQKpVYv66XV+y7bwz+kafNhz/8UXnwz3+Ws374Q/Z56cvYsGEDCxctYqB/AKNKpVQmLZX8jcspWe7Q3KE54By55t48JwThsa9TMS5oVbwg0OU+cdXwejZhd16U4Atny6bThWozSDcNr7zhtQ/9rhjg4/ULBv8zjXgjH4tghCAeHPXPKH6er0Z4gaKoIjjSSsrihQv50Ps+GIN/ZKMTKwCRv8vcOXN1+YoVdHZ2Ya03LvGzyUJ7UiFUAnCOaqXKwqVLOPusM3nLW94ab1iRf4n7779Pf/3r33DFZZfy2Pz5rOvrp5Rauru6MTalVLIYIMuFXDOvms+VPMtQY5rHUmJMc1eNEVQbiDN+gpUKYkLglcKa1wd/ddq0tVbnSwwOMDpmQx8oBviNftp/bdHSJ0F46ES9pkF9N01RyTAGUIOY4mstff19zJg5k4ceeji+lyIbnZgARP4ml156qR5yyKF0d3aRpEmY+BeKn0FlZYyEeeZCIkK9ltE9tZOHHnok3rAiG5XHHntEf/vbi3n4oQe54sqrGBwcYKC3jxxobW2lpbXV77gNpGkJMRZRvOd+7hDrBXmqAsbhnLeqbrYRGkFzxYo/e1fnQmXA4PAjevM8BG0tgnuz+SXMwaB5JuG1g4rB+GOykGAU7bPNBKDo/RfFiG97tMaCNSxbtoxrrrmaV71qv/h+imx0Yhtg5G9y0YUXIShpOSHPNLT/eQdAI/5j55zfXeEot7SzYuUi3nHSCeO88sjWyE47PVs+8YmPN/8+f/7Des2Vv2PJymU89OAD3Hnn7QwMDKPqWLN6HY2sAUA5SahUWiA1JMZijS/b+y4Whzo/u0KdYlTIRo/pURwuq1NvNCiXqySpoPno7t/PwFBChuAX1vxHwRj/b4aiI8BnC0aEPGgWfOuiQcT5TgGFtFLh8Sce45unnhqDf2STESsAkb/JzJkztXd9L20dnRh1GGv9zQ6DaSqZve2viGDThFUrV3HnXXey+267x5tWZLOzft1affThR7n3j/eycuVKhus1+tatY/Xq1axas5o1q9bQ199Ho5GRuRyXu2Ij7oOzQJ47VJVqtUK5UqGzo52Z02ewctUqli1fQZraYH4l3sqXoPXXoqvQBA3CaMuir5LRVA36SoAXNRpjm6JDR05nSyePPDafd7zj7fz4xz+J76PIJiMmAJGn5PJLL9ND3nAo7e3tlMoljNim+YkXNvuPTWIwDkxaYn3fel7y4pdw1VVXxptWZELT39enmashWJwqeZ5TSkt0dXU/6bW7aOEivfTSi5n/2BNcdumlrFyxkrScNn0GmslD+K6ihU9wOJWmnqAwyhIpgn0450fIBUxIrFsrFeY/vpDXvv41XHLxJfF9FNmkxCOAyFNy1dVX4pyjlJQKq39vYgJhV+N7mvM8xym0JEJteJgjjzhivJceifxDOjo7/2Zw/d21V+tNf7iF66+/jnvu+SPr168HoFxupaWtRNEB4OO4Q8NuXp1ibNLc7YuOavwLP//gB9j8WMWgOARDmpZ44oknOPzwwzn3vHNj8I9scmIFIPKUPOc5z9bHH3uCjo5OTGK84YkxqPE9AP6Y1KAopcSbpQwMDXH/n/7IrNlz4s0rskWwePECve7a63nsice59fZbue3mWxkc6CcPt8W0nFKpVqikVe9MaDSYEwka3P8MY3r5g7VwoQkoWhHBf2CKYn/R96+KKaWUjGXBooWceNK7+cEZ34vvn8hmIVYAIn/Fgw88oE888QSVSpnQAYUxYIz3ZlejCKZ5YyulKStXr2LegQfF4B+ZUPT39alDWbF0OXfdfRePPfEYI7UR7vvjH7n1tjsYHtrA0IYNza9PTEJbWxflSkLmHIghMaap0ne5Q8WOsfotjvVNEP+HchmFSya+xQ/xOYEx4Ai+f0JLucKG2gaWr1nLKad+g498+MPx/RPZbMQEIPJXXHnV1TQaGd09U8izzAd+BeeyZhuTb4HKMYnFpAnDI3VefeAB47zyyL9KX3+felGbP982Dpz15eyOzi4Z6O/T9o5O6evrVd8OFzwhAF/Stl7JHoKn6OiOt7OjU/r7enW0Bc5b6apAZ0en9PX1a2dnh/h1rFdvtesDrHOORq3OcK3G8PAQvb39NEbqDAwPsX7dOhYtXsTI8AhGDOvWrWX50mU8PP9RlixZSu5y6vU6w2MCPUC1WkWMobtniq9uqWuq8p369j9T7OiD+X+SJmPcB4XmY0VoB3TBSMgUDoTiTQPwj6EqOPzjUqqUWbFyJV0dHVxy0cUc/NqDY/CPbFZiAhD5K27+w42hbumaAX9sf3PhAyBiERXqtTpt7a0c+obXj+/CI3/FmtWr9aGHHuK++/7E6tWrqTUyli1fwurlq1nXu461a9eyYWgDtXrND77RsItVb51rgmWdP6cWv5cVbQZxxYBRpGiDU8Wp8/td418f/nUEYLx+NFeQsAd2phjqoyFgqgNfWg+R1TU18mGQjnM0Gg1vvJc7srzxlNeepKn3AxDB2pSeKVOa5ftcHc75fnt1DnW5bw80XuPSNOQJHxdu/cWbQcOEwSLwq+DdBpte/57i8XNCeP9YKpWEWm2YpYsWc9CrD+K7p5/GdtvvEIN/ZLMTE4DIX3Hd76+jpVwmc0KajBqt+3uhgTAESMT3VQ/0D/KC5+3NtnN3jDexcaK/v0/nz3+Cq6+8iv7BXu664y7uuvtuavUa9Uad2kjtr75HREjCXHsAjJAmFpwJUc3ibBaCuPi2Nad+Fo9JQg+9C/30vqdeJPFqd819kBcXqgE2tMx5K2nnvGWvI0dEcJoV06V9X77YEFC9Qt6IF52CT1BKSQmMYA2IaUewJImgRvzPzvKgzPdtqk4dqg6nwcYaQ2LDDl8MYsV/pe/Zw7kwlCf0+XuXQPWjfM2o538R6g0CoSpQHI2J+kpAIQBMEotRYdnS5bS1VvnWt77F+z/w/vieiYwbMQGIPIlbbr5J+/oH6WxrhbyBSupv2FrsjMLuX0FdjpQS1veu4+Uv23e8lz7puOyKK/T2W27hlltv47bbbqVebzA8PFrmNiIkpZRyktLa1Ya1Aon1gSn3+9lc3BhBm5BIEgJdUbpP0UzJncNa44Vt4jC+d8376AOqLgjcBOcEQ3Decz5EOhRrEn+GXpyV534oj1iCmY7gNA/jezW00ymJGHBChg/qmjsIAdc48EcP0HA5xgXbXQMplpziukx4/YZZAGNU+v53K7mYkOwE979QspciMVDj7XrxxkFeA+DXMiqmVkQNIr5m4vKcUqmMtUJvby8jwzXeeNgb+dIX/4edn71zDP6RcSUmAJEncfU1vydrNEgrVfI8A8a4lTlHqJGCuFDeVNqqrbxq3ivHd+GTgJUrlukFF1zEjTfdyOWXXUbv+r6ifE65XKZULjGlOgXwyVoeduferTFUsvPMd6CLIFaxzp/DS1LssB3F+DtR7/joUpAwKc+7PlmKACxNGxwf9ECwftA9gmBs8eO8eBQRTJFMWqGYrKd4LUBikqZsXoKZjlN/jm7Ca2/sLIrwwsQavy4Na/FmPMGJz68OwZDjd/Iytnnfia9qSLNr3x81jFmdCWb9zaF+bnReoCk+Z8LcAfV+/8YINk3ZMDRI//peXrzPy/j85z/Hqw96dQz8kQlBTAAiT+LxBY8BIHk4uDRa2AA0u5cL13MRIa/XKVfKHDDvwHhT2wQMDPbphRdezMUXX8LlV1zJQF8vAOVSldbWdtJSihh8d4aXmwd7GUeS+BK3Gt+4qeL7ziX41KtKEKlJM5aixa7eB1jn1Pvah2SvWQUyQegG+LwwJBBh6E2zuTj4R4AP/P40ofjXQlDqQqE+BG/131M46WlomStCrp8/YcNZvIY+/LB+KRT7RVA3uDxY74gipjiQD+f56mcHaNO+N/j1oyFjolnaBw0DgSSIAt3o2F4rQawolKwlsSUGhwYYXLuOPfbYnQ+f+hGOO+64+B6JTChiAhB5ElddfTVpKfHqf5vgd1rKqF2EL3mKMdgkoX+gj31fHnf/G5v7779PzzzzLH79q1+zeMliACpphc6ubhIjXpJnLJJnvuRu/A7cikUpVOwyOrBGwGJwok3lvQDYcJwT9rq+xlNI7sJO3MiYvnYtut6bO3QxoezupPk1xS/VcI4/WiAP/1S0kTrnf08I1sWZu3fP899vQ7XA5f5IvZDeO1VfYVD//f6lOqrYL9rtmqK8Iu4bfKITFPpaJDYoqoLDNb/Ul/nDeGGn4fcLRkMSHH6fQUjSEupy1q1dR5459txrTz7wvvfzthOOj4E/MiGJCUCkyRMLHtd1a9bQWm0nFyEJ2yqnhdmJL4Za/E0zTVP6egfY+7nPG++lbzVccc1VesZ3z+CKyy5lZKQGCG1t7VTSEjk5YFDj1fnWODCJL9UTdsJh1rwtGtQp4qGM7qiDxs+L9fAl9rD79xa2/vluDn7UohIUAvMYlXuRaBRf65TmeNvm3j/8QvVb+xBwQ2oSyuZAs8rgf6hplveLnboU1ahCI+C/KVQzwlrDOF91XtswupYw4FfCK1lCcHdFbjN6ju/P/YPyP/RDigQjLNVRjYIIaamMiLBhcIjly1fQ0dHG/gceyPHHHceRRx4ZA39kQhMTgEiTa6/5HbWRGu0dHeDU74RCP3QIJc1zV6NKVm9QLlXYa8/njvPKt3wuuvAi/b/TT+eaq64EoFqtMKW7J5StvYBNcj/ethgrq2GHbII1s6/mBw969WfahQFtsVsv9vZKUVbHT6FDCHvxopuvWQX3rYHSfPo1Z7SCgO/RL9rfzNjqugErJiQGIZjLmIQBbY7V9X8d9Qzwf82DAl+a7pNNJCQAoUwvWrTnje7ci0E8zf28hmqFKx4Bn+DakBQUCZT/3YpFIHcY61sVnYK1QqlcgnrOcJazbNkKxCizZ83mxBPfwTHHHsPznrd3DPyRLYKYAESaLFz4BACpTWm4OiJe9Rw2QciY3RrWkOUZ1WqZVx7wqvFa8hbPtddepV/+yle59prfAdDa2kaapl5FrmCt9SVrLEkadrE4pNidAuHQ3GsyNOj0ws7Xb8zFuzdqOJ2XoAlwzgfEUPSXECBpfn3YbTdL6BLOwH09oZkFhBeIFvqAoDEoqgxujIrEiPFBOryeVP3vaZ6zi2ue93s9QPMQg2LX7X9dkeQUBxfFtY1eMxLa+YIgUZ1vY2z+vHCtqKIOjJWmB4IE50s1FmssiVhqjTrDw0MsW76caqlMz9SpnPSuEznwVftxxNFHx6Af2eKICUCkyaMPP+x3ay5HxHqxlWjoyw47KgWnOQZL5hzd3V1Mnzot3vyeJg8//KD+739/mbN/fg4AHa2tmLSENcX5fNjzGoOF5jm6hkNsfzaO37UWkb4QwhV96sWuVYoz97DvLbo6zGjlwBPO8JXRRKEI5kHkp/5g3YsLi+8KcX9sm2jxuvE7+qCyG3N2IKNZQNjNF9ddlO2DyFC97a5PA8LQndEoT7Gzx0jz8xoqJNJ8UIp1+vN9O0YUoPhxwEnqb4WJERKbkKmjXqvjGo5VvavIsoyO7k6mT53G299+Aq942cs54DUH0dneFV/7kS2WmABEmvzhtttpqbb4nu6iFOqKXb82N3uIpVQq0bd6NYe+Lrr/PV2+fvLJ+j///QX6B4ZoqVSplEu+xSy01RnxYj1LCLRS7KahcKWTwm0GDT7zGs7DtanEL/bGhGl1TkZ3vwrN6s6TlPtajKYNwRQIJQgkdxjxPfcaDv0LF7zikKi5ViQUGoKk0IKo9TvswkGv+cqi2ZlQVCfEjJ7Hg8FIaPtrmhSZUDkI5j7hMfFHGUEgWCRE4e+JkWZimxrjffmNIW9kZHkOCL196+kbGCJNUtra2ujs7ubEIw/jWc/emde9/nXs+pzdYsCPbDXEBCACwJq1a7Vv/XqMsV7IpTlikmB8okF17ceWCo40KTM0NMSsbbYZ76VvMdx62636sY9+jFtuuYVyuURHRxsiiRf1hf8VO/JUbDiLL/zjfancmNFyvQJiDM6FTbDxeo3wdDV32MYIed3hyCGxaK7YxDTV7yoGo0pOcY4etANB+a44UBcq5kFEWKyhKRIcXavXHjqs8WY6AEnIHl0h4bcCrkHmwCQJovmYyoOGI46QRKDgTCjLWzDeXdCJICRBt2ARyVGjVKSEolgxOJOjmbcnzrIcdRkjQw0aWYPBoUEUaG2pUGmpYsSy334H8Ny992a77WZz4AEHsO120d0ysvUSE4AIAI/Of5RabYTW1rZmSbU59teN2dmFPunc5aRpiVkzZo7zyrcMvvF/39ZPf+JT1Os1enq6/Q5VUowt2stMUJqPKdEDEIxmmkHdNXfm0lTJ+/1300pXNSQKCSVrsFhKbWVyzXC5I1NHltVRB9Z6kVyu3pJX81Aed36P7rThk4jQLyjqcJki1vqqgs9C0Nz5kdEqaJ4jRsmseo8A58iL6oYRnwQ0cm8NnKTkWR3JFUlsMylxDnLNsDYJmoGG96ZAMGLIjDc3ouGrEFk+TJbl5M6RaUZjuIYL+oFSmlCpVkiSEuoc28yawXN224NnPedZtFSr7P385/KSF76YSqVKR2cs6UcmDzEBiABw+623Uq9ndHdVyAuZdxB2+duuF0g5FZKSYaQ2QktLC/u+MloA/z0WLF6o73/fB7j80kupphV6ursREaxJsYUzTmKDkj/I2YyX+jUTgWZFfnTevBZ/4vv2bZKiRknSFPKcRpbh8ozBgREGhwZxeY4VS2tbC0laChb1htx5TUfhAOhjpg+c/lhAMMaRNfUFmU8IM1fU51EZM+c+/J/kvhWvWRJQ/KyAZjajiLG4RuYTAVU0z4DCa8CLBXPXCMvxZkEq4nf6TkhMSktbmZL11ZSp06fQ0zOFrq5uenq6MSahWq4wc85sdt5pR569086UW1ro7OiMQT4SISYAkcD69b1AUPrnwW0N8XFBR3u/BSD35irWWmbPnj1+i57gXHPNtXrCCW9n6dKldLd3kIvBhaK1BFtZCYYyBAU80Ayaxb+H0B+qAqOJgTGWNE1BoF6r0dhQZ8naJVhr6ehsJ01KvPQlL+V5e+9NpVxi5sypbL/jjmwzcxZTp02ntdra9AXAOVRzEOu1BKreCBIbVPlNU38vuHM6qiGgODbw7XJGnFfVGxM0CIBTfyTQFJJAIeBTKbwLw7UWBkMSZlC4on0QnJhgTe3X3dkeg3kk8kyJCUAEgN7edUCh9g+jTQ1h6Ik2/81PTlPy3NHS0kpaiS+hp+Lss3+q73jHieR5Tld3N4ihYg05YMUP1PF+N+HxLYRzEsbHm6LdDcT6TgAXFPilsiVNUjYMDrO8t498ZJi21jZ2es7OnPiuk9hhhx04cN48pk2fTkfc7UYikb9BvHtHAHj0ET8DwGmG0jRHD8kAFAVhcBgpMVwfYLfn7k5bawwwf8mn//2z+tWvfZlSqURnZwdQTI4r+vj9rt+GtjRRMzpLnqLfwmOsFwNaY0lLhkbNsW7NOmq1EXq6enjbMcfw4n1eyKGHHsrMGbPjcxGJRP5pYgIQAeDPf34QmyS4/MkCQFf0WRM82p0jMcLQwAC77vaccV71xOO4t71Nf3bOObS2t5Pg0yaMwRrvF+/C+bcJ7XF+wl0h4xt1vSta5NPEYA30D25gzdJ1dHd1c+ghh3DQqw/isMOOoLsnitYikcgzIyYAEfoGBnTduvWU0tSHoXAuK4VXS9PIJQSt1NBoZHR39Yz30icUhx9+hF5wwW9pa++gnPixtqbo7zeCOp8MiI6pBYRdfyHyM2FgT2INSVpisL+f/r4+dt7l2Xzkox/l2GPfxE47xjnykUjkXycmABEaIxtQVZLU286aIPpyzRFA+ABlIFcglKwTE18+BUcddbhecMEFdHZ1Ya3FGjPGZc+3+hXmPMX5vjftk6bTnj/jVyrlCkOD/axavZrn7/0C3v3ud/GOd7wjBv1IJLJRiXfwCGvWriLPM0zJeO904+1+Ru3n8A5xoSc9y3ISkzJl6pRxXfdE4dhj3qTnnXcBrW1tfsePIcePjhUt2vfwI28pBs+EVjcRNFdElFK5SmPDCEsWL2KPPffkGx/7GG9929ti4I9EIpuEmABEWL5sFSONGu3ltmaLlUOxLpT9wyhXdX4yHS6nXE7YZvas8V76uPORj35Ef/Xr39De1o5NhKRw6guGNd62F4r9f9OLnmK0bI5NEiqlCqtWrqCltY2vfvVrfOzjH4uBPxKJbFJiAhBhzZrVuDzHGIMJzd3ebt34iXGFCYxAFjzW07TMjJkzxnvp48oPzviefuub36K1rY1SkiDWSyeLsv7Y6XXNmXthLK4RwSmUy2WGaxlrVi3hsMMP48tf/hI77rhTDP6RSGSTExOACH3r+7wtLH8xkQ0Nvu6+jc0pweoFymlCT/fkPQK44uqr9AMf/BCVSoVyWkZDliTW7/xz54I1bzGBT4J7jx/fg1MqlTIrV6+io62Ns396Jm869s0x8Ecikc1GTAAi9A0MAGDTkveER5u7Vu9IV8xTxR8JOO+53t7aNm5rHk8WPP6EHnv0m1BVqq2tvmrifIHft06GoUnNqXejFr7OedvecmJZumQJ+77qFXz/+z9kp52isj8SiWxezHgvIDL+ONfwfzatfzWMag0tAVIMnvFq9VwzHFCqlMd13ePF8W87jr6+Plra20ffQOIwxoZWPvFjc3XMGyy4/aVpCTGwZOlSPvihD3Httb+XGPwjkch4ECsAETIthqZnwQAweNUF5b8YX70WEW9X77yaPUkn38vn3z70Qb3x5pvp6QoT/Uwo7fuePnD+sTPhGEWdIiqo+OmJeaasXbOKH/7gB7z9HSfEwB+JRMaNyXcHj/wVWb3uPxDvS2+kaFULAS33rYFW/BAbsDjNEP27P3ar44orr9DvfOc02traEWPCm8c/Ll4sobjC8Fe8GJAw0CY1KXmesX79es4/7zxef+ghMfhHIpFxJSYAkcL2H6yg6rxwTc2oD4Dx5Wx/sq0YyUBzMJPrBOn9730fSZpQrpR9dcSaYmCiT5hU/IS8MNvHOYdYSNIErQnretdz0UUX8OrXHByDfyQSGXcm1x088pSESe6YBmHX6nUAOLy6XQtHO3AOsjCtrvnJScAHPvhBfWLBAjo6OlCXN338jbGhRTLs+BUQ3/5nxJKYFMkdq9av5NzzzuPVrzlYRob7JlntJBKJTERiBSBCEnbyIoZiRI1X/PtydlHeFhTEYjBhct3kiGM333Kz/uAHP6C1tRXnQp+/hMTJabNLQlRxwfBHREKFxLJixQp+c+6vOOSQ1wtApRonKEYikfEnVgAiUHj6J47cKbnLQR0UTWzhNEDVjwNOxAKQ5dl4rXiz8sH3f4BGvU5arTQH+BiRZu8/BNmkeHGkEYPFUCmVWbx4If/z5f/lsMOPiEE/EolMKGIFIEKS2PCRAXGgggYjIENQsYfZAGKhkTs/0U62/pj2ox/+UO+5917aujr9wCTjd/9iDIX2zz8KptkJ4DKl0lZh4YIFvPktb+bfP/WpreKB6u3tU81zhmsb0FxJSxYjKUlikMTQ2dG9VVxnJDJZiAlAhLbWKgB55nf9IoVxjb+fe2U7qAqaAXmGYqjVG+O15M3Gf/3Xf5GWUhKTYBGM8RURp85rAKA5QhkRnAiVSsLKlct58YtexM9/9vMtLij29vbqHXfdxW233ErvurXcfc89PPTIw4wMbcAZyLIMUUGsH21ssGBhyrRpusuzn8Puu+xKe3s7z3/+83nZy15KV8+ULe4xiEQmAzEBiNDR5h39BO/771DEhYl1YpDQEeDrAJbECvXGMOvWrGHWjJnjvPpNx9e/9lVdvGQJnVO7MepIk5J/bEJ7JMEmWcFXToBqamnUMozAD378/XFc/dPjT3/6k1580UVcf9ON3HHr7fT39+LGSDwqLSmaC5L4UcfGWFymqAGnOeIcyxYv4fH5j3PpJZcAkFhLe3s7z9ltd331AfOYt/9+vGr/eTEZiEQmCDEBiNDe2Ykg1Ot1SqUSIGgIaFoccxfKf1FMkuBGHGvXrB3PZW9S1q3v1VO+9S2SJME6Q5IYnMtRDDaxqHFo6Ps3gIqQGkuaGhYuWMYZP/geu++2x4QOdmvXrtFf/PznnPXTs7nvvvup1UYAP6Corb2TtFzCiGlqP5TgCREGHJEoxlpveJQpFYG2NiURQcXSyOpkjZw/3nUXt978B7785S8xa9Y2evTRx3DEkYfxspe9fEI/PpHI1k5MACJMmzmDcqmEYEEM4sK0OqDpCohPBrI8o5Im1IdrrFy1cnwXvgk54/vfZ+Wy5fR0d2ONL/SLFYwGdz+8M6KqoFawKpTLJZYtWcbrXv963n3SeyZscJv/2KN62mln8NOfnsW6tWsAaGltZUrbNJ/SqAvPt0NVsWIQYxEgKzo/FFRc0/LYGiBMj8wcQI6IJS0ZyuUS3UkPtUadtb29nHLqyXzn9G/z4he9WN/5jpN4+zvePmEfq0hkayZ2AUTYdts5pOUSkPtPiD/vl6Bw8zb2iqpicBij1OsjrF69elzXvSk57fTvkNgk2Pwar/iHpu2vIjj10/1EFWOhVq9jTco3Tz1lfBf/d/h/n/m0vmDv5/PNb5zC+vV9dPZ00dXdTSV0OIgIaZpSSsukxpIkiRc8IuQEAaSAEcWaxHc9hMMhXF54RiPGT0W0iQVjyPIcK4aWlipzZm9DR2snt91+ByeceAJ77rG7/ujHP54cPaWRyAQiJgAR2lo7vMVvVrT/+ZeF73MPyUAx594kJJKQO2X9+nXju/BNxM9+fo4uXbSYjvY2jElwedacf6AhGfLHIg7VHFAqpQrLlq3gk5/+d5717OdMuB3t+eeep7vuuqt+6StfpTbSYGrPFDq72zDGYK0ltQlJ6Gzw44zETzlUvLgR9SdAEF4HBj8dytseF2ZIqGseGSnqf74YrAg28T+30cgQEaZOmcqMGbN44vEFnPTOd/LC579QLzz//JgIRCKbiZgARDBAJU2pq8M3/eO3/SJIYQJgBGsNLlHq+C9pNPLxXfgm4swfnwliMMY0d8XS3P2KL4+H4GZMik1K9PcPstNOO/H5z31uQgX/vv5efdvb3qZHHn0U8+c/Rs+UKbS0VcEoqRissf64xznEKImxgI5WPFBQHb3uoH9UBTEapCE+IfB6AH+qqAIiCrk2/+7C0RJiMInBuQzE0dHZwcwZM/nzww9wxNFHceSRR+mjjz4aE4FIZBMTE4AInZ3dMmebWeS5C2N/NRwBODQoAVDIcoVajmYZ5UqF9eu3PhHgA3/6k17/++tpqfjWSEMQutmgAxAgaCKcQOZyrIU161bzkU98ZPwW/hTccvPNus8++3DOOefQ0dZBe3srqMOYBBHrnR/DkYZQHHUES2MK9QcUZpBhMkTzGMDPigyzJBT/RcZXR5rTEAvHRBgjKPR/L15rTh25Ojo7upk1aybnn38e++zzUs46+6cxCYhENiExAYgAsP3OOzFSq+HCDVoAp77MW9jeOsW7BmpOqVrmkUfnj++iNwG/+c2vaeQZ1WoLQhKqIH4369Dw+NAc+ZsmKRsGR9hppx15/7vfN2F2/+efd57u96pX8ecHH6KjcyqSWgwWa1J/TUUQhlDlGQ3uo/9ivLERwR9KQwWkmRDo6Pho8X0CPl80wRcpfG3zMSv8Jfy/aTheGJ2k7MjrsM02cxE1nHD8CRx11BExCYhENhExAYgAsNNOz/aKb0wQcYG14dzb+Tu+wX/OuYyWtMr99z0w3sve6Jx/4UW+zQ+QJCj9EX8KQmGNJAgG1JEmlrVr1/H2tx8/rusey49+8mM98qijyI3Q3dOJtY7UGpLUIAaScLTjKwAGKxbCNUoI6EXSIwomDDgy3g+aPFfUhTkIGuoCxfdRVBB8YEdDsMf/pUgYikSq8JtsDpsiw+V1SqWEuXNmc955v+W5z91L/3TvPTERiEQ2MjEBiADQUi0BYKzg1N+ofXlYm7u9XH0ngFPfErdhwyBr163Zam7M9/7xHn3ggQdoqbSFHak25x06BFzYtRbbZRxZrU5HewtvP25iJADf++539aQT30ml0kJ7SzuoYI0N44mLpgZfnqdZnleMFTCFqVEQ+AUTCGu9ol9sOOsXS1rs5K1PIhIjGAE1QSTp6wm43FdOilkShY4ifMInAuqaj3XhOODU0cjqzJkzl0cfepR993sVl195xVbzWotEJgIxAYgAsMO22wK+z1817PTUNXdszTItioh6Nzgsjz3x+Hgue6Ny+WVX4JyjpaUKAkYsxiR+QqIGPwQTzr+d0tLSxpq1azj0kEOYs912417+/+lZP9P3vf/9tLa0UqmWAUeapv5M3gTDHsaI+GRM+T/MexATRH1BE2AENFQLRBISm1AuJdhyiXK1QrVSoVxJsYnFmgQj1ldHiuFI1idNTh1F4hReUj4JcBLmTwbfCTHheMCAWOq1YaZOn4K1KYe+/hDOP/fcmAREIhuJaAQUAeDF+7yEcqVCrdYgTVPf2hVu5W7Mng4Ep1CtpKxYsYI/3HQzL37Bi8d38RuJm2++GRHB4bwKXhWnOQ7FNs+z8WmzNX5AssBRxx4z3kvnsssu0xNPPJ6WljLVShmn4kv+wdOhEPoVgjzfpideqd+sc4TpjwAiJElCKS0xUhum1miQNxzDw0PUayPkOhqH08RibUK5XCZJU8rlMiVbAiPUGw1Es5BQOPJMm0cEYBBTTJrwVtShfcDbUKNYY6nXG1TLVdKelCOPPppzzvmpvvWtbxv3hCsS2dKJCUAEgJnbzKWUpt7SpTiSVXBeAjaq/s61WeZ1Tlm3FdkB33jjDVTKVZpn/EYRY7CuaPwbtUlIraVWG2LWrNm84dA3jGsweuiBB/ToNx0NIlTKrTggsX6r7Zyh0PRL084Z72sgCvhJkCoOFNI0wZqE4ZFh1q1eRa02QndnN2IMz3r2zjzn2bswd+5sTJKC+mmRI40Ga1at5M9/fohH5z/G8Mgwy9f1UqqkdHV2Ua1UyfPMDxGyMjpGoXhtqY4mI0GFaIJ4UIMngeaOJE2YNm0qx7/tBFpbWvSww4+MSUAk8i8QE4AIAN1d3dIzpUfXr1tH2VicU6z4s29V3w6nKs3+8Ho9o7Ozg0cfeWicV75xuPbaa3XD0AZa2lpxLscYX/ZWBWO0aWwjxldG0iRl0eJlnPSud4/30jn+xBPZMLSBzu5uVMSPLLbWC/CsF/c5BTXaTGy8g6HfiatxGGNJxTAwOEBv3yBdnR0cdsTh7LXn83jta1/D9ttv+0+P+33ozw/opZddyb1338VV11zJ4qVLqZRKdHe0Y21Clmc4DKJ5c/KkU0CslwtqmDxJSASCs5DLctK0zLQZ0zj6Tcdw5WVX6ryDDohJQCTyDIkJQKTJS170Es47/1za2ztweQOVQvfu/E1YdbSUrEq5XOb3198w3sveKNxyy000soxSmpK7wuc/BKBwfO271kzQA0CalnnVK/Yd13X/z/98Ue+4/XbaO9swwZJYrG2a9owV34FPaopGPwckYiiVUtb391PbMMKLXvB83nr88Rx55GFM6Zn2jILrLrvuLrvsujsAq9et1Qsu+C2/OPtsbr35Nmy5RHd3B/lIRuby0FphwqusOH7wAkxTHFmookZQHFkO5VKZzvZOjnnLsdx555263QTQX0QiWyJRBBhpstPOzwpmQKaIEd4FDgs62sOtQQEv1rJhuM7iRY9v8cKsxYuW+w/Eq9mNFEHTG/4gBi979CLIWm2EcqnEvAMOGLc1z3/0Uf3iF//Hn7knZRKxvvdeixq7NE16wl4f1cLYSSmnKSKOxYuX8ry99uLXv/4V1994o7z7Xe+SZxr8/5JpPVPkXSeeJL+77nq56JILeelLXszy5asYrtWoVCu+yiKj3hPF2qT5p3/dGX85WIXGSJ1qWyv9A4O85a1v3RjLjEQmJTEBiDTZbtttfDnW5U9ycGv2hYNPBNTPfSmXSozUhrj0iqvHcdUbh6uuvopSmvgOCDGoo+lyJ8qYTnawJiGr19l5p+2ZPmP6uO0+P/nvn6Jer9PS3o46g7NeYKfq9Rn+ze2ayQAhkKpCpVqlt7eXgcE+vnPat7nud9fJIYccskmv5cCDXiNXX32N/Pxn5zBr9jYsXrrUtxViyXMHzstNMWZMMlB84CcUOOtbVfNGnVmzZnDzH/7AJz/+yS0+AY1ExoOYAESaHHDgPNra2xipj2DGVgFktEe7iIqFsKxRa/DE/C27FXDd2nW6dt1qbFrG5aN96eioi12xlVbjp+WtXbeOAw589bit+brrrtcLL7iQ9rY236FgFGMSP7q4GN9bWPIGRacx/qy9klZZvHgJz37Os/j9DTfxnne/d7MmMUcf/Sa5+eabOf6tb2f58mVkbgSbWm88FOyFvaWw70pwoY3QKbjcha4UaNSGmTNzDt/41jf5/fW/j0lAJPI0iQlApMnOO+8i1loaw/WwafQKcVSKiQD+rwAIee7o6u7iphuu39xL3ajcd/+9DG8YIS2lfoyt9eY3Omb37AphmoKSo8Ywd86247bmL335y6BKWqmQqwPjHfic8SVzUcWJBlMf61sanVJpaWHxogUcdOA87rj9TnneXs8dlwpGZ2ennPnTM+Xcc89lZLjOwMAQxiYoLrgM+imDjKk8ge9cKMyonBokNVRKJf7tQx8ej8uIRLZoYgIQeRKvfOW+jNRrkIzas0pRC6cQwvmPnHO0VKr8+eE/s2Llsi12B3b3nXeTZRnlxPjzcw1GNBTBNHStG0FUqNcyuju62H+/8REA3nn33fq7a6+mXKkAirUWK96ToMhZ/Lm6QdV5cx9jaalWWbJ4Ma85+GAuu+yKCSGcO/LII+XKK66mrbWF3t5eEpv4mQIyWoHxtgHFCGZTnGZgjFCvjTBt+hTuu+9PnHLy17fY12AkMh7EBCDyJJ631140Gg2sKuKcd48LznFKcRMe/bstJQwPj3DdtdeO99KfMb29/QAYk4TzZy8ElPCxBgWaIFijZFkOqsyZu924rPdnPz0L5xxtLR2I8538vpNex1r9oM6bFqiDpFRizao1vOLlr+DSyy+dEMG/YJ+XvVSuufoqpkyZyrre9ZTSUnAeLF572kzCJPgZiCrqHEYM9UadaTOm8vWvfY3ly5bEJCAS+SeJCUDkSey22+6kSUrWcGTkOOcAv4sERVzhIatkjYy84Wg0Mm6/855xXvkzZ32vNzPKwmQ6B007ZFUH6hABJ77zQRR6eqbQ0dU5LoH0/HPPI01TnGZhWFGwatLieEabxk1+tpNhZMMQlWqZX/zyZ+Ox5H/IHnvuJRdfdAnlUkr/hmEyhSzL/ZGAGgq/QhXIgwlV4XDocqiWq6xeu5avfPWU8b6USGSLISYAkSdx0KtfTaVapZbVEQdhVkw4gw274XAOIMbgnNLR08PVV145nsv+l3jk0cd8AG0U0+oIDnRPPn8uglCtXmfPPXcbl7Ve87trdcny5WFegW36MkjTXjfUAdQb6ChCuZqyZu06vvq1k5k5c9aE2v2P5bnP20t+e+551DYMYjJHkhRtp6G+YcJQovAfDYOqEKFebzBjxkzO/PGPWPD4Y7EKEIn8E8QEIPIkenqmyJ577sqGoUEM1pfCxYTRsIJRX2T2ZVmvmK+WSixasoT7739gi7zxLl6yBGMEQ9Y8a5YQWIrOBxWvT7dYNmwYYPb24yMAvPG663HOkaSVYNvsR/wWDoUED/2id75kDX3r1vKCF7yAE054+4QN/gX7H3CgfPvb32TV2lXB04BQhSlqGzrG5Mi/BiWYVJXSEiMbhvn2t785rtcQiWwpxAQg8le88pX7Ua83KJfDnHhT7C4Vh58Wpy78zThKaZnB/n4uuvCCcV33M2FgsE/Xrl3jLWpVsOHcnzD6uOmio4o6RRJDvZHR0doxLuu9/c47vQBOnW+TU/XCv5B6FaV/DW2M1sLghg18+MNbjkr+Pe9+rxx++OGsWbsWkybgFKuguReeFkJU3x44anZUb9TpnjGNn//iF6xcsXyLTEYjkc1JTAAif8XLXrEPpTRlpDYCQJ7n5OqaJXEVnxQYMagzZHmD9vY2rr3uunFd9zNBHdRH6iSVFJMITceDpguQ+K4AP/6o6FLH2vF569xy662Uy1UU8aOZjYAJp/7FZD8pLIthcHiEWdvM4q1vfeuE3/2P5XvfPZ2Ojg5GNgxjE+tfc+JbHW3RBgAgilNvVa3OUSlXWbl6Heecfc74XkAksgUQE4DIX3Ho698orW1t1EbyUf+7QmCmzWqs740PfgAdnZ3cefttPPboI1vUzkuB3OW43JeZJYj/Rjsfi0b0pplu83HY3CxatFDr9RGSJPGlfhMqNKE1w69wNGFJKmXWrV3Hoa97w+Zf7L/I9Bkz5Yv//QV6e9ejYmiEwQwSRgX7KoCEKYL+cw6hMTJCT/cUfnrWmeN8BZHIxCcmAJGn5DWveTX9QwPBWc47yjkciMOEYOMQjDhUlHKpzODQBs777fnjvfSnhbfNF0zhO/+k3SWIutCC5kvNLmQ/SWo3+1ofvP9BaiM10jQZ9cdXcM7XwB3BsMn7OGNFECy77brLZl/rxuB97/+Q7L777vT3ricxJjQ50hwepCLhM0ELgJKro7W1nT8/NJ8rL79yi0pGI5HNTUwAIk/Jvq/YFzT3piwOcM4LAFXI0TApLzSgOaVWz+jp6uSXv/z1eC/9aaHqwthZA05DCyChjC7NUnshRDO+HzKMqN28PLHgcZxzpEmJQpsxugwJOgBfo/BTDDM6O9p53vP33uxr3Vh86tOfZGR42Ad65/xkJtUxCVDoFAiVKWMhsYBxnL8FalIikc1JTAAiT8mhbziUltYWaiM1MAYNA3IUBefDoqj4mzJCltdp6+jggQfu57Zbb95idl4G4wVlQejonAvl/2AF7IvMQHDV1RyArNHY7Gtdvcb7FVhrghpegtd/OKYwIDiMqB+Ykys2scwdJ8OijcHxx71ddt3lOQwM9IHkYJx/XlSbZlSoN20yBtQp9Uadnp4errpiy21NjUQ2BzEBiDwlc+duKy976csYGhrCWoMYBRvK5SJefY3vwy7GuRrjy+JnnTUxzWaeirCh92V+0dFgWnT9j7EERv21+6/f/G+dvOGTj2JQEVL0yPuOBa9Z9MOAUMGpdzNoaSlv9rVuTN71rncxtGEYa1LvPzHmttU8Aij+X4XcOdK0xKpVK7n2d9dtMcloJLK5iQlA5G/y+kMOoV6v+4CfK6omtASO0cUFYZzBUB8ZYUpXFxde+NtxXPXTR/A+B865oAkAf+4RLIGlmEsPWaGAfNJ4pM2Dht+pY0r/WjgBKn7gD4V/vvCkXGYL5k3HHENbaytDw0PkucPluZ9xIAA2BP6gEAjNEGkpZcPIMDdev2UPqopENiUxAYj8TY44/DDaWtsY3jDiFdhGgxCOpkOgYJCw28yznFJaZfnKFfzwxz/eIsJOR0enVCtlUCVX3+7oW/9ozqdXVXLnmhP1RAy10CK5OZHQ7G9DpyJOEQfiCv//oNdAyNUnZbkIA0P9m32tG5PZs+fIaw8+mOHBIRKbAII68bqMkKhpsEIuujayRkZXdzd33H77uK49EpnIxAQg8jeZu+12Mu+AeQwM9FNK0nD276ewIeCPzV0wzPHVcic5XW1tfP97p4/r2p8OU6dORdSQJAmpLTr9BWuC6rw5kU5wopRbKyxdunTzLzSMZxbxD74xYfRPSFiEwp8hrNkaRkYGeejBRzb/Wjcy8+bNo97IEEyzBbBod5TgBOQfC/9nnmVUyim33noLfb19W0QyGolsbmICEPm7HH3k0WRZhms00Kyww3G+MWDMbdWpok5oZEp7Zzv33n0vN954wxZx4507dzYbRkawiQ+wLnQDZPig6kK5QwVcw1EtlXno4Yc3+zrb2tsBX+JXfBsmIRkr/Iv9rtiL45M0ZXhwmPsefGCzr3Vj87rXv462aivDI8P45yJ4Aaj4joymZ/OoT0ViElSFBYseG7+FRyITmJgARP4uxx1/nEybPo2B4Q3Y1IvLNFQCINxsjb/jilFEFCMJSZpw2mnfHbd1Px122nkncpeHNke80EwVE1TmRTugqoBmlMslnli4cLOv8wXPfy6VaplGo+53va7Y/cqocaGGhEV9p0Kl2sqf/nTvZl/rxmbb7baX7XfcgXq9FoZR+k4H/8pzzaFAGrQAqkKalhgYGuD6628a38VHIhOUmABE/iFHHHEkg4NDmMQ2d13SVKADajDNQKTUaw16eqZy8cUX8uAWMCCop3sqAEZS1GkY/zvaX+6vVzGi5LlBXYLmjqVLFm/Wa9tjt90op2WvQwhrc8UcAKFZ/i58Gxr1Ou1drVxx2eWsX7t2wj8P/4hXH3QAG4aGEBFv/+sIw48kXL42tSkud4gqWZaxasXKcV55JDIxiQlA5B9y/HHHY4zQqDW80jpYshoMqNcAaNh9+fK5UkoTarU6p53+nfFe/j+k3FIBgpeeYbQ3EL/LFBNaAfGV9qRUojY8zI033rhZ1zl95mzpnjqFRqPhtW626FgI9sUajgfyMDNPhNSW6Ovv5/wLtyyHxqeiZ2pI1Ezi43zTstlXnpoawPDYNPKMcrWFkXptHFcdiUxcYgIQ+Yfs8/J95CUveTH9/X1Y74YTprJp6Msu7FjDNwiM1GpMmz6Vn//iFyxYtHBC7z73ft5zqZRTXN4IlnKFm25xtuztgF34OLXC0PAwDz20+XUAB807gIH+AYw1mCxUKoIDoCP8vXApFt8T31Jp5bTvnLHZ17qx2XnHZ2GtDWJAL4IsPBoUO5oAGBM+p7SUKzzx2OPjvPJIZGISE4DIP8V73vVuRur1EA+D+5oWw2eKYUGFO43DOUcpLdHXN8i3Tj15nFf/93nhC15IqVSlluVjhHQaxuoSTHeCyE4sjaxOW2sbD4yDuO65z90TMYLLHRlCrkGQ6STY4hb/A3WORqNGR1cn99xzNz/4/g8ndCL2j9hzr92pVCq4rOFHUhOMj8KLsTmt0oWTAIVy2fLIo4+O67ojkYmKFC1ckcg/Yoftt9e169bS2tJKnue+NB6MV1QFTGGbG3ZnClmWUa+PcO+997L9DjtO2JG028+dq+v6e6mUq6BgrBk121FGd9rWIpoDliyrsWrV6s16TYuXLtY9dtmDxCZI2WCcARGMKeYzFMI4mrtgcUJdGuDg3rvuYe7cuRtlzddec5XecMMfGOzvAytMnTqNN77xjey22+6b5DHpW79Ot9thR1AoVyvN2QzF7AZDYc/kK1PGCjj/mCxZunTCvvYikfEiVgAi/zQnnHgCAwODJEkJjMUYiugYjgI8vlyuOFVaWisMbRjk66dM7CrAvAP2Y2hwmDRNoahq4HeT4I2AlBzJc1BDkiYMbxjmysuu2KwZ9NzZc2XfffdhYEM/qbGMrVSMngaEtYeBRg5HS1pmeHCYt77tbf/yGm679Tbdf/95etCrX8N/f/G/OfVb3+LUU7/JZz/7/3jh81/If3z+85vmMTEmiE/x6kf1xx4aVJBONHSihC4BBIswMjxCX1/0AohE/pKYAET+ad554jvpaO9icGQIY8zoEUAxDyAIARXnXfQE6rU6U6fM5MyfnMl9D9w/YW/CO+zwbJzLMdagpgikvrwhRbu9GDCKao5RGB4e5vc3bn6r2SOOehONRuYnEzb9fn3lpWhbBMB5F0MxQtbImTFjOrfccAMHv/rgZ/w8XHLJZbr/vHn8/vfXUalWmTJlClOnT2f69BnMnDmTakcrX/yf/+F973nPxn+uw3OgwZhJjPXDkHyTZng9hlkIoW0zVwVJcLr5rZsjkYlOTAAi/zRz5syVN7/lGHrXrSNNLZobPyrXBac8TDMWeUc6IVfBJoa8kfG5z352fC/g77Dvvi8nKZWp1WsUvWSuqC0jmDD8R0PJPcsadHZ3c8UVl232tR551FFsM3sWQwMDWH8K493/mklA+FDDtEP1DoEjtRozZ8zh6muvZL95++kTjy94WkH666eeom889FCyrEZ7Rwc2qZK7DM0z8rxBo5GROGGb2TP43ve/zxVXXb5RkwAZ43qo4e+qQfZvNMhPwqRAgk8CAjYG/0jkqYgJQORp8bGPfZRqucKGgUEcWaj++7G0/sYriBg/Lc85bGJoNBwzp03nkksu4aqrNm/J/J9lv3nzpLurnZENI0Ua4ysZ6rsBnBT6BgVxOJS2lhYefehh7rzjzs16TZ0dHXLC246nb3DQDwbQsDZpDmgIx+DaPM0o/jeS1Zk1cyY33XAT++77cr733e9q7z8oj//617/SfV/xcv3Uxz9BqVqltb0NEUhT/IQ+58coO+eH9JjEUq6WOX2jG0GNuRjAaY6SU8wGKOYAwOjRR57nmDy4BUYikScRRYCRp83bjn+bnnP2OWyzzTY0GnWMtcGS1e+8jPrxwS4vptYLaSlhYHCQHXfYgbvvvntC3o2PPfYYPfc35zJ95kyyLCtc58Ea70GvuS+vO1B1tLW2smDhYj7+sY/y1a9/bbNe07Jly3SP3XfHmgSTpBjrMKpk6tMUh2BxwcEwtGtK0bUBxgoDg0MM9Pczbep0DjvyMObOnsPUaVOoVMosXbKcVWtXcdFvL2JhcD3s7OzCqWKt78VPjE+OxBG8IQoRniUxggNWLF+20R6Xvr61ut12O+IyR7XaMuqAJEXlqUjS/MfWGDTPqDccjz7+KF2d3RPydReJjBcxAYg8be5/4EF94QteQFtbK2IEWxjlBNW5Oh/4QyNASAEcLS0VHn9iEV89+at86uOfmnA34++c/n/6bx/8MLNmzCJ3DVSsF5tZg6U5aM8HPJTUWup5nY7Wdh557PHNfj3/8YX/0i/+1xeYPXcO9VqGsQRxnITES9FCqKn4IN3s1PSzDVKTsmGwn96Bgaf8HUmSUKm2Yi1YaymezcRaEMWFqryR8AipINZgEBpZnQfuv5+p06ZvlMdm6dJlussuzwERKtWqd6AOJwBgUHG+ehOOCax4b4Dh2hBPPPY4nV0xAYhExhKPACJPmz12302OefObWLduPaW0HKYBymirnHqPehGvA/BH05aRWsY2s2bxxf/4Lx59+JEJl3ke/oY3UK1WaDQaiAjiFDF+4nyRJ4sqXmdmqGc5lUob859YwC9+/ovNfj3//YX/lB132pGBgT7KSYK6Iglj9Bxci/74IJ8XfJBGMAr1vE5SrjJjxkxmzZrFtCnT6enpZurUaUzp6aGtrYPEQmIMRhKMGIw1wQRCRn82oRVUQHA4pxhj//binwEP3n8/w8MjpGnJX5fPOykmU0jhgzDm2CYnJ0mS4BcQiUTGEt8VkWfEpz/1aarVErV6A/EhsrDP8+1aVoKvfqjUBvfAJE2pZzkf+fjHxvkK/prZc7aTl+3zcnoH+zDG+haz4HGg4pXmhL8XKgGj0FJp40c//v64rPlb3/wWA32DOFXE5U1bXDHewrgI/Ko+MEux9qDdSIxFRMnrDRq1Orlm3kEwV5x4HYGIRUWxor77g/ADmj9LvI2yQCIWdd5MqV6rYdONlwTcfc/d5HlGuVQG5zAioR5RuDWN6gOalki50tPZRUdnZ9z9RyJ/QUwAIs+IXXfdVU468UTWrllFklpSgdy55ujcUIAOSnqadrUjI8NMmz6Nyy69dFx2zf+II448gkatjlPnW8dMaAXMw9GG+BN2315n2FCrMWP6FG668Q/84eYbN/v1HHLIIfLud7+LZcuXkpRLXgxngiWOhuDf9AoozseLTrnQJiiCSS2SGIy1WJOQpIbUJH5EshhEEsTIXwxK8if+xuBbEsELP0spG2o19trzuXR3TdlogXf9+vV++UXbQ9Gk0RT/SXMGgkGxAiMjI8yeu+3GWkIkslURE4DIM+azn/scPT1T2DA4TJ6DNbkP/CrkLg/eAP5rw6gWjDGoNJg+fRof+NAHWbFyxYRKAo488ki6Ozqp1Yd90HQOGFWRC9rsEsidQzDkarHWcuop3xyXNX/ve2fIvq/Yl1WrVlEuJbhcQYOTYfAx8M+FPxZQ/CQ91TEtg+Jd9UQkGOv40r4RL+izJkGLmnvAGBO8H4qEQMlwVEslBgb6OOroIzbqdd58y80YY8myuleVhHWPlTFJcQogINZSqw+z8047btR1RCJbCzEBiDxjZsyYJZ/73GdZ37cOmyaoCsb6HaECRn17oBa7M+fDp6tBtdLC0NAA73rnO8f5Kp7M9OnT5Q1vPJTe3iFKSQnVYugRYExzCp0SVOYOaiMjTJkyjYsvuYjbbrttXBKaX/ziF0yfOoX1fb2USqkfl1uYAqv40n/wMigMjppn+AqCRYzBiCEx1gs7g7JfxIy6DVrbHJboKwsm3EQciRGqaZW+3l523GEHPvDBD23Usvu99/6RSku1aXWME3DGFzzCKqQp0iQMDsqZMXPmxlxGJLLVEBOAyL/ERz/6MXnOLruwZt16kNQHeecFWU7wRwJKaNFSTChHZ/U6M6bP4pJLL+OMM86YUFWAd77rXVhA89x7zbvRQOpn0IezZwFJBCHDKKS2xH/8x3+Oy5pnz5kt557/W4y1DA4OUEpT1PlBQap+rWgOFKI9P0THJzhBG6hepyHqjwYKk30xAgaf3IGvLoSJe4Ujn4jFpGXqONb19nLa/522Ua/vyksu0ZHhYSqlijc3EjDigvWBQXBY8boTDb4I/rkztLV1bNS1RCJbCzEBiPzLnPz1r1Mb2UCeN3DO75ZN0RQeugJwiorXBOQKmcvJsgazZs/i3z70Ye64464JkwTsu+8r5YUvehF9vX0Y25ytGwRx/m8On9yIZqgRannG1GnT/j975x1fSVX+//c5Z2ZuyU1u+nZAuoCCWGgWeu9VFFABqQoqKmDX3xfFiqBSFFQUpLP03ntfqoCF7b0lm2ySe+/MeX5/nDM3QXbZksVdZD6+1g2b5M7MmZnztM/zebj77ru57tprV8u1bL3VVur2226lmC+wcP48CvkIK+IyMokC5ciaogYNpFLaGfg0G1AvAaREQoVXQPaqetS19o12rZ7YGBOF1GpVZs2cwZVXXsFuu++2SqP/u+6/n1ocE4SmntmwKCfN7PQosUOlqEVIbEKpqcAHN3n/qjyVDBn+Z5A5ABmGjb333lvtv/9+zO+aS5QLB/VZ0h5t5chzjhSII9gh1OIagdJEQcBxX/zi6r6MN+HkL51IX7XiavzW1uvKonwJQBwpsC4yq8AmMeXGRr71ne+stvPedtuPq4cefJBNP/gBpk6dTkOu4Jj42hHlTHohvrWxLg7kMzPauOyA1saX+yWdKuRKBaLRWmOM8RkAQy4q0LtgAYsWdXPddddw0EEHr3LG/fgbbiQMDJIk3qd0pSVbVz50h9Rao3WAMoa4FmOMYYuPfnhVn06GDP8TyByADKsE5/zyHIq5BqqVfrRXgdM6TZV7QppolDixFiUKow3VgRrl5mZefPkFjvjs4WtMFuCII45S799kU7q6FhIEfpiMdap3ks6e933nTnfekoilpbWNf7z+D04//Rur7VrW33BD9dRTT6sjjjyCGTOms7i3jzAXYJRy7YLKTdBTyta7NZytV75c4Il11lMf0qK68hkBP2o3nysiWKZNncIGm2zGQw89xH777b/Kjf/9D94tkydOIp/LezKmH/wjaRuglycSqRMalVLUrKVcbmLkiFFZC2CGDEtA5gBkWCVYZ933qf931v8xd+58jAkw6UjaVEQnjTaVdo5BKlgTaGKpMWrEKC7/25VccMH5a4wTcObp36C/vx+jjZfYdxbREerSXvOUHyBIYukfqDBm9BjO/fV5PPrYY6v1Wi699C9q/I3jGTtmDNOmTqW/MkCYz6NNgBZBrPW1/lQnIO2uM2jEd0Aql2pP9ZyAIHDR9ZTJk+nt7uV7P/geTz7+mPrwlh9+Rwzt5ZdehSUhX8yhxGkZ1BUAlRrkOADgrsUYQ093Fzvvsts7cUoZMvxPIJMCzrBK8fGPbyNPPT2Bkc1tVCVGjEZ5XoCL3fDpZPE8NM9Id2w1FnQt5IbxN7LHnnusEVHbJptsJpOnTqSp1Ag28S0OzuynzHjAX4dFowlMQFdPD+us+z5efH7CGnEd5/76HLngwot4Y+K/yAV5Sk0l8lEetKJWrWIlcYx6o7BKo2yCVgqtQ6xxtf4kqbBoUYXengW0trdy2MGHceopX2bDjd7/jl3j3HmzZYP1N6a/VqW5sQFJLMqXJ1S9599LUAM6AZSm2FRg8sSJ/PgnZ/ONb3xjjbgHGTKsacgcgAyrFC+/+IJ85KMfo1xuddGkdgRAfDlAUqlgT0QX6zdy7YiDlcVV+uMKTz3zJJtuvMlq37ivv/Y6OeiQgxk9ajSJrYC4erqIoJXC0QO8gyMuw4GCKF9g+rQpHHzwIVxxxRWr/TpSXHbpn+WGG8bzwMOP0tPbQ61Spam5TD6KEEkQDCSAViRSY2BxH/0DFYJcnnK5xBabfYA9996bQz99OGNGvfOp9V/86ufyjdO+SVt7uxvOpD2734841iknA6daqCVAlCJQiq7ebh5++GE2/+Dma8z6Z8iwJiFzADKscvzyV7+Ur5/2dcaMW4vqQL8ji3nlNqU0KftMidQjN6U0VmJCFdHV08V666/HC8+/sEZs3Lvusas8cv/DNLc1k8QxSgd1WWA/b8/X0h0xLTAaLJggYOrUqVx8yR845uhj14hrSTF37my57dZbeO3fb/D8s8/x8gsv0t/fh8WNcQ60ZsSoEXzwQ1uy/rrrsP7667PbrrvROfK/W09ff731ZOLkybS0tKNNghJTj/eVMhjvRFoFxj9TKgipVCp0jujk5ZdeWqPWPUOGNQmZA5DhHcEuu+0sDzzwCO3trSS12BMBBccwV26KHF5lz7ooznihuSiXY8asmezwqU9x5513r/YN/IUXX5Rtt9qahsZGtMaPPtbgZ9GnUIBVmkDh2h61s07zFyxg/Pjx7Lnnnqv9Wt4O3V0LBU/YtFZobm5ered7wfkXyEknn0R7exvaGsQojElJixrBzQNwJRk/CVAUhUKBKdOn8tWvnspPf/rzNXrNM2RYnchIgBneEfzp4ksolQos7l+MCYxXoVNebMb3mafa9BqUduldtGJgYIDRo0Zx1133sN++e692D3XzD35QnfntM5g7dw5RLnTnmwobKVXXxne9gpbEWmIRrE1QxtDU1MRBBx3AE4+vXlLgslBublHlclk1NZXV6jb+AD//+c/dJD8UsUpwLYlO/KfeueAKAy4DoyDRQtVaAqU5cL/9V+fpZ8iwxiNzADK8Ixg7bm31pz/+kd7uXpTSCIlro9NpN4BTChR8acA7B1hXDuhfXGHtddbmpptv5agjjljthvM73/me2upjH2XO7HkYFYC1WPEaAVbSNnvfFeBb07QiiRNyuRyFhgYOOPAgXn/9tdV+Le8GnHXWWTJx0kTK5RaSxBl/lznyeaM6+VLq46cQCHTA4t7FbPKBTdhq2+1WuxOTIcOajMwByPCOYf/9DlCnnPIlZs6YQb6QQ0jccB1JwFqUHVRxq091S/9SUOkfYK21x/HXyy/npBNPXO2G83cXXIAV6K8NeMVDz2VIWxoVKC9TqzQgglZCHNcoNTSwqLuHPffYi4kTJ672a1mTMXXqVDn77LOJ8nlXcjEB2gR1ZSn3lEi9tTR1vtCKKIroXjiPgw/99Gq9hgwZ3g3IHIAM7yh+fc65asedd2LmzFlEQQBKI+L19RX1yXoiboa82MGNHSCu1Bg5ajQXXHghJ598wmo1nB/e8sPq1+eew4J5852F935LIkmdx5Aq7JGK1Hi1vLiS0NnRysyZ09lll114+cWXMidgKTjttNPo7e2llM/hySIYTx6tKxd6x8smjkditPv3WBKam1s54jOfWd2XkSHDGo/MAcjwjuNvf7uMzs4OFvX0EARey11pRECseH2AVCnIb/SeEGj9cJexo0dz/vkX8fkvHL1aDedJJ5yoDj/sUObMnU0uF3mV3NSJoa4PAH7ugfUDd5QwUK3S1tHJrNlz2XGnnXjk4YczJ+A/MP766+Saa66h1FBGYRAtBFo7nQLxz0q6aylQxjipaa3J53LMnTWH/Q7cj7Fjx2bp/wwZloGsCyDDfwUPPvSg7LLTLjQ3lwmjiFpsCRwzYHDUrFauzptYjNYkSF2OFmUJwohpU6dx2MEHceU1167WDX7bbbeVZ595ho7OTpI4cTMOlMVo5RjqSVIvazitI5cZEBGCfMTinl7iWsyVf7ucffbdLzNWwLz582XzTT/AvPlzKZaaCAPjtSIcr0IH2ov+AGg3WVILWhRojdIBXV0LefqZJ9low42zNc2QYRnIMgAZ/iv41Cc/pf52xd+YO28eNkkIFPW6ueDmBoB1HAEg8aUA5xm4jEEcx6y91lpcde117LfP6u0OuObqq+no7GThwi6CMPAyuk4i2FrrR+T6GfX+QhWKQBuSWkKpoURjqZH99zuAn/7kJ5kXDhz3xS8yY/ZMio2NYDQECp8IcjMIGJQsVsp1jVgriNJEuRxTp03lpJOOz4x/hgzLiSwDkOG/im988xvyi5//gnGjx9JXrRIEysVyXi1w8HmUwQ1fO3IdYrFKiIKIGdOmsv1OO3H99dfR1FReLRv+4088JrvsvBNhkKdYKBLbxJ2r70sHJ4DkIlgQsWgNYEiSxM0YUDBr1iz2228fLvnjH2lrbX9PGq+LLrhATjjpJBqbSigdktOGINAkShBRBEbXZ0qQll2UwiYJhVzEQKVCsaGBF16YQKm0ep6HDBnebcgyABn+q/j5z36uDjn4YKbOmEaxIYcIWBnsBkjr525/99E/QmJjxPfdV2tVxq61Nvfddx/b77A9L7708mrxYrfZelt14w030T/QR09fN1FoEN+jZjBoz2cQvOSxgIhBBLQ2iO9lGzduLW668Wa22WZbbr391vecR37XvffKKaeeSqGUxwQRYWBQRiHKTY1MuywU1NdM/LjC0GiUUsyeO4+zz/5pZvwzZFgBZBmADKsFe++9r9x6682MG7c2lf4BR+RCUHowba6UQpQ4o+r7wN03XaYg0CFzF8yjsaGBv13xN3bdZdfVsvnff999csD++1GLY9o7RlKtVut6AKjEdTgAOq1qKKlHstq3DWpj6OpaSG/vYo774nFc9PuL3hOG7NVXX5Ott96avv7FlEoNgCYKQ5858aOJ/QhgLTinQLmx0mhFLp9jxvSZ7L7Hntw4/vr3xJplyLCqkGUAMqwW3HLLTWrXnXdm6tTJdTa91hol4rTdlO8MkDQzYOpja1PhoDip0dHejqDYc6+9+N35F60Wb3aHHXdU99//AKNGj2bqtClEYeg6AJLEZwSUj169EJKkjAANCNZa4mqNpsYyHR0j+f0ffs8HPvgBueWW/+1swMIFC+WQQw5iUe8iSg0llBg3RyHlhaQlIBHvEBrHtdCAUgRBSLVSo5CP+M2vf716LyZDhnchMgcgw2rDnXffrXbcfnumT59GIRdhE8emryellGAt6HSOQDpP2NUNUEB1oEouMHQ0d/Clk0/gkEMPXS1G80Mf/rB68MEH2P5T2zNl6mSiICAIDYkINklcQ4BY7GCfoG8S8Jx2rbFWCALF2NGjmfTviey7z74cfOAh8srLr/xPOgIHHHQgr7zyd5rLzSgUYRChtPFaEALa+p90JSGLdfMWfFdAFEXMmD6dc391DmutvVYW/WfIsILISgAZVjs+tf2n5OGHHmatcWMYGKiiMBAICotY48a9+rS5xmvDeEEYKxYrgjEGoxUzZsxkq499jN+dfz4f/vCHV4tR+OKxx8jFl/yRtvYWCsVGqpUagRGSGFDWRbdqUDcAcZ6N0dr7NpYwDEmShFlz51DI5Tnt61/na1/7Gi3l/40a92577Cl33XE7pVIjYRBgwgCjlJ+uiB/560pCaf3fikUFAQbIRREzZ81h55135Oabbv6fWJMMGf7byByADGsEtv/UJ+WhRx5jrbFjGOjvAwwqcAx6p/Munv3tWOFKXC3dzYJXaK+6F4Qhs2fNJAxDLrjwAj531OdWi3G4/rrr5eQvncS8BfMZ0TEaUQlIjFiNFT/UJp1/UFdArg+6JaU7mDCir7ePhQvns+6663DaV7/KSV865V1t8HbffXe58847KZSaiIzGBBpjDFqlXSBeRVErn/DxOgAKRxDUIdXaAEliefH55xk56r87ojhDhv8VZCWADGsEHnjwIbXTjjswbdo0coUCKEta8FdK6kOE0kE7klaJlfbseie0U6tW6GjvJJfP8/nPf5599t1bJr7x39feP/CgA9UTjz/Jvnvtw7w5M1jc04MxeS8PzKCgjWtqd5LB2hEf0+xAkmjiakw+ihg9ehxz583n5C+fysYbbyznX3jBu85znzN3rnzyk5+UO++8k6bGMoVcjigIMFrXMzpaaWf4lRsIoTx/wk1dBJsARpg/fz5//NPFmfHPkGEYyByADGsM7r77brXzrrswZcpUoiiHVgZrwWsD+Yg5TaE7E6rEpc7dTAGLNpqaxOTCkFEjRnLLzbey9TbbcOmfL/2vG8y111lbXXf99eqaa65jo402ZurUKQxUKkQmRAcGbbQjNloZjHQtfo4AaG0RZUkQ4rhCKV9k9MjRTJ08kZNPPImNN9pIfn3Or2Te/LlrvDPw4gvPy6e2356HH36YxnILykAQ4NZBGbTfigaH/OJFgASjTb0DJJfPM2XiZM74xunsvec+mfHPkGEYyEoAGdY4HHTQgXL99eMZPXosibVIEqM03iGw9QK6Uo4DkObQlS8VaK2cGp/SmDBg8eLFdC1cyB677sbZZ/+YD35oy9ViOC6++GL53e9+w0svvUKh2EBLYyMoQ5wMYFEYJVhRrsThJ9wlTljY18Bdx4DWmsAYenp6WNTTQ+eIDj772c9y3LFfZOP3b7LGGcVbb71djjzqs3QtWEhjuYzRmsD376Nd6r/eF4mv9iipD1JSCpJaQrFUZNaMWXz8E9ty5113r3HXmSHDuw2ZA5BhjcTp3/ym/OznP6dzxCiiwGCrMYlJ1QE9C9B6Zng6IlbEtROiva4AJAkEoSEQzbQ5MyhEEV//+tf40Y/OWm0G5NK//Fku/N2FvPTSiyyu9jOirYNcrkCQNwz0VbCJOB9HK5LEYvD98Lj/1kqwAtootGi6e3tY3NtLQ6mRPffYnYMO2J/DDv/MGmEgzz77bDnzzDMJo5CmhgZqVgh0gDYabVytH63wbf1oIJHU+Dtuh7WWMB+yuGcx7e3tPPnUk5TLzWvE9WXI8G5G5gBkWGPxh99fKCecdDKtzS0UCg1UKxWU8SLBPlsOtj5SGDRW2bSzDoXBkrhue2VQGioD/SxcsJCNN3k/Z55xJkcdeeRqMySPPPiAXH7l5Yy/8RYWzOuiVqtQLjeRy+eIwpAwymPjxGU5JPEthbZ+PeDUEcVqwlAzUEmYN3c2AJtu+n4OP/xwDj30MDbYYMP/+jXOmDFDTjjxRG6+6SYaGorkoogEMGhX+vAjfl293/+SHar655wAAwRBQM3GzJ27kEceeoiPbvXRzPhnyLAKkDkAGdZo3H7bbfLZI49koH+A9vZ2+gf6CXRQVw7Eui46rQbJga61ziWVDQrRQhwn3uAICsOihT0srixmm2225ozTz2Df/VbvRL7x118vzzz7LPfcczf//vcbVCoVent7ASg2FAnDkCAI8TNw6rVyFfjpg14pTwtYLSzq7qavv0KxWGDX3XZnv333Yb9996HlvzBr4Pobx8tXTvkKU6dMoampicAEKKP8TCdTn44YGOM7IKVO+EQHKO2yO4IlNDlAmDl7JuOvH8/ee++VGf8MGVYRMgcgwxqPV15+WY763Od47rnnGDV2DMTWt9JRF9IB8KExIL5N0A0RErGup1ylGkJSr0EvXDCfuFbjE9vvxNdP+yp77rn6Dcy8ObPkiSef5rlnJ9Db28u/p/yTGdNn0TVvHgu6F1GpVH0ZwDsB2mkK2kRAuYyIMgFKKZK4Rk9PLyg4/Zvf4P/O+sk7dn2zZs+Sb33r2/zpj3/EaEW5tRVbswRB4Icgub7+1FVTyrMbvENgEbR27R5GlFOGNJopU6Zw+RWXc/hhh6/2e5Mhw/8SMgcgw7sGhx52qFxz9TWMGNGBkYDY1lB+SpxS2k/ccQQ6PzIGSOWDXUoZFGIT0O7nDIZaUqNrwUIwAZ/Y7uMcf8LxHHroIWussenq6hKxlprUSCqWWnWAqq1hY8EYSGoWHRjCIKRQaCCfj1BoGstN79g1XX7l5fKtb36LKVOnUGpoJAgCVAAimtC4oUhupK/24j6CiEWJ9gx/p+mglUGUwigIw4CJkydz3rm/5sunnLrG3o8MGd6tyByADO8q/P73F8qXvnwq+VyelpYmqgNVrFaDbWRpVmDI7FiXZU6JAco7ApDYxDsLbsBMHAuLFs0jriZ8ZMuP8IVjjuazR36WcuM7Zzjf7XjwwYfkxz/+MXfddSeBUTSVm52kcRh4zQNH4tNuprObf6BlMHGTemvpiF/R6EAIlWbS1Gn85Cc/4YwzzsjWP0OGdwCZA5DhXYdHHn1ETvnSl5nw/POMGT3Ktc55FnmSpvt9lVw8yzzNDrhMQJot0EhiEaWcRn8So4IIsTW65i8gFsuYsaM59JBDOeLIo9jyQx/KDJHHE489Jueedy5XXn0NiFBqaiQwGqMNgBf3MSitSES8UqOf7KgZMgoJxN8LNATGYJRiypRpnH322Xzz9NOzNc+Q4R1C5gBkeNfi2GOOkT/++c+0lMsUGxuIB6pobdxAIaybJ6NSkqBLQ1tJxXbBkwZ8ssA5AgIYVylAoVncu5ie3h7y+Twf+9jHOPSwwzjowP0ZOXL0e9Iw3X7b7fKXv/yZa6+/nrgWUywWXbpfgdGu1q+0dnw+o0EbP71R6pK+aQbABf9OzVESSxgFJCJuwM+5v+aUL7+7JY8zZFjTkTkAGd7VuOGG8fLVr5zG5KmTGDVqpGP/W+snCrrhMm6aIIi48bxSjz1d4JnK8bvugVRYyIvxiCYIFAOVCgu7F5DEQnNzM7vuvjs7b78j+x+0Px3tHf/Thmr+/Fly1RXXcOlfLuXpp59DEBoaikRRDmvF9fQr39evdF3uWMSCV2l0PpZ1zoBrY3BZGmMQUUShJo4TZs+ZzSWXXMJRq2mGQ4YM7yVkDkCGdz3mzJ4jp532DS77219paizR0txMLU6cIwCeXKb89D0f8acOgP93TwsYFBnCOwUCVhJn2JRT6RsY6KdnUTcAzc3NfPJTn+ITH9+OA/ben/U23uB/wnAtWtQlt992B7ffcSc33HgD3V1dADQ2NhGFAdYKJogQiV0Lpg68fLE39rgyjDP0CozyY3ypy/o68SZFsZCna1EPA/19XHP1Vey+BnRiZMjwXkDmAGT4n8HNN94k3/7ed3npxRcZOWIEYaCpxpC2nCksie851z4KdbK7LgUgdpAsqJSLVMUqRBI8Sw3EYr1ATZJYKrUBeha5fv3GxkbGjVuLvffek0033ZTdd9+Nzs6R7xpjNmvWLBl//XienvAsN99wI/PmzQMgny+Sy0eutTCxmMC36ikQ5Wv5vv1SlPL8C1WXbBZAa+OzK5LWZDCiyJcKTJ8+gzFjx3HZX/7KVlt97F2zXhkyvNuROQAZ/udw5hlnyK9+/RuMWFo7OrFx1UnnBsqXABKUMmDFawXUw//BsF+56NWiUOIGDblRA86ACWmiQPvfsQwMVBioDFCtVADnEIwePYo999yLjs4OPrndx9l0s81obmlZI4zczOnT5YEHH+Dvr73G/fffz4svvEhPTw8AUZQjn48IwzzWd0ukk/qUb7UEH+mnegSeQ4Ef0Cw4XoVBD/l5674baMIgz5SJb7DTzjvxl7/8lVHZZL8MGf6ryByADP+TeGbCc/J/P/gBt99+J4VCkeamEkmSkHijb1NdgHo7mqSUdBfFauX/Sbz0cFoaEMT6jAEKZV3C2+K/rTRaKWwtoa8ywEBtgKRSAyDMhRRyeTo7RrD1NlvzvnXXo7mlxOabb85mG3+AQr5AU0t5lRrBRd1dkkjC319+laefeoquRYv49z//yd333Utf72J6vNogQEOxSL5YdK17SQy4AUxau4j9TXMY6o6Sr+e76cwOQl3hT5P+LohVWC3kcwUqlX7mzpvHl046iXN/fW5m+DNkWA3IHIAM/9O48cbr5Uf/78c8P2ECpcYSTY1NWJuQJG6SQNoR6DiDCuXbBa2vXSuoD+JBuWjXelXBtH9dxLe3pcYwdSbQJMYSeINYrVSI+2vUqFEZqNXPUWkoNTaiRdPc3Mx6672PsWuNo729k4ZiEaU0GkuYy9FYakQHAVZiRBKSaszigSqxrSKxwsZC7+LFTJ74Bi+/9ipzZs9GJKZ/YIBaZfCYQaAxYUguKhDkAqhZtG9/UCi0dk6SdrUQYEh5hMEMgMWp+KV6Cm6ZUhLloLqfW0dNmI+YOWMmreVmzj//t+x/wEGZ8c+QYTUhcwAyvCdw4UUXyTnn/Ip/vv5PmlubKZUaiGsxqaKw+Ehe+bq1FTdHAAXWVwBEC0o0WJs2CtRnDtRFb8QOEg6t6ygQo5DYon1nggnTUNkChv6BXhJrsWKpVi1xtbJKrjk0GqMiF4FHhmIuwqLBJk4NMQhRShNohVWCFlfPV0qRiKvlawTr5yzUOyXqYr7ia/zOYajLLvktRRtAFBYo5gv0D/Qzd95c9txtd84571zWfd+6mfHPkGE1InMAMryncM4vfiXnX/Ab/vXGJFqayjS2lLFJlWotcQba6wgoR19H4e19Pe2d8gB8u6B2Ea9gncSt1x4gcVwD60faCtYRChGMdn9bFEb5lkQrKA2JuBKCEzRMSCl1kArmuDS8G6yj3UREsS4rr5TTMvBExySJIVGI1pgAsE4oSavB+YnuuhzRUSvj0vbG9+ZbW898uFq/5wCgwFrnAGhQmCH8CNwIXw1aWXJBjqpNmD1tJiNGdXLWj8/mc587KjP8GTKsAcgcgAzvSZzz61/I+b85nzcmTqK53EyxVAQgiRMvJIRP+af6AO73VN10eXa70vjuNmegvcJdKm1rxaY/XodSuq5WKD5iFnxZIeUY1CfiyeDvKFDWYq3jLyjfWqd8b737TGfwseJUEJTnLxhP1BPXyuiuLa3hp417ui6cJAp0Oqe3Xu5Qdd6EuJNDe6dH4dT8EhFCHRCGBgHmzJmL0sJnPvMZvv+DHzB29NjM+GfIsIYgcwAyvKfx23N/J3+89GJefvElTD5PW3MzYRhSrdWQmiVR1mcCUkbAoLFUPqp3+gCeU6DSujguQaAcZ0A86VDSmgHOqKethUPT6+lnicWN0XXtCHUjb30bo8tM+M/TvlshZdvbND3vodLWPOd8aBTpjyvrshFKu0wFCiQZHLFsHbHBZTaUwqVIfDbDBM7JEUGjCSKDEkV3Tw8DA33sstNOnPmt77DNNttkhj9DhjUMmQOQIQNw7bXXyGV/vZz7H7yf3p7FtLW2UCwUiEWIk5qntYPTFFA+7Z+KCnktAd8zIJIq3TFoVOXN7oOStE/efWraQIeApGONxXcX1H/e/YBIWnpwXwtpgJ/+/JCSgWhfTrB+AqI36vXpiM5TSUsXVgnKqkEPRlG/1sG2R6/t79MFAkS5gKQWM2/hAowyfOQjH+WrX/sq++6zT2b4M2RYQ5E5ABkyDMGLz0+QP1/2V8ZfN54pUyYT5nO0NJUJgxyxjRErTu8+xg0hMtYZUzRWElc/F3y3Oz69DvUxxVa8+JBCaedApPIDg5C0/8D5AUjdHgt4SYL094cM2cFZcfHZAhgk5QmJz+LrusyB1nU/g5TNmE5KFO+qKFKlRI3RIIlGVIxWhjAMQSyL+xYzv6eLpnyJnXbZmaOPPpo9MzW/DBnWeGQOQIYMS8Ff/3Kp3HDD9Txw/8Ms6FpIQ0OBUkOJXL6AtTGSCNbPtVWisda6AFlpbGIBS0qPT6N+SccUp+V1cU6A0oOdAYIaIl3s6/UwWIf3Q3WsGmy9T9vxfD2AdN5u2uKo/fQdjUaUP2bqCWBSNgJpf78T+9F1foDFkRm1NgRaUbM1enp6WLxoMSNGjGD/gw7iuOOOZfPNt8gMf4YM7xJkDkCGDMvAxEkT5ZprruWuW2/h+RdfYP7CbqJcnqa2Mg1hjiAIqMY1JLbESeLKAClRz0fYopQn1bmMQVqDB5eqTw1uvfeeJUT+DJIQU/U9EbDYIeQ8nz3wkrzgiIiO7K/rvysqTf2L1/VRLjuhXEsfjhLo2A7aEAQhtbhGX99iFi5YSHNLC9ttsw377L0Phx12KM2trZnhz5DhXYbMAciQYQUwadIkufaaa3j8iSd48IEH6O7uIk6E1rYW8rmIKJcHgWqtShLbuiEW5Ul9fkJevUyQ6hAohRlSd0fczzrGvvJxvXinwavyKcHGgjIqld6rp/DTcr2kkgXanYD1WYg04ZCqGqJA+XZHpQ2hJ/P1Vwbo6VnM4sW9NJfLbLLZpuy1514cesghrL/B/8bgowwZ3qvIHIAMGVYSc+fMljvvvpsXnn+OW2+6lakzp9Hb04fShnK5RBTmCIIcUc5gE0strnoNIYtYIVGgrcIEmsQOcgIHlXYHo/m01a7ePKhSaR6nXig+1aDQuOYC92EJ4L4QJ/6jcSUFpZEkwQQRxgTkooAkgf7FvQxUa3R3dxFFIQ2lRrbbdmu23XYb9t93PzbedLPM6GfI8D+CzAHIkGEV4Y1/vyG33norb0x6g7vvvovp06dTrVTp6+sHpWlrbUGHIRpNFOYwxjH+40rs+PtWsFiMVjilYovGlQXAOwcyxElI2wpdCz6iNMprFzjdAPc9bTTKCioI0IEiMAGVxX0kxFhrmL+wm9pAH8VCA7mGiHXWWpfddt6RzT64GXvssQ+trWvG8KIMGTKsWmQOQIYM7xDmz50nTz77NM8+/Qzz587msUce45+TpiBYKr19DNSc5G8+l6OhoUQYhFglBCaoR/EaQ8rFSxUCUYL2YkKuaOC0A6xXCLS2RpxInTBYjWOSOGZxfx+1ShUTBJQbywShodTYwLZbb8e6676P979/E3bdbSdaWzsyg58hw3sAmQOQIcN/Ed3dXTJr9myeeeIJ3pg0kTiBadOm8vSTTzJr5hxiiVFAnMTESQyi3dc1N8hHvKiQqxE4O22MxpiAIDAExqC0IghDN89AoK2zg3XXex+bbbIp+XyRlpZmttrqY2z8/k1oXUNGE2fIkOG/j8wByJBhDUF3d7ckcYW+xYuZPX8eC+fNp7e3j0W9PQwMVKnGVcQmqESTkGCU6/nXuZCmUpHGYiNN5SbaOjro7BhBIZcDJTS3ZAz9DBkyvBWZA5AhQ4YMGTK8B6GX/SMZMmTIkCFDhv81ZA5AhgwZMmTI8B5E5gBkyJAhQ4YM70FkDkCGDBkyZMjwHkTmAGTIkCFDhgzvQWQOQIYMGTJkyPAeROYAZMiQIUOGDO9BZA5AhgwZMmTI8B5E5gBkyJAhQ4YM70FkDkCGDBkyZMjwHkTmAGTIkCFDhgzvQQSr+wQyZHi3YOrUydLd3YPWAUoSRFtEDCAERlOrxWjtRvM2t7QyZvTYbAhPhgwZ1lhkw4AyZFhOnHTi8XLxJX8in8+TxAmCoJSz8VopYpuQCyP6+vv4zre/y/e+/73MAciQIcMai6wEkCHDckIbQ61WIwwDTGgIoxC0QhGglCYwEVGUo1aLSWyyuk83Q4YMGd4WWQkgQ4blhSiUUuSiPFrXQEEoAIIClFI0NBSZN1+BZMF/hgwZ1mxkDkCGDMsJrUBEQMBVzhQaUFqhtcb6koCIgLar+WwzZMiQ4e2ROQAZMiwvfL3f/S1obVAASrDeKUiSlFOTZQAyZMiwZiPjAGTIsJwYJMwKSmvAIkqh0CjAaAMqNf0ZuTZDhgxrNrIMQIYMy4nUARDl6v1KaZSP/o1OuwG86c84ABkyZFjDkTkAGTIsJwaT+8qTAFzeX2sNolxbYNZWmyFDhncJshJAhgzLiTSmFywKQQRfAsA5BCKIcq+UyhIAGTJkWMOROQAZMiwnVFrdt4IohTaghnD+lP8JBUhWAsiQIcMajswByJBheZGq/mntGgBF6h6AiDjLrxXCUMJghgwZMqyZyByADBmWE7bOAtCAIGhAOzqA8v/sA//M/GfIkGFNR0YCzJBhOVEvAUjiI3yp6wAoFCSCje2bfjZDhgwZ1lRkGYAMGVYYTvFPIb7bL638A9a/UipTAsyQIcOajcwByJBhOaG1r/ejUUqhnTYwSpTLBWiFqefUslcrQ4YMazayXSrD/xwq/d3vSAlefFCvAbEWa9MSACiRelkAXJkgQ4YMGdZkZByADHV0LVwgPYt7qcUxDcUGojCipaVljSxmdy/qkkXdPXQv6qaQz9Pa2kpLS6sCyBXK7/A5C0rj1f5cJ4CkZQDveqh3OQtwUXe3WISBxYuJE0u+mCMMQsrlNfN5WFPRtWCBTJw8ie6FCzHGMHbcWrS2tFJuaV6l67iou1sGqhVmzZiG1oZycwulxjItze/0u7B86OvtllosDFSrDAz0E4UBxWKJcnnNOL/3KjIHYDnQ1dUlKHkTtdvNg3Hqbyi38Tc3D/+lXrSoW5zAnAUsoOvDZxzz3NHNtRKamoZ3vHvuuUceeuRh/vHqqzz0yMP0Lu7DxjEiYEIDoig3NsvW23yM92+6MVt/dFv23GuP1fLCPvPUk3LLbbfz0ksv8fAjD1MZGCBOLEmcEJgQE2iiXCTbbb01m2/xIXbebQc+sd32q/RcB2+/mwPgZICVN/bWPQYpBWCYSkDd3d2ifGuhu+dSPwlB0EphxYLSNJeb1ayZM2TkqNErfdBZM2fKjTffyKSJk3jk0cf4+6t/J67EiCRYEXRgMApGjhglH91qazbecAP22XtvPrD55qtsjbsWLhSlB591cKUVJ7TkBJhE1HI7pdOnT5VHH36cv//jNRQKsTGbfeADHHzQwW/5/e5FXSLiuB3YtOPTvW9pS6dSECcJba3tb3v8q66+Wh599EFuuuk2Fs6fT7Vao5pUCQNDoPPkcwGf+OQnZZddduGkk09e6fW77/775MEHHuTe++7jpRdfJLGWuFZDG4MJFKEybLjxxrLjjjuxy847scOOO/3X3t2eRV1y9z338OKLL/Haa6/x+GOP0rWoB2uBJMFoDUZTbCjKBzffnC0+uAWbbboJ++67H03lpswp+G9BfOoy+7PkP4cedrg0NjZKS3OLNDY1SdOQP41NTdJUbpTmcrM0NTXJ7XfcLsM5VtfChTJmzBhpbGyUpnJZmhqb3J+mJmlqKku5qUnKTWVpamqScWPGrtSxXn/tdfnG6WfIuLXWEqXqO62EUSi5fE7yuYLkCwUp5AuSy+UkiML6zwAyetRI+cpXviIvvfjCsK51ef7Mm7tAfvmrX8omm24qJjD1czChkSgXSbFYkGKxQYrFkhQKRcnnC4PXEwayySbvl1/84ueycOHCVXKuX/7SSQLIyFGjpLOjU0aM6JCRnSOkc8QIGTFyhIwaNULWWXdtAeR73/3uSh3zlVdflvU23EDK5bKUmwb/NPn73tTYKE1Nje75ayxJZ2e7BEEgxxx51Eod7w8XXyw777KLNJZKb7rPUS4nuVxBig0laWxslGKpJIViUcLc4POQz+dlyy22lHPPPU+6FnUPa43P+vGPpbGxUVpbW+vPfPN/vG+tba3S2NgoP/7xWUs9Vnf3QvnNb38n2273cWloaHjTNQFy0AEHvOV3F3YtlNFjxkipsVGayu69bmxM33G37uWmJmkul6WpsVnuu/feJR7/3PPOlfXWW79+LIWSKJeXUqlRyk1N0lQuS7GhUQqlwfNaZ+115Pe/v2iF1u6cc34pm7z//cKb3t9IclEkjQ2N0thYllKpJA3FkkRRJIAEQSif+uSn5Kabbn5H39s77rhDjj/ueGlta33TuiuQXD4nhVyDNBRLUiwWpdhQlMKQdxaQ1pZWOfHEE+Xpp596R88z++P+rPYTWNP/HHzwIQJIQ8EZxHwuL7lcTgqFvOTzBYnyBWloaJIoDOXOu++S4Ryrq6tLGhpKYoyRfKEg+UJRcoWC5HIFyRfykisUpFhokEKxIKXGxhUybAsWLJQvn/xlyUe5tH9NGhobpLWtXdpa26S1tVVa29qkpbVFmluapbm1VVrbWqStrU06R3TKiBEjpKm5LGEYegMbyRe/eKzMmDlzWNe8tD+/Pe+3Mm7suPrGEIShNDeVpbW1TVpbWqS1tU3a2tqkta1N2tpapaO9Q9rbO6RjxAgZOXKUtLW3S+Q3l3Fjx67wJrukPyef7B2AkSOls71DOjvapbOj0zkAnSNkxIiRsvba6wgg3/7u91b4eFOnTpP11ltPAH/fi5LLFaRQKEqh2CCFfEFKpZI0NTVJoVSSlha3ye6x554rfKzf/vY3st766w9Z30BKTWXp6BghbS3t0tzcIq0trdLS0iotra3uGWlpk7b2NukY0SmdI0dIc1OTRFEggKy1zvvkkksuXuk1/u53vyuAlEolicJIisWiFAoFyeULEuYKks8XpbW1XQD57ne/s8TjnHvOuTJ27Jj6NekgksbGJmlvbZcRnaMkiiI56YQT3vK7CxYskIZig3d88s6Y5nKSzxekUCxKsVhyzkFzi0S5SB5+6KE3fcaNN94km266Wf24jaWStLa2SUtzi7Q0N0tra6u0taXPa7u0tbdLR2eHdHR0SkOpSQDZ/4B9l7l2f/3zpW9yMIoNDe5daGnz70OrtLe1u6/bO6S9o0NGjOyUkSNHSltrq2jt7tWXTjp5lb+z1113vWy11VaC0u55ykXS0Ngo7W3t0u7f0Vb/DLW2t0lLa5u0tbZKu1+LEaNGSUd7m5Qa8vX3/cgjj5IZM6e9I/tL9sf9yUoAy4BWCqUUDY2NJDZxyd/EokMDGCyWSBsW98gqEIAXgtDQGDUShRHWJog4gpn1mvMmUCSxk6NVevmO98gjD8sxR3+Rf/zzdfJRnpa2FlAQaO0+C3eNKD/YVjspW601loRanIBYAqVpbiwTBAEDtSp/+MPF3H77nfzh4otl9912XSVpu2efmyBfOfUUHnnkEQDK5TJogxLQSmO0SwsnVtAotNIoPZiel8QSE6PQNDc1EjY109PdzXHHHc+Vl18hv7vgd2z8/k2Gda7Ouii0BYzC5Yx1mjAGwKzEs3DAgQfw73//m9bWZrf+xtUTxApau/uhMSRiaSkUmTZtKvvstTc33XLzch/s4Ycfla+f9lWeevpplIJisYEol0OUoJTGSoJS4s5fawwKUYKIwoi/egGxCVEUYXIhRofMmz+HY445luuuHS9/uexS2lrbVmgBtHKdFaVSiWquijEG6yQV3TGVopAvsnChQhvzpt999tln5ZRTT+WxRx9Fa0VTuRmlFIHSoASLYLQjbSb2re2ZxmjCKKSkSuSLRZQSJAHEIhqMMu5dUxqbDJDEcf13TzjheLnoot8D0NzYAsaHu4AJAsQ6Mmj9/VLKsUmt444UGvI0FArcMP4mdt99V7njjrvesm5dXV1y9OePZfyN12ECRVOpARNoRBtHTNWgtUKJWxvN4AZvE4WVhCCMGDGiA2sUvz3/d8yaOUuuuf7aYb+zUydPlpNO+TK33HQzAIXGBnJh6PZIE5GI9QRZf5+NRkRQvs4iImDB2gSlDflSIw0NDVSqlr/+9S/c/8C9/P4Pv5c9dtszKwu8A8i6AJaB9EUCVxsUpdBBgBKF0ZpQabQybttPhsv8ci+KJJ4D4PXl0drXmQUtCmMUYi31t+ptcNPNN8uOO+zIP/75Oo0NTeRyBbfZJgoSVfdZFI64ZrTCaIMxCq3xRsddo9IaCSG2lkgrxo4Zw7w589ljj93505/+OGza23XXXS+f/MTHeeSRRygVipRKRVTgNPfD0BAY7cfwqsGvtWu/U0rXNz6tDYhGEkvV1ohyOTo6O7nvwQf4+Haf4Pbb71i5c003MaXcpqbS7n9Xtx5SscYux70Zit1221Weefppyi1llGgCEzphQQUmMF5+2BmXQrHAtOlT2XHHHVfI+F9zzVWy007b89TTT9NQKFAulSkUcxitCFRAZMBoA8agjHFGxQBo95woL4PsDbMoUNqQxDVKxQKjR3Rw2+23sv32OzBp4sQVWgBX3xeQVGYZAqUxOsBogxZQyg1cGvrc33LDDbLD9jvy2KOPUiyWKJUaiQJDaAxiFKI12mhCE7i2zSUdux4R2focBxGpXy8IWCEEbE0IchEAu+++h1x00e8pFPKUSmVECdpoAuP4ElrhnBXviDilaIX266mVRlvBkjBuzNrceefdHPOFo9+0blOnTpEdd9yB8TdeRylfpLHQRGAijA4JwhATGoxSGJXGH9YFDSi0f6kDZcAKSWKRSo2x48Zw7fjr+Na3Th/WO3v/fffJdttuxy033Uwpl6dUbCQKc2htCIIIo8XvJwFhEBAGBhNogsAQhCFauz0FpRArWCvYxBJbCE3EyNEjmTd3LnvtuTfXXX/9u5xWu2YicwCWBZ0SgLSL+rRBG4MyGoUlQaG0QWu3UQ8PjlCmFG4DVqbebx4EzihYXOZBG71Mpvnd994jBxywP6BobW0ljDRBZHwk7V4+pQ2BUZgw8DPtNYlNEJugxHqHw0XeShm0aLQGqzSVgQHK5UbaW9s4+uhjuPbqq1f6Jb3kD5fIwQcfRKUyQFNTmTDMkcvlCXWAQbvI2uCMvXZrY4wzvDoRkBgrKTFP0FqwGqxy0TqJMGrUaKpJzN5778X4G8av8LmKX3DrhwHhSRRWIB0FJOnzsgJiwIcccpDcddfdNDc1o9CYwKCMcs8AgYvqtAstC4U8c2fNZNtttuauu98aLS4NF/zhIjn00E8jKMpNzQRRDhNqjDLeaLnFshaUFQKt60Q4gxAoizYKq/DrrOpiSMbfj5oo1hozlldf/TsH7L8/3T29y78I/kpcpsNlO5R2TqhSChOEBNqAVtQqNQAu/culss8BB9Bf6aO5XCYMDFEUorRCGU2gtXdkNcYY57jpJWx5/tjGGEQsGggCd3wl3ukxikQJxVIDzeUW9txzL7nzzjtoLDcRhhFRpAmCABMYjNbe8Lt3JhjyLoOqO04i1IWkqtV+xo1diz9d+mduu/VmAZi3cIHstdfeTJjwPE3lZoJcCEYhBjAGg9+PAo0ojVKeMKwErXDvq9Kg3X1zXGVNtZIwcuQIfvrTn3Pvvfeu1Dt7z913y+577MHUmTMol5sxuRxhLsD490Arp48RBBGB0Rij0YFBSepMGiek7c9LBy6gctoamkTFxLWY5pZ22lvbOeyQQ7jjjtszJ2AVI3MAlgEfiKNEMMpHYWlKS5QXfEu8ERhe77dLEzIksnRRiHihGdEWpayPSiz2bbb/ufPmyVFHHIWIUGxscJuRCVz2AB+UaNDG9RoEyhAU8uSKeQq5AlGuQBTkHNscECOoVN1OeeMUBCggjCI62ts4/DOfZcKEZ1b4Jb30T5fKsccdSy4MKTU2YowmyAUYv4k6pytAoyFxUZoJA4IoR6FQJMoXCYOcM5baEGi36RntXAeF28BrSY2GhgbaWls4+KCDufWmm1fsXOsT/qzPSrsNXSnHHhc1pA1wOU3z1079mlx77fU0NTahlCY0bhOvZxbcpWAToVAsMHP6dD6w+RbcctMty33a14+/Tk467gSiKCTK5zGBJhdGmCAE8BGpgDGgLCaMMEFAPsxTyDcR5POIMliGlF2UW1klLgsj4hyCvoEKo0aM4fmXXuKYoz+/3Oc4dG1dgsFF4VZcZCjWulKPFUaMGMXjjz0hn//c5wmjiGKhAWWM61zBO6oA4jJmaRnP+gh5iVAKq3zU7EWdwGeYlOsHSKwln8tz6KcP5fbbb6OtuQ2jDEEUuaxZoN16eEdDoXz8IO6dq3cNuf3EZRgGo3erhHyhwA9/8EMADj3oIF566SWam1swKEwQkMuFREFEEDiHQvlsSJrcsD76t5LuHXinxp2D0RrBEgSGxsYyp3z5lOW/Rx4vv/yS7L///sSxpaXcPOhgaZ+p8o6INi4LJ0qjjCEIDUEuTxTlXGlJG+88Kv/+CFqcMxpog0YjcUIUhZRKJY484kgmTZmaOQGrEJkDsAzoNMrze7sVC0M04J3H6r3rZJhlKkn/8l2HflNUarAEkUYSdhnjZr/9rW8xa9ZMmhqbMENn1Cu3CejAIChyQUAhDOnr72P61ClMmTyZWTNnMX36NKbMmEbP4l5ACEwOY0KMT0X7fRExmtjWiMICQRRy0klfWqFLvv2O2+XoY75AlMuRK5YIdIDxtW8krfG7tK9GERWLYBWLFnUzbepUJk+exJSpU+ju6QWxhGHkIkdU3Ui7YF1hUMRxQhjmaW9v44BDDuLpp55Y7g2lbpZ13T3DlWWot+ahlv+VOv+CC+Sc886h0FBChwG50NR/XyEoK97Zg2KpwJw5c9lg4w258aabaFrOPvKpE6fIsZ8/Bm0MuUKeSGusBVHWZ5t8pKtdmrxYzJPYKgsXLGTKtKlMnvwG06dOZfHiPh8ZG2esxHNH0jq9WCQRrDFUKwOsNXYs1117HTfceMPyrW89re/5KD7yT0tfoiCJhVKpgTvuup0DDziIQj5HQ7HgIm9vgJT2dfa0lKE1IpZEEsTX3f8Tyh9fi8V6p8tZUoUIjjfgn8X+Sh+T3phEx8hOEi2EYeBa2rT2ToDBmMBHswbRjqvjfgbv06fPNyjRbjdRilq1QqmU599vTGTX3XaV++9/gOaye3/rBh/tyghKE5iAwBgif/1KuzKYSUtjDNk/FO6dUIIxijiOaW1p4e+v/p0Lzr9ghYzqcccex+K+PkoNBZ8BwpUjfKRvlEIr53zn8hFg6e3tY/q0mUyfOompU6Yyf8EckiQhCCKUMj7Icm6KaLfuLrEm1GoxjeUyXV3dfPuMM1fkVDMsAxkJcBmQtPZp1eCmRxoVOK/ebVqr7pgqTROqeo6wzgewKAK/ASi75Pd28qSJctlf/0o+CDzpyKVV03jY7T+KKArp6+ujp6eX9TZcj2O+eAzN5Wba2ltZtKCHRYt7eOLxx3jiyafol4SW1jYqlYrz2BFnrPw5VOIqre3tPPHEk/z1L5fJkUcdscwVmTZ9hhx1xJFobcjnihjjjJFbWIUyCu9vEYQhSRIzZ8Z0GstNbL3V1myz7VbuekR47LHHefLJJ5m3YAEjR41EJEYS6wyAN9IuHWupxDGFKCAfRRx97Bd56cWXlvPOeJNvlasXi6qT51IegE2q9bv4drjhhuvlS186mXyuQC4MXRRuDNrGuMK7+PvvnJr58+czavRIbr7pZkaOGLHcT9uPzvp/LFzUTXO5CTEaLa62L+IiTqOcAYqCgP6BfhbO7aa1XGa3XXbigx/aEhHLQP8ADz38MC+++CL9lQojO0dAHHuy22Dk7lLlOMNnq5RKRX74gx+w/377L/tE0xIAPmKHOgEwXes4rpFvLHH/Aw9QLBRoKrVQTapo4+y6K8vhnp2UPKgF5epALqJcQgJAPOdA+fc49RFc4Unqmg5iEyIdEjbmsNYSRRGSxK4eHxgq1Qq1gRo2SRAgDAPCMCAIclSrlXrZRHzEkEbt6b8pFGICbJJw3/330jKiA5O4VDrG8XPCICROEmrVKpVKhSRxmcB8FBIGEVEUUa3V3D22knI2/bFdRsUZXEUtrtLS3MqFF13AiSeduFzP0yWX/FEef/IJSs3Nzkhr7TI21mKMRpQiSRLCMEDrgFkzZ5EvFthyyw+z3Se2IdQRIpZXX32Vu++5l6nTptDROQJtDBLX3Pts7aCTrUDFQjIwQEdnJ1dffSVf/dpX5CMf+cgq3HHfu8gcgGXCOo/dKFTiI3H836LQWjCB21yGOwBGvIFRPlCRtBaQ/uXTZIKfRrcUr+Oqq66mf2CAtnILFm+ktAEcIcomliA09CxaREdrK3+4+BIO2H+/pb5Qzz//vJz+za9z7z330zGqk1qthhbjSD5KQAduTayl1FTit7/7DUcedcQyr/f4445j3vz5NLe0oLSLLLU2PmJxREetNLlcjtnzFtLYkOdbZ57JsV88lnHj1nrL+f77X/+UX/7qV/zpkj+SKxQoFvJYcYI51pPIEuvqk5VqQktbOy+/9DKnfvkUOfc35y1zQ0mXWytFonxqVel6UtmRRT1z/20cgDvvvEMOOeRQoihHruDKLMZAbGOcm4a/X0IQGbq7uymVStx2222ss877lnvjmzZ1qlx2+WXk8wWCMHIGwaTOqnLRKhptAnr6esiZiF+f+2s+++nP0LyEDMMLL0yQn559NldceS0drS2IVWACjAasd1qtkABJVSi3tPLiCy9xz523y867LUNAKjWyyqX8TeDr5eIdLAXWxqhEaGluJrEWkYRQBa4Tw7UMoJXLogiJIyqKi0ZDEzhncAnvjEJcxsE6cq8KFZJ4QqlxZS5rE0RprDIYEu/8WnSUp6e3m95FvbR2tLLeeu9j1JhxDAwMMOmNfzFvzmxmz57DiJGjUFpIkgQjyhNXFdY70GkCRFmIwoiRI0a5jpak5pwSNFEYMG/+AqwSRnR0sM22W9Pa1kbv4j5efP5FZs6Ywfz58+joHIUmJrEJVrtgwScx6mUUEGqxpdTQwD9e/xcPPXCffHL7HZf5bJ1//m/RQUBOGaxKu1NcBC8+xRilxn/uHD772c/yrTPPYMONNnrLZ8+dO0cuvOAizjrr/1EoNmIigxYZLG0oX241BhEhF4WIUvzx4ov5yEc+sqxTzbAcyEoAy4BY/xAqqWcD0uACX7dLbFIniA3rWJJuBspvCHWXwP07oEUgSTfLJb+vTzz+uPt+6AbYaF+btiKIJOhAU7M1isUCN912y9saf4AttthC3XnXPeqT23+KxT29tJQaKeYjolwOk8+Ty0XkwhxRFNHa1sY//vFP/vH6P952Qa666gq57bZbKTWWXIrUR32pup1RGq0DolyJGTNnseXmm/LIww/xwx/9SC3J+AOst/4G6vzzL1A333wTUS5icV+fa6VTGqUDf48SFBZRUKtUGNUxggsuupAXnn9+mTcwXW63f6vByL++YTkGOLBUEuCECc/LQYccilKBS6EqXS8jaePqpkorjDHkohyLF/WBFW6+4SY23PCtm+jbrvHVVzEwMEBjqcFFfjrNGql6et0YQ1/fYozR3HbnHZx84klqScYfYPPNP6T+dsVV6sc//iFzF8537aK1Ko456DsjEJQnYxpPULv++puWea5SLwG4er9N7JDWMcftEBy5zrqXEr/k7jjGOGKdUU4VMsphggibgPXGECUQL+m+uEyb9RG6q/e5shM2GWzH9dGpVY6QmSsWmTN7JuNGjeMPF/+B1195nWeeeVbdfOMN6u4771D//Oe/1EOPPM7JXz6ZroULqfTHhDrAInVj6ZwcSLkkRmlEEpJa4sozJkCHIUEUMHP2HLbdehtuv+U2XnrxBW688Wb1pz/+WV1z1dXq9ddfU489/iifPeII5s6fTSV2Tr+yUs9iOFVDVQ9hRBQ6gIHqAHfccecy79Grr70qE55/gXw+D8a9s1qbNKHoy4sBYRgxb/5sLrnwfP785z+pJRl/gI6OTvXd731XXX/jjVRr/UhsvYeinLM1ZB9EQbVSobWlzC233bzMc82wfMgcgGUhZQ37GrRj5XsqkeC87DSlN8xD1WuRWjxpxwymQ5VyDNr0lLQs1cg8+ugjhGGAWFcycLVDi9aWxAphYJgzcw7HHnMs7994E9XX27Vc3stvf3sePT29/GviJCZPncaUKVOYOnkKUyZNZsqUyUyaOJEZU2fQ1bWQv/z1L2/7Wd//7vfRJiLK5T1LWvnWKFdeSCQhl88ze84stt16ax597Am14UbvXy4DuPOuu6lbbroZrDBQqThine+9Fisk4khYVoSw4KK+H/zwh8v83KHp43oZKO3pHlKrXtpJTpw0UQ488EAG+voolhrAKgK0S8lqTyDTgyTQSqVCf2WAG2+6kQ9/dMVTni+/8jLgnCrjn1tRyhNA3UFCo1jc08Olf/oLH9pii+U6xplnfkcdesghdHV3EeXyjqiHJa2LORa4plqt0NRU5s57lm1c0gM71j1DnEGcsbeDnAvw7XTaOYlp2j4KQgId0NW9gKlTp9DXtxixMUkMiYWmpiZyvoVvKHzFCbGxc2psgr+KN/+UWNCQSEwuHzJ16jT22H03Hn/sUY45+hjV1v5W7YMPfGAz9dvzfquuueZq+gcWY6113QyJ7yaRlIsBrgNnMHckgFaCCQwzZ83hK6eewt333qO233571dj4Vidts80+oC699FJ11ZVXsLhnETHW3e/E6YekHY1py6VWmjiJKZfLPPbE48u8R7fcfDNiLcVcwbX3BdrdG+3XSgRtDLNmzuILR32eo75w9HI9T3vuvof61S9/xYIF893aYEGSQc6Nl2EXgTCImDd/IfevZPdChjcjKwEsA060wtXhrDi2tPgUvVKCJkAp4whQw65KDeUXKIyv2Tntf3AvhsYaHzEtodd83ry50lepEQR5Aq3qrOB0c06dF601o8aOBqBYWj5C2SabbKZ+c95vZMHCeURR5PqKdYCycZ0sGUUR/f19bLvNtkv9nCuvuEpe/+c/aSwVXR3dOoPkmQWIgA4CensW0dHZyvU3XL+iC8nHttpKXfzHS+TQQw8jP2q0J2860puIuDWwQi0WWtrauO3W23hxwvPywQ+9nRFMSzQ+PQyejCkupWsHDZUswTk74IADmDRpIi3NrSgLQS4ktolvsXQVZ4XrXqjEVRYt7OKmm2/mU5/aYaWerCefepp8vkA+V/BZEPfMKs/6j6Icc2bOYvc9d2fPPVdMaOX//ehH3HDTzVTjqu+OSbsBHIE1/VoHhnkL5jNl0mRZa521l34M//JYpfB0NYwn4YnyZThvhK11nBaltDeoGhMEzJ4zk0KuyPYf/ySf3H4HPvmpT7HxRhui0DSVm9SiRd3S1LSk4TO+Lk8q2uOIg96m+XQ99SxAZCLmzZnLrrvuwk0337pc67bPPvuoC3//e/n8kUcyatQoX6JI+S7UjZ34a1aOVUwuipg+czaHf/pQfvazXyzXsQ468GC14Dfz5bjjTmDUqNHESYxNxKf+HbRymQGbQC4KeenFl1nUs0CaGluXeoze3j6CIKCQz2EF3yFkHcHRz8ewYmloLPHd731neU61juOPP0Gdf8GF8s9//oPGhhLgnWHBZwTcHcrlivT3zeSBBx5gh512WqFjZHgrMgdgGXC6WuB6a/0mJS61Lj5CMAJiVP0lXmkoXd8AxKcCfbnWEYG0Bu2Nj2MJvuUjbC1BKxdBK4Xv7U/Ts65tC6tJkoSuBV0rfIpf+vKXhu3mnHfer1EaCrk81rfQuUy6J3GhCYMcMxfMZPwlF9O6jOErS8Mhhxyq9t73crnz9tsZ0dJKVbko1fjNChzPIJfLkSQxl172V375oS2W+nmJN+oW11I2VO0vbQNcWilot913lxeef4GWlmbnOGqDpMQ5Xw92foSmWqvRtWABt9x0I7vssstKXfvCBQvl1Vf+DsD0GdOX+DNRaKjWEg759OEr/PkbbrSx2mWnneTOO++grb2dJHaGQGkn0CSedR+FAYu7q0yY8BxrrbP20j8wDbbFO61D2u+UT/WTCgQZ7dn9CSZnqPbV6F40j0MP+TRf//ppbL6UAUVLNv4+iyOgxdXKg8ARPdNZXI6Q6QZwYYVaElNsKPCniy9eoTX73BFHqN/85jx56fmXaWlu8mJfjg/gtMbElfhSZ00bFg/0M27MKH772/NW6Fhf/OLx6g8X/kFefvXvNLe0UqtVnWilMr6NWWHAl5sCRIR5cxfQ1Ni61M/8+ysvEccxU6dPc//gfV/l390g0FSrMZ/57OGMGjNuhZ/bgw88gO99/we0NjdTqyXYxJMBJX2vLFZZwjBk3sL5K/rxGZaAzAFYFrwFVhgSar6Vxn9DATZxEZULtYcFEesY6+g6FVkk9a2du6EcfduZoiVwDqNc6Iy8ck6E6/HXdWMjYqnWKjQ2NXHV1Vdz5pn/3baaCc8+J08+9RT5YpHE14yDem7StTEFuYDZc2aw5557sv9++w9rVX/0w+9x+623MpAkzuBZi6lHWy4NW6vFtLS1csMN4/nlL3+51M8a0p2flo1J00GSZhj8PZEhkrP77reP3HXnnTSXyxgduIhSvGKb9uJR1mLCkMRaFsyfyw3jb2CX3Vd+8mJLa4v69rfOlGq1NljztW4DVV7ZUSTGAnvutttKHWPrbbfi1ltvxZiIJB7wqXTBWuVruQmRDugfGOCVV19lvwMOWOpnyZC/xXe/uDK5v1ci7kvf1SGSEIYhXV09NBRy3HDDDeyxkuvle2Ow2mVhbEK9bq6GRJ8IFIo5Jk2eyve/9z1Gjl7x6YuHHngIzz71NEaVia3vkfeEN0R82t8FHVEYMWfWLL5+2mmUy0uPzJeGzxx1FF/9yqm0tHhKg/ZiRL7UBGATRZQL6e3r49VXX2Hddddf6ud95KMfo7WtnVwu5/wW44iqYjVKWUwYUBkYYN999lvRUwVgxx135Kz/O4tKfwUVemKxJ1crAbQmqdVobGzglVdeXaljZHgzMgdgGUhLACJ+3KtI3Qy47J1OCchLbDFaEaQRsNvgQInT4reS6mb7lLPySeYlRJvNrW0qDHNSE/EdeuJ6kdEuBeiNbXO5ib+//DI77bCDXPLHP7LO+5afXT4c3HDTjVhracjnPTNf16WWNYIYhbUJcTXh1FNOHvbxPrTFh9WHt9xSnp0wgc72NrQXY1EaEJdYjm1MPl9kzpw53H//fbLDDktmQ9c5F2naVtJ6vcuyaB8JgZfUBQ499GC5+aZbKJfLvlfdCSvhte+1l7cNwxyxFebMms2111zDXnvvPez78X9n/fgdvacbrLseSmuSpOqpMuKFsyxp+1niDU1loP9tP0vXDb1F110W7xgOcbrTVHxgNIt7+2go5Ljzjjv54DDGEqdjMbVWrj5uXStimo1zTr8FbagmlsaGEl846nMrdayddt6eYj5PX2WAXBiSjhRXafkP5c8D4lqNYkOJTx/y6ZU61j5778W3v/Ut+vv7yOXzdflw58AqMBqdWJQ29PX18ca/Jr3t551++unv6PO02aabEuUL9FUrlEInAibKuoDIz/uwsXM0Jk98+3PNsHzISIDLghoyczO1t8oZA2XTmqWqk8CGdSi/2YlXPhMvAGR5MzEo5QksTQv4Y1t/hEp/n0tR+2Eb9d5jHPu70l+jva2T+x54gK233orvfOc78vrrr7/jxJp777kHrRRxzYL1RjNVA9MQmoC+3n42/8Bm7LrrykfAQ/GFo4/xA1wUibIk4PIsvkQSKNcHv7h3Mfc/8OBSP+dNi5PWU/3z4QiBijiJUUoRBIb/+39nyTXXXEdLYyPaOCVHZ9b8ffDEL6NCkqTGrJnTufKKv7H/AQf8V5yx4eJjW29FsVCkMlCpO5vpi5K2mqlEfCfG8j1a2svvpg6v1FtuxP/POVmJQF//Yq668sphGX/wWRsR179vnYwwXvCqXuURN3+it7uH7bb9OGu9b52VOuZ6665HmC8QJ+LaFxWe3+DLQHhyahhQqVbZaMP1V/5Y662nxowZxcDAAFhH/HvTaqbzRsSS1Gos6upZmcOsMpRbWlVDoeiJpD4D6smS7j8cgZFE0dfXT3dXd0YEHCayDMAyIEkyGK3h65Npnc4P+LDKeoLVKti3fRQ5OLjEpddE+UEz4jTu3Y8uefbALrvuxG233U6gQiz+3LygkFNEcwI5loQxY8bQ19fHWWedxTnn/JpNNtpIdttrdzbeaGN22GFHxowZs8qMUXf3QnnhxRedWp9Jh5WoOgVLCdSSGiJQiWO++53vSGITgiD0UZKup4UVkKT3BusISdaT+3B8CRFXl37p5ZcIwpBYElRKVhfvCHgCW7VWoaFU5B+vv/Y2V1AvVDv+lncEU60mEaFSqdLZ0cEFF17E3LnzaCqX3UAapbzufuC6EbCkcx6UgYXze/jDH/7AwYccssYb/4XdC6Wl3KLCIIcxmthajIWacoQ8kTSPpRAVYrShWlu+9JjSGvGieU64RrsMmHW8G6U1uXyByRMn8X8//n988lPbD3u9RLlac5IkYLR/V6zLyKnBclsURXR3d/HRj618D7o2htA4iVtJLBjjZlfgy32+jVQbWNi1gM8ddeSwru39G23MG29MTN8w6hkGH81Yo9Chc0BkOaeLrmos6uqSNAuz7nrv48mnn6akGkDET//ECxh5lUejqCWxn8SZYTjIHIBlQWuUWCAhnRaGr9E5gpJ4CUuWOm1seSGIZxim22fas6t8ulmjQlCpENBS/N/PHHYEP/zB/7F4oJtioeQJ1oNbQNoKIArixBnYMaNGU6lVefnvr/DMhOcAKDWWGDVijOy+x86MG7s2++67LxttvGK96EPx+j/+RaVSJcyFvnd4MO0LrvcXC7lcxL/++U/+76yzVvZQb0G5qexGKCvnRLhJvqoetFqBUrnMw34M8dtD/FbqiaD12o+b7KZEk1RrtLSUXfSiXLbBBcniQk5f8zUmYMbMqZxw/IkcffQxq21H6+7ulhlzZ/HiMxP417/+TZwkVKr9dHV3MWP6LKZOnsS8BfOpVmKqAwNeY8cyUB2godAASgi9gqGQqiNalIrd5S7j3UiXUPl1sco7cuIdX+WMv9GK3kXdvH+jjfjWGd9aZevl3t+grpmv8WqPeOltL1AUhIaRo0eu9HGamsqqWGyQSmUeYnJoGRwulXbBpN0gtVpMQ2PTsK6r3NIy6CiL5ytp7fQQxImbSeJWYEmdKyuL7u5umTd/Pi+//BJ///srVPqrVOIa3V1dTJ08lWnTp9C1oJvFvX1UahX/Tmhq1QrFYoEkTnBDoFSd06T8PhjogLiWLFUJNcPyI3MAlgFrLZIym+vV/1RWy3vNJnBfD28W0KBUqLdILnJMvwlKWbSYunb70tA5coT64Q9+KKd+5VSays3UajUvAmNTzRb/qlsnBqIV1TjGaEOpqYlmFJWkxkClysRJ/+Y3v3kdgB98/weMW3uU7LfP/ux/4IFss822K7QBP/7o49RqVcplt6lpY8ArrDmL4nV/UZTLzS51nCQIrt2LwCI1l04W5VKBSmu08XrtMejQzbQndsI6sViMGHAlTwdxBqnuZHnJXRKhUq0yf/5saWtbktzukBoQ4mvEUj9n5xQELjOk3Tx44przNpwfQH2QkK9vV2sV2ls6uOyyyzn6C8fIlh/e8r/iBPzz9dfklttuZ+rkydx///38e9Jk4lqF/v6Bpf5OWlEyxhUxtFZEuZzLqFiLCnz0X9eeN96YO9W+t0V61Vb8LAevqJiO0dWuCKxNnnnzZ3LyyV9eNQuBz475W6uV9sqRTjK3zs7XiiSJKRVLbLjBRsM6XnNLE7PnzKEQgw7dog6KjCVeAMe9l83l8rCOVWoq+a+ERIRAeQKqPx52qPO18o/elElvyC233sakyZO4/94HeP1f/yCJY/r63ob74Y16FAZu34sFkwtdxs+KK5vV+UGpHoomEevElPivvCr/08gcgGWhTgLERwdDSWvuHdJYH9kN84GsU6HtkOMBVoMZIhhijbNXb+Oxn3LqKerue+6UW265jbXWHke1UvWbaozTFUg/TA8Sg3yEbLUlEEMxVyDJB46pHgu1ao3Jk6bws1/8kvPO+y2bf3hzOeGLx/P55RT8WLBwAQChNgwkNZRVPgVfv3CfAFFYSUhsgsF4pcUEkzjhksBoJBZQCTYJSHA9/Up5h00USrs0uzMcbjPXnk8hImjr0/j1/grBGE1VCfMXdNHWNuIt559OXkszBtrn/l2Gxhs9LSgVYJMaXQvm09TUUm9hSvu7pS7u5ET0ClGB7kWLOOmEE3ni6SeXZylXCq+//ppcceUVXH/t9fzjX/+iMjDU2GvCMKCx1EgQOnGkGHHKhol15ZNEwPgavIXAeJlZXHrW1rNWvn6u/f1AkSzD/qfRp01TMmqIU5XqCyhNtRZTLrdw8IEHrrJ1sf5mpIp/QL2d0Yk8KfdOWk2dRzsMRFEeJEGURcT10CsRFBYr3kBbizEBTY2lZX7e20HJ4HCplHfiKiriAgLxBEcYHMK1nOjqmi9//evlXHX1NUx49jn6+vvq3zPGEAaGpmKJIJfDiNMMkMEaHFYp4lrsdDCMX28f5ddJof69RrlzNr5tWFm73LySDEtHRgJcBmziN4X6syZ1tr7SGmv9wBrXDLsKjiieHa/qHnkqhCLWb7D+hJZ1826++Va1x+67M2XyVM+oTTzrXoNoP2ZV/B6nEJ2Sg7xRUxCqECMaowPy+TwNjWVGjhhBsaGBZ5+ewBeOPoZtttlG7n/ggeV4G50VSGvi1qaEOF2v62sD2rgpeM4sC0GoCU2EUYowCl0dNQwJwxxh4Oe+azfnwGiNCTRBGBIEAVoUygTO9HsJ2fQ2ucFIbka5a41yPfhz581d8p2pT1X0091kMHB1pDWvtmeFOE7YdrtP0tfT6wyiKIyP7FwbgPU6DZpaXKFzZCdPPvMUp59++irf1aZMmSonHX+CbLH55vzwBz/ipZdfBhRN5SZaWlpobm6hpaWJhlIDQeiidsHVX9FgIk0YODlaY0KMCQhCt946DNwUPJNO4VN1XQMXxenlejXqLZaiPVlNfMdNGp27kc6JjWkql9jsgx9YZeGfb2Bwo3K98y04jQhUaoDceSjlZI6HA2u9HoVWxLHFkngeifIKlS6jpZQmXIJy4Qpdm0r/dmqTiVgfODg3zSiXKfM2ebnxi1+eI5t/cAtOOeVUHn3kEapxTKlUormlhZbmFprLTRRKjQSFyMluY7HKZTXFzyE3WhNFIToMncOl3bNiAjetVBuFMgask1tPyaVifektKwEMG5kDsAwIqe57qvrmq79eAFulym++djkcpBtNOrgj3QBdCV9AK2w8mHJenqPddvvt6oQTT2LWzNn0LOojDCOCXOBeLEmjntQoprLB6chRR6YLjMYYN+zFGC9SbALaWlsZMWIETz/zDDvusAO/Pu/ctz2lZMgLq7yDoYaS6bTXARc/ZjkVydFuJLAyOh3T7nkSTq3NTaHz0/SMz8yIj378fVHatRUp305Un1kujmzmfk4RaE1SW/L5py+LqkfwQ9u33HUEUYE5c2Zy+Gc+zT1336VGjxlLb08vOtQkSN1Iit9wU2Z2tVpl9Lgx/OqcX3HHPXessp3txhtvkI9++MNc8PuLiK2lqamRpqYyDYU8QRCgjHaOkgmc02UMJgoxgRtv61rSnMiLiUzdoKcSxuLFWnyejHpxyQ7OsVA+7fy28IZK0sxU+t/pU67coJ+k0sdWH/voqloefwzlxy77Ud/1yN9Hm55Do7yTtypqz6LBKm/0fPXfokA5B1Ypl3HSy/Kclnlt9bvg+Cjpcqb5Gq29A+zfp2XgmWeeko997KPyja9/jSlTp9HQ2Ei5XKZYyBEEBqMUQRhgdECgnaplqDVhYAiMG1scBIbQGIIwRBu3v4RBRBiEhEHgogCUm7rp9VXc++qcQKVw6mtZCWDYyByAZSBlAVsYrJshvnYmYKS+8S3PC7TM4wEpIccNDUn/0XMOSIjTFNlyRiIXnP87ddutt7DZBzdjxuwZdM1bAFjyhRxBGDlDVp+mljoiPkYQdx7W+hSir5e6PnpLnCS0tbfT3NrGV0/9Cv/vRz9Y6kmlJEk1uAv5//IveZ3pa1BKkwtCoigkDAxRGBKFEVE0+Hc+ypMLcoRhQBRFRFFAGIZEudDNaY8CCvk8+VxElIsIc3mCICSXiwijkCgMMWFAEAQEgSEIXZRkVLyUe5OWANJNSb2py0KJK2+IQEdrOwDnX/AbqrUBpJb46xdv31wByQmdSZ0bWCwUOfGYE+jq7hq2lTn/dxfI/vsfwJx5c2lsbCZfLIFxg3PSNTZeHMYoTWgGZ9m7DIrBqMDNeNcBkYnc+kYhYS5HGASDHBXqD6q/h76LX1mUXXYJIC1Eez466STM+scLBCagf3Ef66273nCX5s2HxrpZBol7g5Xyz7dSbs6BvxPiSRB2mI6+1tqNKMarfSo1SE4VW//vIdSElT+Wcl0FiVhfqkxfO7d/pA4osMyD3XP3vbLD9jvw9NPPUCoWKJWKGG+QTRAQmLCuM+IGW7kJn8oPuXLPkXMIdWBcC64JCKOIMDSE2r1/9b0tfV9wX6YS3GB9p0aWARguMg7AMlD3wP3zptQg+URhff3QDIkDhwP30OshBkUp67MN+IgkRJH4IHj5/bc99txT7bHnnvztiivkmquu5MGHH2HWrFnk8nmamhoJciFRmKNWq5Akic9CuLS5Eu0lOX07jq8nChqtLTaOyZmQEZ2dfO/7P+R966wrRxx11FuWo17SEBfxKM+nUENKHk6xDAYG+iFx6yFpXVjcGg2qtPmsQppJIE3T4lKa1jrJ3brSWtpV4XkAypVxEJ9gMZruRYvoryw5BVDfbpR3AqyqZ2y0dk5h2rMce4O24047q5O/fIr8+pxfMnb0GKpxDa3S4oaQ6t6LQBzXaGlqYdqMGZx00on87fIrlvv+/iduvvFGOflLJzlnKRegjcUYNxLal9fdKGDwY10NURQiFmpxDRsn1LPvArUkRpLYDaJMN+IkptjY5M4/Sdyz+x9WSyXaNZ0sgwQoQ/52WTfvZQ4xtlpDxQr5ML/S67IkpAmgxDCY3h9S9nOUH0eiVQzW1VcWTiVS0NbWHY5UYOwtX9vhBRWpeXeDwdz7FqRRhd/LrHd49duQG954419ywAEH0Lu4n8amZqeL5I15mh0UcRMg066eKAzQJiRJEpJaDZuk8zigVotBhDhxg5fEaxFEhQKhMT7IUPUsRfoU6Lq0OVkCYBUgcwCWAe0jOqxr90pr4y4j4MZpKu086yQe3sua2IQkTly/uB+JJiJY770rhWsDtIZkJaOQzxx+uPrM4Yfzxr/fkPE3juehRx7h4QcepHtRF5WBKrlCSGNDE4EJyUU5YgW2NuAm6GHQWrAWEpG6+ptWiiSpEkQRHR0dnHDSSWzzie1kvfet96ZXNIhyQDrlLS2rDNlwFUQ5w9y5C/j6189gt112pH+gHxP43mhlSGxMkiQEPnKNfTukDsDVBdznpsOTbDIYtWvtDGBsvQOVVgjw8avSLO7r40NbbL7Etas7fuICVheoqMHPULbu5Gg1uJme86tfqLvvuk3e+Nckyi2tpO0iyp2hNyruM/prNUaNHsmVV1zF/vvuL4cedtgKb3PTp0+Tzx5xFKEx5PORr6cGTgJZ+6jQO13oBBNEDPQPMGvWLJRSnngWYAL3/AUmoLO9lZa2NgqFPIImF2hUaHj80ScJggATGJRnZ6vUo/JiS7bOW1k2nMPhnjFF4ks3zozFiXWJcrNk/YuVRbm5Rbmcg0uHW3EcFMG1a2qvLuFKfa7Vc3iQetlQo7FJSlr12QGFT0FohssrSnzqxXdlemcsHWblXgDjhUXkbe7RsV88jt7FPTSUGtFaMGGAUhrtvDWM576IxIRBgVqtyoKZ86jGFfKFAsV8zqX0lWCCgFJDicZSA8VikUKxQGQCyi1NvPD8y8yZO498IeccSuvfrlTe3DpnRmUJgFWCzAFYBsQz/DWCHdR+dRI8AhIrwkKeamU+s+fMHt7BvLGyqdSv4KJ+TJ1jIIkdssGuPNZdb1112tdO47SvnUbXwoXy8MMP8/Szz/DiSy/x4IMP09/Xw+K+xYQmT1tbI/koJE6EJEl8+55vJfJGVxvBSkKUy7FgwUJ+9tOfctGFv3/TMTfaYEOM1tgkccQj7aMpT/pChDAIGBgYoKmpwMc/+Yk1yse39ZKL34yUr6WK8qN89WDt+j9uz4UXXsCOO+1KLa5h9JBoyxtK5wFolEqIq0Jrexsnf/kkttp6G1l77bVWaB3O/vFP6OldRLncgtE4fgRu0FSaslfa8TksijnTZ7DuButz9Bc+z8YbbMhHP7wlo8aMIwwdN6BcXvIQHYCWtlapVqo0hAUS61oqle+IEYQEIUniZRfH0lGa9chbgfbZntRaKlCJRVbxzr9oUXc9yeSP7DMB7r4opZ0jqb088DCPL37OfZwkde6BWE8gldRAe5a7Gl62IXVE6w6YpIOnXHkx8DwEALsUv+aWO26V+++7n3whT2gUgXFCXr5VyWVJ/T4V5XPMmTeHYqGBzx5xOBusvz6bfWBTNthgI1rbW4mCCFGKlubmJT5Tx3zhC/KnS/9CqWEkiTjBMkm8w2JUPVtjxd2LDMND5gAsA+nAC6vEp8HTlkAfEfj2nf6BfiZOfGNYx3p2wnP09/U59TjvpdfrkWmJIe3jUcKwAxGP5pYWtc+++7LPvvsC0N3dJa/9/TXuvfceXv7737nn3nuYPX0G5cYypaYS1WqNdJ54Wu8TCQCLVKu0Nrcw/tpr+emPfyrNrS31t/RjW36EYqHo0sHWoMVlUES8GInWVBMhMJrJkyatmotbhagnIlO+QsrRSFsJvcOW/sxQfPzjn1KnffWrcvZPf8qokaNIkhjtMxsuE+DSoNq3ZZYKeWbPmcfxXzyOO+66Y4XO829XXeMjNEVqVUTLoDS0AqVDkjihp7eHn//iF3z1q19b4d10wcL56dAKl96tl0PSck+avaJe418aUjuXFtjSZ9590zkWGo0OnKDNqoSv/JMqe9YncvopgdZ3zwzN1AwHfvIAgTLukdHUnSZVZxL5ctZwnY06b2Vw/3B1f6cjarV1WTRcrX5JuOTiS1D1DpzQZWEklUrWfsgYhKFh7tx57LPfvvzqpz9nrbXXWeFnaqBSQahzMF2GTA2WCCEhQftyX5YCGC4yEuAyoFNaktfSBnAjS12oYnD5YI0iGSYH8NHHH6MWx0RhVJ9f/6aNQEBZIVUKG2Ypcqkol5vVVttsrb71ne+ov/3tb+q1V1/jogt/z7ix45g5YxZB4ORLrRU3LY20busU0/INObp6erjtjlvf9LnrrPc+1dBYolpNfP3fuoyGX1atII5jSqVG7r7n3nfm4oYBW9f8hbpDJi5KUwzemyE/9Cb85Oyz1Uc/9lEWdi3E6ACbxD7dLXUDqQS0QKUS09HeyZ1338m555633DvdDddfLwsWzKUQ5ZxRkXqBwz81jk1tlGL+gnn85jfnrZTxB1i0sJtqpeoZ/84xlfrapMcyLlJbTua8I1Yy2O5lGcywICRWIXrVlgBUSnSw2vsz6X30V6EMCk2S6unblVquOsQTCesiUtYOMvRVyihy3xquiUvdCfFcmlRBtO5w1WzdV11Sp0ZPT7c8eNd9oLRv2TW+hJR+lstWREHAvPnz2Xvvvbn2ymvUyhh/gGnTpxIajbU1X3od9KUVYAKDlRg8DyjD8JA5AMtAPgpdDdK6l0WnxSfvgMaiqMYJjeVGJkx4fljHuu2WO1BaO53rIW9+mg1Ix5K6aHEIYekdRmtrq/ricV9UL77yktpl111YuGA+uShyaVG/HgbxAjyaKIioVWNeeuWVt3zWjjvvzOKBHsLAsYJRTgzHKEAsKoGGUhOTp07myaefWqNc/Ppyi/U+gHZxlOdUYVRdK2BpO/cFF/zOGRIbY0RBKizll9KKJXZ9F8S1Cp2dnXzjm9/kuecmLNdaPPvCiyCQz+VcpIZyjGw/MyHtv17ct5gNN3w/X1hOEaclYcKE5+nv7yfMRS5b5ds1JdVcQDDK9dcny+0ApNkD36KWGkhRrjfergKruOSDuvXS6depDoV//7AY34o23G6fIAzQKkEb70Yqp/qXaknUWyoVg6WRlb20uvl0I7BM2m/vyZruuN5JWEJEPXXqdAZqA+TyOUwQ+HkMgHY8JaNdBiC2CcYYfvKTHw/rfP/+91cJtCGxTu2zXl7QzrmMrVOY9OMaMgwTmQOwDLR1toE4/WlHSvZ1enEsaWMUcZJQKDTw8EMP0rVw4UptT3fccac8+dSTNDQUXW++Giwx1FXkRCGJxVbTnuT//htw++23qxEjRtGzaBEmFNefT6rU5mqOcRJTKOTp6e19y+9/4hMfxznwPqPiL8Eq1/trtYUAksRy3q/PW6Xnfs/dd8mZZ54u/+///k/Ov+gCefThB+Xfb7whXd1d0tuz7Mliac3xTbYsrXl7UsAgi3zJG/eHt/yo+v53vsOsuXPRYeCU8tI6j2JImcelhoMwwBjFiSct32jkyoBbc4tC6wCM8R0lvpYtTh2xd9Fidt5xh+X6zKXh6WeedCRB5TotrB0ytbIenVl0YKjES5cYhsFsrkv9DjK80kybUilJTg2bGf+f8I0k9WOkJ1RPn/sMXDr7wwx3aI4ofy/qBY9BbQkc0TCt1gx7h/ZtgL6ZzpU2PJ/InwqI+xmr37qur7/+Ov0DFT+6mPoI8vQOiWfq12o1Oto7WH/9DVZ6cR5/7FHp6urGhFEqvugDH4VY53hJzQ5yJDIMGxkHYBko5ouAqwOih4wKEcfQTTejXC7P3LlzuPqqqzjuhBNW+Dinn3E6RisnhGFBaaf+pzzpyKi00dCiAuUl5d/8rvX0dMvXv/Z116rnpW5dk41n7YvFBIa+3j6O+OwR7LH3Xiv1sh58yKH84hc/p9TY6KJZpC6WJLjWnjCI6Fm46C2/e8B++3Hm6WfQOzBAMV9wGQBfRkmHyMTVKp1trVxz7VV84xunyRZbfGiV5PqO/+KJvDF5kKcRGEWQzxOZkEIuz+gxo+WQww7lzDPOXOLx6kJA2ouUwKDl0m5nTdPDb5ed/PZ3v6tuvfU2eWbCc7S3txHXYlfOcRbOZRq0AquIbcyI9laeevJxzjjzW3L2T378tmtRGaj4r9JZEt55TJPa4tT5arZGuWV4g2auvOIqtHHRX6idQUOpOkE2Fc4REewypgEOpqFBq3RghdRT1Ra8ZoJe5WGL8geWxJdMfMur4/2JJ+r5+ryXmh4OnBafI7hhU+VNv68MCWudKuHwOw4AP7DM4npVVTrKxBON066Ut5qDnh73DiujBltmGXy+rRXCQFFDyBeKwzrTCy78PXEcEzaFuKm/g87GYGnEBQ1aFKySXeG9jcwBWAZM4FrXJK0TigZlB9OTuIilZi3lpiZ++atzVtgBOOKzR8qLL7xAY2MJK0KQGgHl0v5uTxB3aB34NjR5U6sZQGNjWd1ww40yZylStv/xs+yx914rdJ4pmlua3Rfphomq66kmVhEGLoW3pAlwI0aMVAcecKD86U9/olxoYCCOBzdC7Wq9Yi06iojCAieedAKPPzZ8ffz999tf3pj8Bh0dI1FSQRKo1KrE1pJYS99AHxOef57PHP6ZpX9Iaus9gcqdtudoJKwQQ+x3F5zPtttuR1JL0Co1zmlcVWd5AIZKTRg7di1+9ctfsvsuO8v2O+641K0vSlstASOCJGl62bPpUUhSo5gv8Prr/1i+k10CfvHTn8rEyZNpbG4BrJevTlvYPHHWX4tR6j/mDrwVb7apnkOgILX2yjpCo0aG3Yf/n3Cs+CEGRdwJGTSirB/XKy5S9jyX4R4vsV5cy5dmlFLpQ+RPwWf5hlkCSLklVlJZY113CJUGZU09W6OXMF48CEL3Pd+tY5VCp6PJlctIJsqpSS5YMI/urgVSbm5d4ZN+7rln5aqrriQKI+LYEoWKcMj+oRD/ekldfyCrAQwfWQlgGdj4/RsRBJEboFFvV8O9DHgyjxKSWo2GphKTJk9kr333XO4d4tOHHSaX/+0yCsUCRgUuIWhcitAJYSm/6SjPO0hIfM/wkpQADz3sUIIgYNTIkbR3dNDZ0UnniE5GdHYyYuQoOkeNorN9BNePv4658+au1E72/IQJAMRS9S+kf5AsoDSBMfT399HZ0b7E3z/2+GNRWtETD3jxVWf8XbnXRZGVapXWlmaeePwp9tp7r2HtuAfst7/ceNONNJZKJEmVJBbQhqhQpLGxTGOpiWKhSFtLG0d9funz1wc5gL4VbWgtIA1T0ohtGVvghz70IfW9736bOXPnEEShj5rdJlv3qwQXEXr/qpDPc/KXv/S2n1ssNgAQhNoN7tEpZ1HXsy2VakKp1MB9993/9ie5FNx9993y/R/+gCjKOWfIqwsqfCJE0rS5e161CajG1bf9zHQl64JOqEGmGsox1BNfKlrFkZ/4llbxqXg/icA5+sIgR8PLIKftuisLa51ipE4ziJJyenxdHm+glR7+tfpnNNBA4gIH0isUQNshkxffmm1Yd+0x5KOc0zjxz7j1qXnlqgrESUIURixcMJ977lm5Z+rYY79ItVqjWMw7YSE/DdEpgjuH0KIQo5y6pIEkXopmd4blRuYALAO77rIjURgy0L/Yk4D8WGAv3+qMgpCIZaC/QmdHO3fedjebb7G5/P4Pf5DZM2e+ZbeYPWumnPub82SD9deXq66+2vXX6pDABARh5KMB6puB9sfAihPeSHzyfwmR0Ps33YQ4jqnFbqJYbBNsbLHWYpOEJLboUNPb28cXvvD5FV6Pm266ScaPv4F8Ie9G8Kb1RFdERSvB6AAQWto6lvgZ22y1jTpg/wNZtKCLIPDevHH1RHCESy2KSnWAkaNHcNutt7PVNlvL448/ukI77/gbbpDNNttMbrjpRhryBcJc6ByrIADteoptkhCGhoULuzjgoAPo7By51C1XrFNME89UtykLOjVfQyLWtxNVSXHmt76ttv/E9sybtwClDJbYTYODeqo1ZVtXalXa2lp59bXXOOaYY5b64c3NZV/zSTDiS0eauiHR3shEUY6FCxfwzW9+c4XW9LrrrpP99t+PgUqVMGecYh+OjyIKYhGftn4zsayv7+0zAHpI5Ot/sb62jl+Q+EjcDluKdwkHd5MwvWun6vcQ90yDm1Ph6hpDHJOVQyoaXheWUn7Y7dChYuIczeFOHiQVTbIGMb7cVg9ilCey+kh6Ceu6/oaboIOARGpej8FPflROrMn1/yviOCEMc5x99tkrdHovvfiSbLPNNjJhwgRKpQLKaMIwJAgGx68LUk/QiM9+irUM1DIHYLjIHIBloLWtU33kQ1swUKtgwtCnvvzEvpTE5klCiKIWWzo6O3n9H//k+OOOY4ONNmatceNku223le22207et846ssEGG/CVU07lX//+N01NTeTyeUwuwI+txyjlHHeVqgG6DdKRxtMBLWqJL+whBx1Mc2szlYE+V+M2bsCLMgYNBKKJk4SWtlbuuPUO9tl3H/n3v/+9XDvqeeeeJwcdcBAiCaEOsNbNhK8PttFugFBcGaChocBee+661M/6yU9/QiFXJEkSN3RGALH1Vx68Yl1sGTFyJM89+ww7br8jRx15hFx37XXSvRSt/Ndff01+fd65ss02W8mBBxzAK6+8QmNDyY241YpAqfrgG6UNQRBgE0Wh2MAZp5/xttdfH/pjHRlMVJqp8elQhgatyxe6nf/7C9BKqNbcmOaU9e6IIIOtTlopBgYGGDF6BH/805+4+Zabl3j9O+6wPUobqrWaG8fro9fBtnpHqKvFVTrbO/nlr37JD3/0w2Xe/+eeeU4+85kj5OCDD6baV6GQy7tRwb6QrFXgBkj5nxens4yIIggC+vvf3gEYbJ90126HEPKUwo+ytVibDHtAzlvgyzgixi+RrTsETuvBD8YinUo/vNSzmw4tqZ13pD9NXU5XvLYCqGXJJyzHsXyZUiX+HVOpr+60PERI54rKEjo12js61Li1xlKr+kyUFydUpBlJtx/WajXKzc1MePF5dtllF3njX2+/p0yZOlW+993vy1bbbM0TTzxBoZAnNKHjEnmSX/oEqCEPgsZzESzE1SXP7Miw/Mg4AMuBIz/3eR567FGM0dSqFVAarZzGeWKtm4me5j0txLZGW2OZpNzE4v4BZs2bx9Rp0/F5RHKRobmx7GqagUZp6mNrJfHT+YAh/+eZyi4CEjG+1vrWd6yjs1N9+tOflgvPv5DGpkYqlSph4H5TlGC8Zn0trtAxciS33XwrDz3wEPsfsJ+sv/6GrPu+dRgzajT5Yp6exb28+vJrTJ8xjauvvpJJk6cSBIZ8VPCDYgwkYELj6pli0WFA18IeNt5wIz74waWT9zZYf331i1/+TE486WTGjR1LpZZglFP3ClAkfnSvoEhqVTpbO6nG/fz1ssv562WX01Qus+GGG8i6666LUoau+fN4+eWXWLiwm76BfgCKxSJBELmNK1BoQpdp8ANX0I64NHHiG/z0Fz9nvfXXe3vL4muSBneeLiJxKVzljXWygmIQ7994Y/WTn/9UvvKlUxkzYhSVJKkzwtN6rR4SYQcS0NLYxAnHn8jWE7aRjs72N53z5ltsqTbYcH2Z+M+J5MMcg1bGfd+1T7msS4LQ3trOD77/A/78x0vl0EMPoqncTHO5Ga0MPb3d9PT2cPvtt/PC8y8SJzG5KCQ0oZvxHkCaXrAkjseBItBpTV3wpXt6Fy9+23UYfJLd72qfbat/Q8CNxFarXP8l1ZUPrKDF5wG88EzaITCY5ZJ6tmJlofGzNUijXMGKrpNo0/HUWmC4zkbdiKZWH2/wxc3CcJGGH9O9lMvab7/9+NlPf0ZzUHbSwuJJv+6muPdBQy2uMnrkSO655z42/+DmHPaZw2Ts2HHkcgVyUcBApZ9qNeb5CRO465676e/rRytNqdToyh6Be6+s+HZFX2VL536IF5wygXvmFi+hyyjDiiFzAJYDxx53rDrrJ/8nc+fMo9TU5BXbLEoFdQ1vQaGMS19jhap1zO7IGKKGBlRDg+tn9p+ptYuelS+g57RBBwEDA461rY2LBgWFFvGa8U77PiCpM5OXhNO/eTpX/u0K+nsXE+SKCJZAQ5xATWKvNqeI4xqdI0ZQrcX85S9/rf++1ppA/2fdVtNQKjlFsNCN9TS4uqj4SYEajVGG7kVdfOmrX1vmup5w4knqngcfkOuuuoZxY9eiOlDxdWuFSiCdxKhMQE0SlA4YPXIkcWLpH+jjuecm8MzTzww5bzdqtKlcJtCOfY7Wjsxl3OxzFTgRE5UIuUKO6TOms+vOu/LN076+zF1d+R3SZU69fGpdNMZXUrXPXiwvGxA49eRT1E3jx8ujDz9CW1uHcyJUOgRJecaBdy6TmMZymRkzZnDKqV/miiveOjDo80ccybe+/R0f2aVlGmdQXfwq3li7cxw1ehRz58/hZz//xVLPMZ/P01B0XRtGh+ggQIeerCqpUyX1+n9KiDR+1GzfMjdrv/xWU58CZ9OMisuwKC0Yo5bo+A4HNnWmta+qeVne+ln568I6EaBkBe7tkuD0/p0bYXSayBuiRug7ahiSBVlZJCkJ0OKuS/ln1usOWJSbggRLFdb5zKcP41e//AX9A4vJRQUnLpngzlekToo0wMBAlVGjRrK4bzGXXPLHpZ6X0YbmchPpyHNtDAZDEIR1Bz1tgU71EZQIOtCE2tCfxHT1vLXLKMOKISsBLCd+/tOzWdzneABaEkQ0iUrqw2CcR6zroy9V6EZfak/2MdqgwxBtAi+Y4tKJRikCFRKjmDdvnnvhvfFKrK1v1OmraVBYSbDWDkmbvhnrrL2O+vnPf8rCRYsIowBPG3DHVBplnFE02pCIq4GPGjWS9o52yi0tNBRLRLk8xUIDTc1lWlpbaC6X3XCZXERgQrdHa+X3ZgVaERYKzJ4+m1122JGjPvvZ5QqTrr3yarXjTjswddoUwsggEpP4GfPa+LX1zoXWAXESo7Si2FCira2V9o522js6aG9rpancREOpSBSEbjypd1S0cdkK46bbgEChVGTW7Hmsu877uPKq5Zy6p4estzd8dTY06XBAn05dwSjxgvMvAG2oxVV04KPC2G2Azhj4iNgEVAeqjBw1iiuvvJIrLv/bWx6Co476PG0tzVQGqjiNBt9f7yZYubPTOA0HH1U1lhoZNXoUIzpH0NraSlNzMy2trXR2dNDS0kohX0QHbsSyMYow0GAtlYF+UtEaW29bdVC+jKGDiK7uhW97/fXVUlLnPXibSyp/lWYHVrES8GBtWUHao5823Q6h37hrUbLSg7hSJCot8wzyDOrObp345+Ru1TBJAIGkfAZf6VeeRZ+WILQF485FL+WyNt9iS3XIQYfSs2gxURi67IjRnrujfKYOnzURanFMPsrROXIEI0eNprNzBK0trbQ0t9DS0kq5uZmmchNaB4RBzj1XocuoLupZhDbacZaUn2WQOpR1rQSXJehfRmdJhmUjcwCWEwcf+ml11Oc+y4yZ08kVCq4MkKbt/KYqourKXa6X26ndBcal/NIBLGEYutp8EGBMQC2usmDufC644CICE7pNVajL7KbmRPkUuesKfPvo4Nhjj1efPuwQZkyfRj6fd/3YicX49J/giIFp61kcO+lNAwSBIQwD8vk8gQ4Ax8IOQp8wEqlHw/g8RS6K6O7uoqmliUv+vHTPf0m495771C677Mq0GTOIwhzauJfe+h5ppVKD5ZT2rLXYOEFirzhn3bS2MAwITITWyiuUGed4GTetLBWRK+TzzJg1m86OTm688QZaWpevbSmtkQ7WoNPBMF5mRbyiof/eimDDDTdW5553DnPnzvfSs944+yOkci5a4rRZgI72Dk448USmTp70pkdhzNgx6qyzzmJRb7cjPPr0tTagTJoJ9uRLX2awYrGxJbGuBBEoXR+lrLUQhIYwDMmFOQoNBWySkAtC3rfOOgxU+uoO8GA3nXPdUG79F/X00bVo6WJLg2XedGCRb3slDfh9KYxk+MS4/4TnGLgplwkiQ2P8lIPhSG+CWqJk7opAbOIJr+k/eBvnyzOpNkA6EXQ4SB9VrZ3zolRASgKwdjBD485j6Qv747PPplRqoHdxL0a5AT2p7oPWnvshTjZZ+1IGiWPqW5t4rowGTxLWxqBDg9KQCyOUCqjVEj720Q/T17sYbcJ621+9I0YAcVmgJKkxd/ay250zvD0yB2AFcOmfL1O77borkydPJRcap//v5uS6qEH7DcJ77rpeJ3aEGyXKZRC8x5/PFxioDLBw4UKuu/46jjzySNXd3eWEOsT1Vqf6MFYcMcoY9xnAMsuDV1x5tdp///2YMnkKQWgIojANAAEG+2lF0MoQaEMQushZewU6YzTGBATGM+h1iDHOcdG4bEexWGT+/AUohBtuHM+4tdZe4W3rrrvuVIcdfhjTpk8nTmKiXOQoWENefmUFo1xmxSiXITDK1LMaGlc3VamKoi/gKt9iGBpNzoRMmjyZTTbeiHvvvYsNN9po+c/Vr3tsrZ/V4CNVPxsisUNEYlfCSBz/xRPVrrvtwpw5c4iC0E1M9M+OuZuSBgAADRBJREFUlTcrLtZqFQr5PP0DfRx34olv/awTT1KHHHAws2bOJO9bAwXx66N8LdsMfr4nHhrt6u8mMO7eBwFBEPnskSIf5hio1Ji3YAGXXXYZ2267HYu6ekgSQQ3NWImXBhaXCdBKUsXZJS9t6uoqN4BHKe0+z/3HoINgqavRrTL499Qo6zQT7OCIZ3ctCnHDlF16epjbptsnxLcApq3FUo/+U4csSeLhtxzWnVXjgoDUoPrMUlq8GtQhWDLWWWdtdfnll9PT00OtVvVOuiBJKoyUcpVcpqa+9/nOhiBwz1QURK6EqA1KhCifQ7RizuzZ/OwXP+dznz+arkWLnOx54rQSrI2xict6WutULgcqVZZH7yTD2yNzAFYQd9x5p9pjj92YMm0asRUainlXDzfa1/asS13rQSKXNoZQa0eWEQGlCaKIqZOn0FQqc+8997DXXnupWbNmiNFu1K72qTqrfJ8wCm2FJK6l5dzlqoWOH3+D+sppX2Xm9Gn09vQQhjnCSPvowtXajPGdx/7lBY3xNVFtNEFgCIzxbYou/SfKEuXziFJMnPgGG260Pvfffx9bb73dSscsV/7tSvWHCy+kNlBj2rRpBKGhVMy7SNgKNkl7l13q0RjjGGZakXZvYzzrTNwmpJVyGY2owKLeRcycMZPDP/NpnnnmWbXeeuuv0LmmZigRl+526VTjnZD0ZfKx+kquwvnnX0C+UHAsflJiYYK14hwPXw5QWhNXKowcMZI7br+DCy743Vsehquvv0btu89+TJ0yBY0hH+ZcNkEplMQo8ZPWcFkNlwbXmMD9UaLcmitFoA1RLmTW3JlgY266+UY+uf32qqenx6X/JaGW1FwbKGlfu8V6RUu0qtejl4TUUEniBYSUwQQp50LVy0AYvdSxtSsLsUKiFOIzL2inu5FOoBOAJEErQYJUnnjloXDZQ+0zMK7clW7F7r8Dnz00ZnhbdN1x0m4uw6CMsttEbJIQS+ydwLd/aPfZex912WV/ZcH8BSzq6SEqRJjQD0qLrUuB+cSPa+BXmMDtH1oH6ECDEbS2GBNQKDbQ19PDnNmz+d1vf8cxxxyjsK4TyCZVrBafjQpcF5MBvAiRtZa+np5hrU2GzAFYKdx22x3q+9//Hou65jNt2jQnSKFcTT0wQZ3g4/Zqz9gPQqJ8Hh0E9A30M3PmbPY7YD8effRhPvnJTymAfJQnCkOKxTyFqEAhF5GL8uRzIcVCkSiXJ1fIE4Q5wjBc3k4zzvnFr9Qtt9zGuuuuy8zpU+nt7UdpQz6fJwyNb+dLiYkG7VsHAxO4/9YQhhoThERhjijnlP4mT57MovkL+cpXvsIzTz+rPviBzYeZsIRjjz9ePfnUUxx26GEsmLeAyVOmUoshMhGFKOd5AdrXxI239+68FS47EAWKKJcjXyqitGZRTzczZ81kg/U34Prx13DZXy9fqfMMg4gwDGkoFihEOfK5PIV8jlw+oiGfJ1/M05DPEUYhJli5iXXrrbue+sXPfsasOXOIcgUK+QIN+SLFvDtWFObJRRH5XI6oIU8YRoxdayzf++73mDFt2lss04033aDOOOMMFnTNZ8bMGSRKETYUMGERvPOntUvP1jkiaQ08VORzeUId0Nc/wKxZs9lxx5149PHH2XMPJyM9dq21CIOQYqmRMJcnzBUwYUgURYTaEGlDmAsIwxwDi5dOBNTalxiiArkoJJ8LCaMS+VyBXBCSy4WEYYgODMGwn7I3Q2KIohATuZp0mMsRRQH5XI58PiJfiMg15IgKeXImXHnvziMyEWE+h4ny5KIc+TBHLpcjDCJyUUguH7rvm9AJYw0DoQkIw5AoFxGFIWGUIx9FRPkCuTAinw+cRkYYosNlm4PDP/0Zdecdd7DO2mszbeo0arUEXYgwhbzbM5QT7FU+86a1c92UxgVCYZ5Ah8RxzJTJ01lnvfW59557Oenkk9zzNG4sDYUiURCRj/Lk8kVyhRz5fJ4olyeK8hQKBaIw54amZRgWsi6AlcQPfvBDtd9++8qvfnUOt95yG7PnzEUHmpamZpf+1z5SjmsICZVqP73di8gXi2z5oS34+tdPY7/99n/TTlKrxcxbMP9tjjokf8+KZQf32HMPtceee3DxxRfLxb+/iJf+/ip9ixfT3NRMkIt8lBwNlgU8i1vEEtdianGNOBHmzllEoiztbe2ceNJJnHTiSWy22aardEvecKMN1N+uuIKnnn5K/vTHP3L9deOZPXcOlpjmlhaMMZ7gF7qaNgqxLo2dxDE1a+nrXUhPby/lpiY+vMVH+NzRX+CoI48c1nnOn7+AWq3GlEkTl9qKVswXqVVrLOrqXunjHHf88Wr8+OvkjjvvBobe9TS8ciGwUQFWWZR2hMG999uH556d8JbP+8lPfqL22Xdf+clPfsxDDz7InBkzKTc2Uig1uLJP4LQlHO8iIbYWLTDQ18/srlk0NjawxRZb8uVTv8TBBx7y5mfWxtRqNaZOmrSUq1GoQJAYJjz3HKPHjlviT/X2dFOr1Zg8ZcpS9e+jKKBajVnU9/YthSsKUZZ5c1w6ecHb/FxgHAm1v9I/rONNmz2T3kXd9C5axND3OYVCEUQBtWqN7q6uYR1rQVeXe2YnTuatrCH3ZEW5HLVajd7u5VvXnXfZVb3yyst899vfk4sv+QOzp89EG01ruRUdunkmOtXHECFJhLhWI65aFnbNRmvDOu97H2d++0y+euqpb3qe2trb6O3vo3d63xKO7H40CDVxLeFf//7nSqxIhqFQy6NYluHtMXXKFLnhxht45e+v8shDDzNj+gzXqxpoVOLaBTf/0OZstdXH2GmnHdn+Uzss0RAt6u6S3/zmd9TqEpcqZWz5fcL3RVlLrpBf6tCa5cHjjz0md9x1J089+RRPPvkkWmkGKlUqlQE3p147rkGUy5HPFxAS1h43jh0+uSNbfORD7L3PvrQ0N6/iWGzJ6OpeILfcchsvPvcCN918I3PnL8DahP6BAZKamw2O1i6ayucRsXz849vx4S23ZP8DD+SDH/jgKjnP8ddfLy+8+JLjFKQ8AJXyxX37ltZYK2y39TbsstuuK33cqVOnyB9+fzE60Oi0FVDS0g+uTq3rpH6UcoOATj7pRMaMHff/27ub3qiqMIDjz8yUvm1KO0QX1ESNg402cWuhtmkiRVj7Bh+o30D6FWSjhrgwkZoIXXQDsQtQTFTcECnTDoO2DZ2X62IGGpN2Q9RUn9/vA9yTyZxM/nPPOfceOu5367eKzz/7Iq5fX4319fWoVMqxs70Te61WVCq9W+2DI8NRGRiIt96cjtm5+Vg8fy5mZ04feM3V1dViZWUlylGOTtF+tgGwiKdvM+j9C+x0OnF2cSFmz8wfeJ2Vb64VN769EeWBShSdbu8kzP7TZ6Pob/5qtdsx+85cLL579m+de0tLS0Vrby+eLvSUSvvr2f2FiN6t54j44MP3Y/qN6ecef3n5cvHgwUZElHo73fv7XJ49/Kd/OqhbdOO9c4vx9szMc4919eqXxa2bN/vHdTt/mau9B/n1ztx3u0UsLMzF/CG/TYdpNDaLK59eibW1tfjq2tfRerIX7XYrWk/2otvtRrlcieGh4SgPVOL42FhcuHA+zpyejY8ufnzgOPV6vbi8/Mn+Mk/R6W9i7Z+KKPXnfTfi9VO1uHjp0r/yG/R/JQD+AVuNRhFFb2d9pVyOgWODMTY2dmQn6qPmVlF/uBk/3r0bGxsPY3t7N0pFEcdGBuP4+HhM1Wpx8uRkTFSrR+IzbDU2i59/+iXu/Xovfm80o9Npx9DoYFQnXoxarRYnXqjG+HO8kCSbR41Gcf+3+/HDne+j2WxGuVyK0dHRmJqaisnJl2J84mh83/w3PH7cLHZ2t+P27TtRr9dj94+dGB4ZipdffSVqr52KavWE+XTECAAASMgmQABISAAAQEICAAASEgAAkJAAAICEBAAAJCQAACAhAQAACQkAAEhIAABAQgIAABISAACQkAAAgIQEAAAkJAAAICEBAAAJCQAASEgAAEBCAgAAEhIAAJCQAACAhAQAACQkAAAgIQEAAAkJAABISAAAQEICAAASEgAAkJAAAICEBAAAJCQAACAhAQAACQkAAEhIAABAQgIAABISAACQkAAAgIQEAAAkJAAAICEBAAAJCQAASEgAAEBCAgAAEhIAAJCQAACAhAQAACQkAAAgIQEAAAkJAABISAAAQEICAAASEgAAkJAAAICEBAAAJCQAACAhAQAACQkAAEhIAABAQgIAABISAACQkAAAgIQEAAAkJAAAICEBAAAJCQAASEgAAEBCAgAAEhIAAJCQAACAhAQAACQkAAAgIQEAAAkJAABISAAAQEICAAASEgAAkJAAAICEBAAAJCQAACAhAQAACQkAAEhIAABAQgIAABISAACQkAAAgIQEAAAkJAAAICEBAAAJCQAASEgAAEBCAgAAEhIAAJCQAACAhAQAACT0J9JjPclKyjTXAAAAAElFTkSuQmCC;imageBorder=default;" vertex="1" parent="1">
          <mxGeometry x="441" y="390" width="140" height="140" as="geometry" />
        </mxCell>
        <mxCell id="yBYCKp3V-Md0Z7jDwAjW-9" value="&lt;b&gt;&lt;font style=&quot;font-size: 14px;&quot;&gt;AWS Neptune&lt;/font&gt;&lt;/b&gt;&lt;div&gt;&lt;b&gt;&lt;font style=&quot;font-size: 14px;&quot;&gt;GraphDB&lt;/font&gt;&lt;/b&gt;&lt;/div&gt;" style="sketch=0;points=[[0,0,0],[0.25,0,0],[0.5,0,0],[0.75,0,0],[1,0,0],[0,1,0],[0.25,1,0],[0.5,1,0],[0.75,1,0],[1,1,0],[0,0.25,0],[0,0.5,0],[0,0.75,0],[1,0.25,0],[1,0.5,0],[1,0.75,0]];outlineConnect=0;fontColor=#232F3E;fillColor=#C925D1;strokeColor=#ffffff;dashed=0;verticalLabelPosition=bottom;verticalAlign=top;align=center;html=1;fontSize=12;fontStyle=0;aspect=fixed;shape=mxgraph.aws4.resourceIcon;resIcon=mxgraph.aws4.neptune;" vertex="1" parent="1">
          <mxGeometry x="661" y="421" width="78" height="78" as="geometry" />
        </mxCell>
        <mxCell id="yBYCKp3V-Md0Z7jDwAjW-2" value="" style="shape=image;verticalLabelPosition=bottom;labelBackgroundColor=default;verticalAlign=top;aspect=fixed;imageAspect=0;image=data:image/webp,UklGRoIeAABXRUJQVlA4WAoAAAAYAAAA8wEA0AAAQUxQSBAQAAABsAUAsGqn0bwY7h6oe3F3qjgUd3dr0QanXggVGtzd3d19W5wUd4dKgiWEkLzp7tLkzpw5c2/+IoIS20iSJIlmPhuNmqmde7oysyL/YEN8xQZNWbNh1veVU4EHSfZGI5ZsP3r1VuSeVRM65wfXSNqBN/FfeTTlBY8hTds9CZh0rg5/xR00uYNJ5sn3QR6Cr/1NdJBnU3K6wM/nV35MLrtzeIfn2YwO80ct7QUtQQc5G+oRvHwBHSehh+4CF6CjnM/rCeQkDKK/rfbjWepbi6TEFdV9vEvbIjFHAzQf79JUN6mwpeLjYdoKyY7pPV6mW+mwsNbjZZo5nsEwpcfTtBoy2KzzeJsO5vC3yuNxOg05klnh8TrdyKKAvuN5uo9FGXXH+/QQiw+0HQ/UAyzKKTteqFtZFOaRPspBrto5nqhzWOTkkR8d5L6V4436LYdYH48ajtg4HqkNOewHHt0UkOW4KXgu1G3l4zCKySgNPshyCL3S8jiDj7gOKjmTYukgujvBTK45k2Jprjiyr4BHBr8zKZeOoorKyuR9dCbl0qy3iLoAk4EOpWBaOYFkpY/LcodSMu3iJ/g1HTAJ+MOhFE3bxju/HCsDcCmJ9gpuCsknm0c6KFTqnDNPBwcCm6H2ClyIP3i2ZUifWw5Wc1jf+H7EIUsGPVwhuN6cu0mez9neJxdw5h10yJIRWLfNSzW7DQkP/6p3wyLs20AMd8qOEVmPlNR3nbJiPHy7olM2jIdvyAXHLBgv3zB0TP54+ea575z48fL1rUfnpI+n7wAkED6evs0SKWSPp2+9eKSwbxBHeuL2SkALBS9HSr51dHbv5qywxh9XbfnNqkeesFkXINIIHuaGJLU3V63tnq8Bze8g0QO5Qy4tZU96ugbVP4HkJGSROoYbPMK7tdB3t5Ajl5cvoeRTc2O80C7eg9X3ZssJV1FCZgv4H1H+P+SXtX5Vm6tIrQ6d+w8YHh4ePnjAgC7NPy6YJ8igsuFsCUtS87n/iUYpmW1uLWH5ParY4IItRm6++tTZv9UX1//cqWCAEYz/nl5M0mpElMPYWsQy6Ih69RXtv+0JUnN/44/hTEmVlCX2M7UWsizpV62+ClPvoahkTMph+xlai1luRL2ad9gFRBQryn4G1szuBtJURa364ugniIJlRfvxr7mNo/4w/tapodPiEUUrqQD2NbsaQMwiVKi+zg8QhWuqAO41v1D6Fg/6NP9BRPEGK8D82vB5pfqoTps8RgtMV4DsNV4n+wCVaWC4H22wSwGsaxPOk1VEXRqyCtEK1xUge/Aew30xVGnISrRDqkQFMD5qhj81/S0/mjR4FVribVQA39pUilBFoCYdi7aoqQG2tTF9qSJRkbZAa/TUANfanK3UM3rXUY8WjrVH51gFMK0N8r9DfYv/FTUaeATtAWkarY23Hc/aaCYBMa/d0KK90AZJJmvrrX52hT9OOnXWET3+mJb8LGuzEoqBisvQB4I9vPLbxrkRw7qHQHJ5odcRFoQUM3ldPc/adA6FqLgcz/PP48kZn7eqXbFo8TJ1e045mki9rn39nFFDujZ4v2Ae2s96obExBr1pEsvafGaCgsucsQx2d8qZ3MWYXQ6RJFYCphR9KJbptYR8Dfotv0OyjSWc7RJ7FAm5mgmYEiGW9YM4Nki7piZfJBXV0PFL3C8pTzOXS32x7B/EA28p13pIdPZVyveYcu1WQyaVxFJgEJ/+kk+1LiI6kwuA0gTnrqXhUU4sk88mKrs0e7J0MTTRbwAtX6LzDLWbwREsdzddWhNp2pB/eQhPFpXBauZGslC/Lv2eZq8PqPkInSfMasZGNhTWfKbtoqkO9BwmPBxgM1MjnbBeMNzgWNoPycdxXw/KXdNtZmjEU6VvIcn3wCB3onMzbGZm5FOl1WgqAEcinbvts5iRsYAq7U47npGGguU6+fwWMzE2UKU/kpxi2tSZoIfFDIwVVOlMknU8mhJMsBj/2EGVLiGZyuNjgh0WYx+7oL+rAl1HMppHeYKbOgpejnbIk+RVDe0dnuiJObVt667rlhwJ3EnyI49yBLEWYx5rUBtW5PlXV+lrTYy2oHtIpvCogoQE2Yt37JFcScnQ+0/x3UqyjEcbiiz2Yh2LcBZyzJfeNSQ7jV/Rlcle3M9m01dJ8snIF70nyn6ymSTXeGwj8AdqJ+h/a6u+4F1CkwTW5pW1G2QODmkpl3o8Bu2MQ7uwtwdy5mwWbj1oWnJoigR3tNMZLcNf3n/vNgUy+4hmjeHXG4eUExpjG/5m593B7itmeYhv+XrF7G/VecqZgLYx0H6sHudmLvFa3zlkqU6TDNVNjnjrOGsV4vGB+8iZ0ZIusfZ/TDURSRropg1aJtTIWe7prP5kfrgr0nL7JZq+xN+nuXWzCDX44iwQ1UHWlOWVz4+0nH2Rsj/pQD/NcdDNCRXMpMrKqz/w5jekLt93LBt50/8flfOnCh/0BWoesvqFWQ+kJnFSHmeHyDvdQ6r3lBOnwheNyc6xWsgsC8Pb3mOmlUv2Ivm8g64wnHPwKeeGCuqQ7WU1Q+L2Fn8s7l/t3SwA4MtVvPnPR/w8/7Ap55B1H5hxnNVwbq8+Q748Y3w1HZdTO+NV0J3sHqsOwP8fifkJtFNDBT+Qd/5N5OTPxy5HtEDR2dST5k8N7Cff9BA5HQX+dBRoAKgH+mngWUbqpgKsWhng2yTO4WAFpbmmwTHfzsTfDGc5/R5gZJuyG8I8yQ8KgtJPFBDpk/KZTnxFMJIysbJ0AxVBGwVgE4qAQ7y/zoZSJ0GS0aAk6KOAO5kJuiGjn8FYGsfLsSpQAXy1Hy4LcKxgDPchfmPLh1KsSw16gt72w3CnQq/aMQBv/i5kW/Zg0ABnLUKoz5FXztkyABmWC+D/zgcKiAHO9LEfLs3s5Nn/ZB3zqX3JtD9qAWgg0cdb++HNZgHJCJ3tt2oA0gx9bPY5coEOMBXw1n6Ip7plT+IIULkpcWjZAFS8b9C11gBayAzMVQDis18nftGpee8flt5FtG9qxKAxf/VPBXp4E5jT2w5ssXHqxqEpl3ulA1BENWCvDRSbTgloRuySOoEAdnmDqgfw1wJ6TZgfTYha2TojANjmJarxYKDyyR2hO0uvrzNyr+Mjg/6LK8KK///bWygP1VUwUfGUGl+E03fdvfTc9bUfdP168qr9py/djIqKunPpzMFV44a1LZ0e/h87ZUNq8hupdEqtw9Ghz4EUi6UlGwFGKpxOMwIdOhmsFIilehBqprJpOollQStX6Ts+BJmpaBrNcMIn3mr5DclZ4PRMckClsctIlUzwyNtU+nYmvaxCek586EBoi6m3ERNzkiqYQscD0LEmoJdw5MixIeX/fcQi6I26A+f8+1x4eyBVLnWmRoLzf4xBMW357gF+I/Jw5PXk7jG+2pITPTfaCd1CZRTIUPiR80O5r8r3HtEV2gXSaDIxaW3ok6HJfh6Tf4cqk/oUOrao6KtZfMLVIbpH2zTJ7EXxn4D8nivk6MeToMfAN+RX2NdO7lk7b9z3YZ0bVS71Vq5UwgyhnsvOQNv73KjpACD8G/yaHRyl1iMrRuaWfDE3I/esnh3xZc9Wtcq+lNqwtA2jya/zXqX4yqh7geT6TYvMCg7zYZz5Z5Mi3PTbXk/vWvDLgNbV3k7FK+ClDzuNWHLsGcsFILtnDGlaMqsjxdFoyoHsRhN2cOypxAT9hUKSeHX75M8qZuRQecz6s08NnCc+tHh48pvpnDJqJNBrVkup70EdBWJ8gLLiv7iwy5tiN3Euk6xhRp0B4zV3P+O34jUYGIYCc3NGtSAr5DK7N/BbAIIfJG4kOlf+oxZvw3hvbGELwGijwsD00uD9jMsosAbYhmKz7yP5Qh8Z/XsfBPdboPFdVWBgJwrOllelgx5GP9XNxVM/iblbj88w9agsa1FyYgcEChewCw2mHchdZif/WOxfA0xC2dmYXjbIcdGglQBSl0/JR8mb2L8G+BSF51AO2eDdaHMOgNheo5/Osn8NUAil53Q22aDANVOf2Nb2AVv5XSIrq8AAXJC/U1eQbJDvmAF/Rzx/BbbUZSxZAw0GeqH4fC0chHwdzythS8vUACC6Gal6aDCQ+rp4zwoIB1BwtZ/vleGu7jnBQHpzK0EVwexnEJr3E8R3k3gARRbEspwanN/iuZdv8tuPvC+4uDH3Uyk+JeUDyNh2wyOS20t7lQg0+ivjF/RK5DU/86OC0zNRulk2AICgMmHzjzx2cD3cqcVD6rxs1x9HfwHiZRLMa9Epe0m46JAkFW1kLEybkvvyFq3eut+AoeHh3w34rGPtIjms/Dt4Pu0WTvfVGICMX0TLbhWwOTbWX5ZiHO/ITwvZJinCkm9wIYOIz9NHgXy142Q7DuCyy6WON4999a4q62bPULa4IHDb5WSHfeG8KlNH+iC+A67bZY4eLH5DlakSh+I1BPftuQrJ3++yf5wqU8jpUZSLq/f8fitWil7gwvUvLZb0qvVZVGWyOb3gIer5K6rShOavULt1r69Gz1m779Ttp8YMBTcu4rFhlUKDANK+3mjSn6jL+LY6PQ1SzekBhJeLftSw04CRU5bvimT9nTcSXKecT3v3Ef4vygx0N3r7xQyvfdRl1K/POEwEd6nwjAILvPjY6eGMtMCY9C0P0s0Bd6n6A1MdXyjM/iIzmn4A0GWq/bwW79BmYE+pOKIfwG2q+8BIdKgW8CeC/M1cp9qNmXfw3A8yoCzRp+A+VXygJHJ/bG6z3+rgQtV74DOnphi5uS9RKLhR1R6Y7tQ4ce/JiAJwpWo9cNDxeWcTulB3YnSpKj1w1qlbPmnvnx8EblWdB+7I+VzvA/Jpe9eqygMPnW+slob9a18mnsMGcK9qPHCPcH1JMK/Qw+RdPtys8seuN8PuYH1ZV+MW0jzJDa5WfQdIJ+LuD2K7W1vF9UjNFAB3q7oD04hbrk+tk55+zPjdQQzv9Ut8E9yu2g58Rt+UZdvw5kWdfh6Z/t3a32ziedfNGHC79PIrO1AUWZJ4+8TW+aPDwwcOeC7fRUxbsvlEFOO+LhnABStgrPuK8vMJuGC6+HUdGC7fGAB3rKoDeWKl2xwEbllNByBCuDOZAVyzmg5kuyV7U7p8AC5aRQegcqJgh3MAuGoVHYAvBe8nnQHAZavoAIwUKuGrQADXraIDvnC/RDcqAYCH6c+gQJo8lrfn5PisAO5cRQfg3T3CbCsAAG5dRQfA1+aeIPtqAYCLl2f0SLpe12VIXFseANy9HKNKQtru8Rt34avXAcD1Sx918vLQE0ZfIowuDf+LFyh1VEqeNvPvmPBoXa/nLqT2CqWNXnmh/vCtjMf/4w5N7lIyBP4XL1HKaJf0RRsNnrj64HXCLgZRp9aO7lX73X9dje016nz0TKaXC5St3KhD5849Bvw/XTt3bFSnwjs5kzqk603qdNwgHqcp8AFoEpP8ua4BkAJOyeTuuXG7MqSIE9LjdlK3DxyYFlLKCaw4ckvk7VPbf6kcAimDAFZQOCCKDQAAcFIAnQEq9AHRAD51NpdIpL+iISYxKnPwDolN34iCgtwNJ24Z4h9/SPwAyMLwB+nP3sIAfkBLf+v/mgP4f7ALlSEP6t/X++K3x3n+5/uH/g/2n6xzqz6z+m/yi/FfFtAR8m/S/9T/Svzh+cv/B9T3mBfpH/pv6h1p/7f6Av9V/0/WH/3f+i9l3+o9QD/FdRf6DH62emD7F/9U/7/7g/An/j/6x////v7gH/79QD9////2u/WH+gfgB8tucdsy5wayzey+qlIMtihFQ6Ue5eTjTYk7JMt/H3+PO4rCFUYYkZvd8YucgJM//V4//ijGlF73fGMkyjj2M5wmaiILoUFXccmZjzBrGqn2nzlyb93xjJMtiFZR5VDqsg7OmpyJuaMWCqxfjj9jVeC9TACcemW5yt64b3FHx++EGIKcsryweGWrFrytNXfLPZE9zX7WaRDjNGDedr1SRmy86eW4oAZTTQ08glnrhys6tEIxeusUr8m072xEo5AI30jkfynvuM9j0RRpUhw+G9E8QZyWHZCVqYmYmYuKXxjAbQswb3J4SgPiLaTgOGyT2DslDN9f1dVTivivjKJce9spbkFtx4LLvlKZ46gbJz89SYirJzaZUp43DKK1MTMW2lQp+Sz0Xo7GYPIXFKoT1DOk+iAaoilJtiaAssbdx/Yd9dPu0oRdzG2XCm8V6h6NOJlaYJEhiGY7q1JiKXuNvxocsaallqeel6c+TN+AtyfQ1SHr6fczHC0PnSouKVQn37atYpdUWVjbOaW0Bvn/e14UlBWCuQWI4H4r6qMZF8UCAqRabxiI16Te74xkmW3Q2V3noYHNJpTLfw21wwVQ34RpVJvklxxfC9Mh6ZD0yHpKCxR4UmmVjJMt+SDl/qZTLfx9+sAA/OrwjBar81b+7Ic/AnoPJQZPxPJgHwNSch8B/cdeiT9y9jWkW6ORDMvBlnfOQGZF/gj3U92z8lAiuE+cmYaR2HqrXkNiF9V2ZJkJ7ZsAABUI1A+YUI0oQg6DmyEZZ29gRPZMawNZoYKnpnwO4jt0MWJO6J8nKCRXnZABqRc6pm191uoAF7Qafc7QmYrjGwJioEwWGoMJt+qBb3vSOiHfcYtsGa9pcnwf8cUznTWPmH2+L891Y7Z/SuQUMDXzij5F0zNOalHb+AAABML0qm9Y4yYlDMnvdrFNOIvEwdASKwkmiEby13r7oVh4cUD8eM54JXS1bM5ykM3oFnHRgWia8jRFKHprxICqlLThuwENJr/w/f/4cjxhYMaDJIthwBW0FRDvH/6vzS7gmSJKc2zPSXbu97jsH0AKhm/vM22F+QgJaiHFkLnvNFIRtFoC/I6FpP5MSOOkqTI69mO0VkJML9Avh8JgFM1bqJthEpWDaYKmzWV8j8NaLO8KnOoVt4LMlAZEcKyfExcYontbb7K7C1DA184pYr9kHPYrjmgAAFe3GUEBH2W2/U3IVaB3wBGKhGC1p72/yV9MaZxYu0rnoyC9mpzW6wVjVR8bylKRR51yNRlpK+PjK1AANupBmTQmbl1T+ydbFUQLWonLlm9u0YiKW0deiT9y9g2MNrGaN6vizIGk9Hi+TTtu+AFXPxVycYN2b9aaM84huFHrNerKUIpVoT/pxPumtB53IAiSkISI9xZeaPtJDmt6BEGvu4RdNge4h+Syosc9ZMAxu0CiXWClKjxOkBfG4A/rnBOMLtvhWAB+z9oauuzaIdz6ev7DP0BXJJTAMBoKXEMlnBylldjC6AG0d5nYzRwIB8OIu/vD0txW1dEL84VjwN+1llyS3YndQrz81JckLHAoHwaILzuGlfwhCuL1ugZid6bT4YwoeVIDJuilp3//vTnOjWB0GTSALZ5bKRQjSgSZKGIt4y3Nb00I3zw/zO4ABzxTLVsYvSBa1FBbDgCtoKiHeP/1fml3BMkSU5s8XrYEj+7UowrsLOCIZ+FiAc2aKDNxT80rNe2XTp60mLW4J5TV/PHJ56pjjLOWBr+5Gn0CMDOSkSRCujeseglBB5i2v3DFOCN9O7J67EOw4pefMC8xV57RoWJmZpJVmkfgOhz8hQnRnZGgu8vV5mFRGNYPtqB3vI1sM9xC+q62G9AQ6fS9CllumomAuEggpJQA+ILyuMGjnR/BLhvNBZS/3SbLZKmEsbb0Ng/OsHP6LNtMAA9wav60pXtNEdcWdQe5RUbPdeyUlL7r1RXBPzcfSuJMO7gl/uDrXiuNH+x//1h09MGwjW9QFkc9mXbeYug6HSwtJglzQTyF9auYBO5ZrqBEuevg2ZOk464k13uxIFrUUFsOAK2gqId4//V+aXcEyRJTmt6ZUFAi2OJcCGpZRjL2EsPgLaQHB6ENwDlHajTOBpPR4vk07b59uNacbvDXxO88Q4Fq8RodQKr0tBcgJjO7J67ojJxLBUE+o4qeu75jG1VlbsNqTbCJSsG0wVNmsr5H4a0Xpy+S07/NEreARcjrrAAWadfo6fknxI6LPPKxy9pPc3nmmOCoCDFJQM1obCmJhPnmOT6NfN8qrtyvKP/RLJFCbSuWrAD7u7A/csxZFUcJtPyG46GPCxzb4yvzf//vbu2JrbPzeqzyluDpbBgqeDGbEVkge8U2FWMaRMutOR53XgsHRBhXrg3fEMGgdZcIxj9EKIxCiB5BbXVwD56j0//F+o+Zv4mqic4tH73j9+9eM/TJs6oOElkfIVwa6lytD4Kl9VasnKMRiuVcYW0dLjXKqmxaqmOCMqhw/6APb6Pv//8Y8k2dfS/nlkW6E0RMQ5/4o6sDePLpcaYTd29suLRhY706tTpVyuAJAWKQbqwN4epFxFK9sxxWOikLNmyaKwe/0AOwpjPeHzEEKSm4O5Z9/gXEyQMHKj/8F3ValV6xrpk6ryeN9NdkdJUA/wY1KCcHv12UDPqJRhLJlex247ND6YOnogowDCeh5ksN+WuFdbStjbyHACuPk3F8N7BhKe01z4vKWkjioP2orKw+0l4yf1Ou8N5b0Pp+qjyzzb8IAvV9QMICZXTCP5xwzlhd4iENIyc6PzXMuRmxLf0G7H8gT836RMOrq65434hbT5lj6La3u5f+a6v+RNVFNS0q/hR4a9PgfSaKjMwmUWDclG0gbKIaAkIv1v1VW6HKregkdiWfrjZsRs4Qp6HtDwOJ8FF7CVbG/2VZgAAdNqI/WqdfCDfC/6DwQT31xQL2qgcRKLpCg04k8d1Wk5nJpCzxH0jR1bv+5ZuD9nuQQvFlXrICl/fxakvIHbFRkVmWO5dBb94a8jO1BAv/+J5ACf3eRCysOvoHGsf+gh0mdF8qfK/sSC76ezJKExE3wiTNCYw9+nBB21nLcUaTpxmDY1I/bHLSmD9eRmxLf0GbZYjx1DAWe/X45Y96wX5Fcx41NNAomRh96X+5vnonQHzZDdHNiOOTbfEwttoJnE3//u3lJ/OR7MQDvkjX8TEY9h5zPQCZE8ikNFop4pubdEy3K1+HCYLR/7R+RPrtUhxr0B7WX30Oi/63pMgDugk9aNynCfHyMzWqixnaveCktCZo3XQh2o5wtIQPMlPmW+V2zGGXfhIV1ANjStAk9uDGE0c5fD86VpctB1D2WG9kH+0RbOcfsi4FbNfXhC7cRywXWoSt6EHSR8FXnJuKq/sSzXR0cTThpE3atIWkpC59sCMxhNQ2zQKUN/XEJIJUdrFfH/XPhJtOCirnlF6jRw5GrbR0iGurpUxOK8DPOlyc0kdodeIlwpZ9z+QP/apDuXeGQdk5mmAjtGaxDg0BYhA8xX8GW/OYIUu7Rz+NuVGBBxaXs9Aekygv1RhZksZ3t8NMR4qkKPDBxfunIey8f3/7Jr9B01N06N7s9svmjUa1Zb30G2TrNyKwWTymicbhIwUrTQDxws03EIESLaQVDhwGR7f2gKkhX9mQjheWlSaqNyWN+ZZUqUak5nJpC2Y7wQGJwVVKKJLWkdCe4jgyc9AA+Djdths1Jo7J9BxD2tMXMi01yd8qy/aFphNEbIblLKifwOdpnbuNRE1IhrazluKNJ04zBsa0Zvh8T12rzL8+z6GjOsS26bm8XOfQbAfn+fyT4wNKBe1GR0vAT39OGlucgcD7IoqRcrB5Dr3MgU6e7SeAWfVl2lm4dtxE+mxjRMMM03DpulJ7v/3ztZBq72HSw6+A/2Noaz+21wSiQNRpP2PSIeHcO+ABUqAAAABCpNrq17UqAX435YyvY7cdsqciznNrJrA6YXcpKGs2b/YNEg9fl+fZ9DRu2OWlMH6qac/fy2mjg/OsAG90qxiAjtaptkQFk3iUVsw+IQ05ZxHGWZOki7nxEo9GtoFB4fP2+WbrxB+9N/xTiyvCadqt+aJqHJwvuWo554AAAAPb2D86TAPrJGjq3f9yzcH7PpZEpDqHf61dJB74uFucZg2NaM3w+J67V5l+fZ9DRnWJbdNzeLnPoP/gFwC/LV3Hi8tQ7GzE38QoRIa8lBYS9Nx6bHkVWEKiz33NRTWIMjRbAZEBzcj88kbh2mCgFU5s98ml72lYOqEjA35VEGQ4tvY+PgOt0CXyck7GkNbLsw1jdWL9kHCHzAAAABAxU/EWsVJfHS4AiimeOOpxFoX5nvaYrjfVfJg1xvpmJp/uKXCc1AAAAAAAAAAAAEVYSUa6AAAARXhpZgAASUkqAAgAAAAGABIBAwABAAAAAQAAABoBBQABAAAAVgAAABsBBQABAAAAXgAAACgBAwABAAAAAgAAABMCAwABAAAAAQAAAGmHBAABAAAAZgAAAAAAAABIAAAAAQAAAEgAAAABAAAABgAAkAcABAAAADAyMTABkQcABAAAAAECAwAAoAcABAAAADAxMDABoAMAAQAAAP//AAACoAQAAQAAAPQBAAADoAQAAQAAANEAAAAAAAAA;" vertex="1" parent="1">
          <mxGeometry x="322" y="208" width="119.62" height="50" as="geometry" />
        </mxCell>
        <mxCell id="yBYCKp3V-Md0Z7jDwAjW-5" value="&lt;b&gt;&lt;font style=&quot;font-size: 14px;&quot;&gt;AWS Parameter Store&lt;/font&gt;&lt;/b&gt;" style="sketch=0;outlineConnect=0;fontColor=#232F3E;gradientColor=none;fillColor=#E7157B;strokeColor=none;dashed=0;verticalLabelPosition=top;verticalAlign=bottom;align=center;html=1;fontSize=12;fontStyle=0;aspect=fixed;pointerEvents=1;shape=mxgraph.aws4.parameter_store;labelPosition=center;" vertex="1" parent="1">
          <mxGeometry x="593" y="232" width="75" height="78" as="geometry" />
        </mxCell>
        <mxCell id="yBYCKp3V-Md0Z7jDwAjW-7" value="&lt;font style=&quot;font-size: 14px;&quot;&gt;&lt;b&gt;AWS Api Gateway&lt;/b&gt;&lt;/font&gt;" style="sketch=0;points=[[0,0,0],[0.25,0,0],[0.5,0,0],[0.75,0,0],[1,0,0],[0,1,0],[0.25,1,0],[0.5,1,0],[0.75,1,0],[1,1,0],[0,0.25,0],[0,0.5,0],[0,0.75,0],[1,0.25,0],[1,0.5,0],[1,0.75,0]];outlineConnect=0;fontColor=#232F3E;fillColor=#E7157B;strokeColor=#ffffff;dashed=0;verticalLabelPosition=bottom;verticalAlign=top;align=center;html=1;fontSize=12;fontStyle=0;aspect=fixed;shape=mxgraph.aws4.resourceIcon;resIcon=mxgraph.aws4.api_gateway;" vertex="1" parent="1">
          <mxGeometry x="262" y="421" width="78" height="78" as="geometry" />
        </mxCell>
        <mxCell id="yBYCKp3V-Md0Z7jDwAjW-11" value="" style="shape=flexArrow;endArrow=classic;startArrow=classic;html=1;rounded=0;" edge="1" parent="1" source="yBYCKp3V-Md0Z7jDwAjW-1" target="yBYCKp3V-Md0Z7jDwAjW-9">
          <mxGeometry width="100" height="100" relative="1" as="geometry">
            <mxPoint x="351" y="400" as="sourcePoint" />
            <mxPoint x="451" y="300" as="targetPoint" />
          </mxGeometry>
        </mxCell>
        <mxCell id="yBYCKp3V-Md0Z7jDwAjW-12" value="" style="shape=flexArrow;endArrow=classic;startArrow=classic;html=1;rounded=0;" edge="1" parent="1" source="yBYCKp3V-Md0Z7jDwAjW-7" target="yBYCKp3V-Md0Z7jDwAjW-1">
          <mxGeometry width="100" height="100" relative="1" as="geometry">
            <mxPoint x="351" y="400" as="sourcePoint" />
            <mxPoint x="451" y="300" as="targetPoint" />
          </mxGeometry>
        </mxCell>
        <mxCell id="yBYCKp3V-Md0Z7jDwAjW-14" value="&lt;font style=&quot;font-size: 14px;&quot;&gt;&lt;b&gt;Adage Deployment Framework Model&lt;/b&gt;&lt;/font&gt;" style="text;html=1;align=center;verticalAlign=middle;whiteSpace=wrap;rounded=0;" vertex="1" parent="1">
          <mxGeometry x="262" y="270" width="200" height="60" as="geometry" />
        </mxCell>
        <mxCell id="yBYCKp3V-Md0Z7jDwAjW-22" value="" style="shape=flexArrow;endArrow=classic;startArrow=classic;html=1;rounded=0;entryX=0.506;entryY=0.929;entryDx=0;entryDy=0;entryPerimeter=0;fillColor=default;" edge="1" parent="1" target="yBYCKp3V-Md0Z7jDwAjW-10">
          <mxGeometry width="100" height="100" relative="1" as="geometry">
            <mxPoint x="510" y="400" as="sourcePoint" />
            <mxPoint x="650" y="300" as="targetPoint" />
          </mxGeometry>
        </mxCell>
      </root>
    </mxGraphModel>
  </diagram>
</mxfile>
